<svg width="42" height="41" viewBox="0 0 42 41" fill="none" xmlns="http://www.w3.org/2000/svg">
<path d="M0.425096 16.0019C0.453015 15.9439 0.490598 15.8892 0.507779 15.828C0.838508 14.6908 1.62131 14.0326 2.75846 13.8661C3.86554 13.704 4.75679 14.1722 5.36349 15.0988C5.62335 15.4951 5.79193 15.9579 5.96159 16.4057C6.63057 18.1667 7.28236 19.9331 7.94168 21.6973C7.97389 21.7832 8.01362 21.867 8.0512 21.9572C8.3916 21.8659 8.71696 21.7618 9.05091 21.6952C9.6125 21.5835 10.1666 21.6791 10.6369 21.9787C13.0508 23.5174 15.4754 25.0422 17.8421 26.6518C19.1918 27.5699 20.154 28.8681 20.8412 30.3554C20.8788 30.438 20.9239 30.5175 20.9894 30.6464C21.0624 30.5218 21.1193 30.4402 21.1612 30.3511C21.9859 28.5793 23.2401 27.1834 24.8755 26.1278C26.8319 24.8661 28.8109 23.6377 30.747 22.3459C31.7628 21.6683 32.7743 21.4171 33.9405 22.0098C34.2164 21.2743 34.4816 20.5645 34.7479 19.8558C35.2537 18.5049 35.7498 17.1509 36.2674 15.8043C36.7527 14.5394 37.7589 13.8189 38.968 13.8382C40.6506 13.8651 41.9048 15.4704 41.5021 17.1026C40.6549 20.5387 39.8377 23.9824 38.9304 27.4024C38.1369 30.3951 36.3651 32.7607 33.9211 34.6226C32.7292 35.5311 31.49 36.3751 30.2648 37.2405C30.0716 37.3769 29.9749 37.5197 29.9921 37.7656C30.0147 38.0856 29.9985 38.4078 29.9975 38.7299C29.9942 39.8327 29.3285 40.4963 28.215 40.4984C26.2456 40.5017 24.2774 40.4984 22.308 40.4984C19.4947 40.4984 16.6824 40.4984 13.869 40.4984C12.6256 40.4984 11.9351 39.8617 12.0221 38.6161C12.0833 37.7366 11.7923 37.2244 11.0643 36.7359C9.64472 35.7823 8.23375 34.7891 6.957 33.6584C4.72995 31.6858 3.40381 29.1634 2.7445 26.2524C2.05727 23.2189 1.25944 20.2101 0.507779 17.1906C0.48845 17.1144 0.450868 17.0435 0.421875 16.9694C0.421875 16.6483 0.421875 16.3262 0.421875 16.0051L0.425096 16.0019ZM20.1883 38.8287C20.1883 38.658 20.1883 38.5141 20.1883 38.3702C20.1894 37.218 20.1991 36.0669 20.1916 34.9147C20.1712 31.7051 18.8697 29.1817 16.1541 27.4228C15.3348 26.8924 14.5101 26.3684 13.6876 25.8411C12.4828 25.068 11.2769 24.297 10.0753 23.5185C9.73921 23.3005 9.38915 23.2157 9.01118 23.3649C8.26811 23.6581 8.14248 24.6095 8.78568 25.1227C10.0001 26.0913 11.2221 27.0491 12.4441 28.007C12.7297 28.2314 12.9681 28.4773 12.9219 28.8735C12.8436 29.5414 12.1209 29.8099 11.5518 29.3664C10.2847 28.3785 9.03588 27.367 7.76879 26.3791C6.89472 25.6983 6.62735 24.8103 6.78734 23.7483C6.81526 23.5614 6.81848 23.3478 6.75513 23.1749C5.94012 20.9564 5.11115 18.7422 4.28218 16.5291C4.21238 16.3423 4.12755 16.1565 4.0191 15.9912C3.69159 15.4929 3.17509 15.3372 2.66289 15.566C2.17002 15.7861 1.95526 16.2532 2.097 16.8287C2.86369 19.9266 3.66796 23.016 4.39492 26.1225C5.14443 29.3256 6.89365 31.8136 9.55989 33.6959C10.7078 34.5067 11.8353 35.3464 12.9939 36.1399C13.4535 36.4545 13.665 36.8207 13.621 37.378C13.5834 37.8537 13.6135 38.3337 13.6135 38.8276H20.1883V38.8287ZM28.3911 38.8384C28.3911 38.2864 28.4158 37.7785 28.3836 37.2738C28.3535 36.7906 28.5457 36.4706 28.9333 36.199C30.2713 35.2626 31.6157 34.3338 32.9171 33.3502C35.0583 31.732 36.6368 29.6714 37.3412 27.0631C38.2668 23.6355 39.0796 20.1768 39.9365 16.731C40.0471 16.2854 39.8292 15.828 39.4297 15.6068C38.9905 15.3641 38.4783 15.4199 38.1497 15.7947C37.9779 15.9912 37.8373 16.2328 37.7449 16.4776C36.8998 18.7143 36.0666 20.9543 35.2419 23.1985C35.1828 23.3596 35.1904 23.5593 35.2161 23.7343C35.375 24.7942 35.1259 25.6962 34.2476 26.3737C33.8019 26.7173 33.366 27.0717 32.9257 27.4207C32.0957 28.0768 31.2731 28.7414 30.4334 29.3836C29.8794 29.8077 29.1739 29.5393 29.0858 28.8886C29.0321 28.4923 29.2641 28.2421 29.5518 28.0177C30.7738 27.0599 31.9969 26.102 33.2113 25.1346C33.8728 24.6073 33.7397 23.6302 32.974 23.3553C32.595 23.2189 32.2492 23.3166 31.9121 23.5346C29.8332 24.8779 27.7382 26.1944 25.669 27.5517C23.7469 28.8123 22.5249 30.5809 22.0374 32.8326C21.6122 34.7934 21.8839 36.782 21.8345 38.7578C21.8345 38.7793 21.8624 38.8018 21.8892 38.8394H28.3954L28.3911 38.8384Z" fill="#ABABAB"/>
<path d="M14.7229 17.8541C13.1595 17.8541 11.6605 17.8562 10.1614 17.8541C9.26804 17.8519 8.63021 17.3923 8.43048 16.5977C8.3886 16.4323 8.38646 16.253 8.38538 16.0812C8.38216 14.7282 8.38216 13.3752 8.38431 12.0223C8.38646 10.2226 9.37435 8.81805 11.0752 8.18881C11.1375 8.16626 11.1966 8.13512 11.2632 8.10505C9.86293 6.23342 9.67394 4.30166 11.0377 2.35379C12.0996 0.837592 14.0518 0.18365 15.8493 0.676523C16.9929 0.990072 17.8863 1.66227 18.5167 2.67164C19.1438 3.67671 19.3113 4.77735 19.1266 5.98967C20.3947 5.47854 21.6081 5.47854 22.8322 5.97249C22.6379 3.24505 23.6956 1.36268 26.3908 0.631423C28.1261 0.1611 30.0793 0.988998 31.1134 2.54171C32.098 4.02033 32.2688 6.22054 30.7311 8.09002C30.8653 8.148 30.991 8.20384 31.1187 8.25538C32.651 8.87926 33.6132 10.2924 33.6185 11.9428C33.6228 13.3355 33.6218 14.7293 33.6185 16.122C33.6164 17.1647 32.9302 17.8476 31.879 17.8519C30.5131 17.8573 29.1462 17.853 27.7803 17.853C27.6343 17.853 27.4882 17.853 27.281 17.853C27.281 18.0731 27.281 18.2685 27.281 18.4629C27.281 19.4003 27.2885 20.3377 27.2778 21.2752C27.267 22.2598 26.6303 22.9041 25.6467 22.9331C25.3256 22.9428 25.0035 22.9449 24.6824 22.9299C24.1842 22.9063 23.8631 22.5788 23.8685 22.1213C23.8738 21.6682 24.2046 21.3385 24.6964 21.3171C25.0013 21.3042 25.3084 21.3149 25.6424 21.3149C25.652 21.1732 25.666 21.0572 25.666 20.9412C25.6671 19.6559 25.6703 18.3695 25.666 17.0841C25.6617 15.7204 24.6953 14.7078 23.3348 14.6874C21.781 14.6638 20.2272 14.6649 18.6734 14.6874C17.3108 14.7068 16.3401 15.7172 16.3358 17.0777C16.3315 18.4436 16.3358 19.8105 16.339 21.1764C16.339 21.2022 16.3497 21.2279 16.3691 21.316C16.6558 21.316 16.9575 21.3106 17.2592 21.3171C17.7918 21.3299 18.1666 21.6778 18.1602 22.1428C18.1537 22.5959 17.7994 22.9213 17.2764 22.9342C16.9156 22.9439 16.5527 22.9481 16.1919 22.9224C15.3694 22.8655 14.7455 22.2201 14.7305 21.3933C14.7122 20.3753 14.724 19.3574 14.7229 18.3394C14.7229 18.1945 14.7229 18.0495 14.7229 17.853V17.8541ZM17.6351 13.1766C16.7309 12.1296 16.3755 10.9463 16.4872 9.60515C16.3422 9.5987 16.2381 9.58904 16.1328 9.58904C14.9151 9.58904 13.6964 9.5826 12.4787 9.58904C10.9883 9.59763 9.995 10.5984 9.98964 12.0921C9.98534 13.3506 9.98749 14.608 9.98964 15.8665C9.98964 15.9824 10.0047 16.0984 10.0143 16.2283H14.7809C15.161 14.7046 16.0995 13.6942 17.6351 13.1755V13.1766ZM31.9971 16.2337C32.0035 16.0758 32.0132 15.9577 32.0132 15.8407C32.0132 14.5962 32.0175 13.3516 32.0132 12.1071C32.0078 10.5898 31.0146 9.59656 29.4973 9.59011C28.2925 9.58474 27.0888 9.58797 25.884 9.59011C25.768 9.59011 25.652 9.60515 25.5103 9.61481C25.6295 10.9656 25.2569 12.1425 24.371 13.1787C25.9076 13.6888 26.8461 14.7164 27.2262 16.2348H31.9971V16.2337ZM23.906 10.1281C23.9039 8.51202 22.6218 7.23205 21.0046 7.23098C19.3864 7.23098 18.1 8.5088 18.0968 10.1216C18.0936 11.7603 19.3789 13.0445 21.0186 13.0392C22.6325 13.0338 23.9082 11.7474 23.906 10.1281ZM27.3476 2.15192C25.7261 2.14762 24.4451 3.41793 24.4376 5.03721C24.4301 6.6522 25.7143 7.96116 27.3132 7.96761C28.9218 7.97405 30.2425 6.6812 30.2511 5.09198C30.2597 3.45229 28.9808 2.15622 27.3476 2.15192ZM14.6725 2.15192C13.0564 2.14762 11.7582 3.42974 11.7528 5.03614C11.7474 6.64361 13.0403 7.96009 14.6338 7.96868C16.2649 7.97727 17.5674 6.68334 17.5663 5.05439C17.5663 3.43296 16.2917 2.15622 14.6725 2.15192Z" fill="#ABABAB"/>
<path d="M20.9913 22.9302C20.5317 22.9248 20.1902 22.5716 20.1999 22.1109C20.2085 21.6835 20.5682 21.3249 20.9913 21.3184C21.4305 21.312 21.802 21.6846 21.802 22.1313C21.802 22.5898 21.452 22.9345 20.9902 22.9302H20.9913Z" fill="#ABABAB"/>
</svg>
