<svg width="24" height="25" viewBox="0 0 24 25" fill="none" xmlns="http://www.w3.org/2000/svg">
<path d="M0.00390625 23.4824C0.0386603 23.5763 0.0715357 23.6703 0.108638 23.7642C0.219625 24.0416 0.411419 24.2793 0.659138 24.4463C0.906857 24.6134 1.19907 24.7022 1.49786 24.7011C7.16934 24.7011 12.8408 24.7011 18.5123 24.7011C19.3548 24.7011 20.0067 24.0352 20.0105 23.1677C20.0166 21.7931 20.0105 20.4179 20.0105 19.0433C20.0105 17.4969 20.0105 15.9502 20.0105 14.4032C20.0136 14.3249 20.0121 14.2464 20.0058 14.1683C19.9969 14.0417 19.9407 13.9231 19.8484 13.8361C19.756 13.749 19.6342 13.7 19.5073 13.6987C19.3804 13.6974 19.2577 13.7439 19.1635 13.829C19.0694 13.9142 19.0108 14.0316 18.9993 14.158C18.9916 14.2436 18.9896 14.3295 18.9932 14.4154C18.9932 17.2902 18.9932 20.165 18.9932 23.0395C18.9932 23.543 18.8406 23.697 18.3385 23.697H1.6768C1.16441 23.697 1.00802 23.5397 1.00802 23.0226C1.00802 16.976 1.00802 10.9296 1.00802 4.88337C1.00802 4.36159 1.1583 4.21083 1.67304 4.21083H12.5468C13.0132 4.21083 13.2691 4.02297 13.2597 3.69046C13.2504 3.35795 13.0066 3.19122 12.5482 3.19122C9.00144 3.19122 5.45653 3.20578 1.90833 3.18136C0.970444 3.17666 0.303073 3.47301 0.00390625 4.40526V23.4824Z" fill="url(#paint0_linear_372_803)"/>
<path d="M16.6905 0.702096C16.8131 0.882441 16.9746 1.04776 17.0516 1.24595C17.4119 2.17491 17.7533 3.11092 18.0891 4.04881C18.1511 4.22258 18.2488 4.30759 18.4178 4.36864C19.3919 4.72041 20.3613 5.08392 21.332 5.44414C21.6241 5.55216 21.7481 5.7001 21.7524 5.94056C21.757 6.19323 21.6331 6.34821 21.3297 6.45999C20.3589 6.82021 19.3891 7.18372 18.415 7.53549C18.246 7.59654 18.1501 7.68296 18.0863 7.85579C17.7364 8.82984 17.3729 9.7992 17.0131 10.7704C16.8995 11.0771 16.7506 11.2006 16.5003 11.2006C16.2499 11.2006 16.1011 11.0766 15.9874 10.7695C15.63 9.79873 15.267 8.82702 14.9161 7.85485C14.8949 7.78167 14.8558 7.7149 14.8025 7.66049C14.7491 7.60607 14.6831 7.56571 14.6104 7.543C13.6373 7.18983 12.6679 6.82726 11.6986 6.46797C11.3773 6.34868 11.2487 6.19746 11.2562 5.94009C11.2646 5.65219 11.4511 5.52398 11.6976 5.43428C12.6703 5.07969 13.6392 4.71478 14.6095 4.36113C14.6792 4.341 14.7429 4.30404 14.795 4.25351C14.8471 4.20298 14.8859 4.14043 14.9082 4.07136C15.2458 3.13206 15.599 2.20215 15.9372 1.26474C16.0179 1.04165 16.1142 0.842051 16.3129 0.701157L16.6905 0.702096ZM17.2508 7.21894C17.2873 7.0964 17.3536 6.98481 17.4438 6.8941C17.5339 6.80339 17.6451 6.73638 17.7674 6.69904C18.4207 6.47079 19.0669 6.22235 19.7657 5.96357C19.6676 5.91661 19.6126 5.88232 19.5535 5.86072C18.9476 5.63623 18.3427 5.40892 17.734 5.19335C17.6229 5.15783 17.522 5.09605 17.4398 5.01323C17.3577 4.93041 17.2967 4.829 17.262 4.71759C17.0488 4.11597 16.822 3.51905 16.5998 2.92025C16.5764 2.85684 16.5486 2.79532 16.5059 2.69482C16.4627 2.78875 16.4312 2.84463 16.4087 2.90522C16.1865 3.50355 15.9597 4.10048 15.7479 4.70256C15.6605 4.95054 15.5131 5.10646 15.2623 5.19429C14.6672 5.40234 14.0783 5.62871 13.487 5.84804C13.4166 5.87387 13.3461 5.9044 13.2254 5.95418C13.4945 6.05703 13.7143 6.14204 13.9355 6.22517C14.3807 6.39048 14.8246 6.56144 15.274 6.71454C15.5173 6.79767 15.6591 6.94937 15.7437 7.19077C15.9545 7.78487 16.179 8.37428 16.3988 8.96557C16.4247 9.03555 16.4542 9.10646 16.5064 9.23327C16.7731 8.51846 17.022 7.87223 17.2508 7.21894Z" fill="url(#paint1_linear_372_803)"/>
<path d="M9.99455 16.5794V16.278C9.99455 13.6457 10.0073 11.0128 9.98525 8.38045C9.98061 7.79717 10.3917 7.58143 10.9097 7.76465C12.0995 8.18368 13.3021 8.57018 14.4989 8.97078C14.8961 9.10359 14.9994 9.24182 15 9.63646C15 10.6812 15 11.7262 15 12.7713C15 13.282 14.6574 13.5047 14.1383 13.3324C13.2173 13.0263 12.2967 12.7191 11.3766 12.4108C11.2964 12.3843 11.2146 12.362 11.1048 12.329V12.6331C11.1048 14.6903 11.1106 16.748 11.1048 18.8052C11.099 20.2022 10.167 21.2955 8.72925 21.624C6.91056 22.0371 5.07097 20.7377 5.00245 18.9928C4.93276 17.3026 6.36066 15.9268 8.1265 15.9826C8.71061 15.9982 9.27785 16.1689 9.76169 16.4748C9.81976 16.5106 9.87783 16.5458 9.9359 16.5805C9.94054 16.5832 9.95041 16.5794 9.99455 16.5794ZM8.04985 17.0353C7.66737 17.0368 7.29396 17.1442 6.97681 17.3437C6.65966 17.5433 6.41301 17.8262 6.26805 18.1566C6.12309 18.487 6.08632 18.8502 6.16239 19.2001C6.23846 19.55 6.42395 19.871 6.69541 20.1226C6.96688 20.3741 7.31214 20.5448 7.68754 20.6132C8.06294 20.6816 8.45163 20.6446 8.80448 20.5068C9.15733 20.369 9.4585 20.1366 9.66991 19.839C9.88132 19.5415 9.99348 19.1921 9.99222 18.835C9.98824 18.3565 9.78186 17.8989 9.41804 17.5618C9.05422 17.2247 8.56245 17.0355 8.04985 17.0353ZM11.1042 8.94964C11.1042 9.69229 11.0996 10.3883 11.1129 11.0844C11.1129 11.1467 11.2192 11.2372 11.2964 11.2643C12.0827 11.5354 12.8736 11.7966 13.6633 12.059C13.7319 12.0775 13.8014 12.0925 13.8717 12.104V10.333C13.8717 9.87172 13.8717 9.87064 13.413 9.71723C12.6558 9.46516 11.9009 9.21472 11.1042 8.94964Z" fill="url(#paint2_linear_372_803)"/>
<path d="M18.3728 9.70808C18.8039 9.5484 19.2327 9.38262 19.668 9.23562C19.8559 9.17315 19.962 9.07641 20.0254 8.88432C20.1663 8.44801 20.3354 8.01923 20.4951 7.58903C20.5947 7.32508 20.759 7.19969 20.9948 7.20391C21.2564 7.20861 21.4043 7.35843 21.4898 7.59419C21.6561 8.05586 21.8228 8.51752 22.0041 8.97308C22.0465 9.06769 22.1222 9.14341 22.2168 9.18583C22.6724 9.36806 23.1341 9.53478 23.5957 9.70245C23.8305 9.78698 23.9846 9.93304 23.9959 10.1928C24.0057 10.4276 23.8681 10.5971 23.5906 10.7014C23.1533 10.8662 22.7179 11.0367 22.2755 11.1865C22.2054 11.2049 22.1412 11.2411 22.0893 11.2916C22.0374 11.3422 21.9994 11.4053 21.9792 11.4749C21.827 11.9164 21.6612 12.3536 21.4973 12.7899C21.3954 13.0623 21.2155 13.2079 20.9929 13.2074C20.7703 13.207 20.5904 13.0665 20.4885 12.7909C20.3279 12.3602 20.1654 11.9305 20.0142 11.4965C19.9592 11.3382 19.8789 11.242 19.7098 11.1851C19.2524 11.0316 18.8034 10.8531 18.3507 10.6845C18.1215 10.599 17.9961 10.4393 17.9961 10.1857C18.006 9.93821 18.1487 9.79074 18.3728 9.70808ZM20.9967 9.18771C20.876 9.76303 20.5637 10.096 19.9766 10.1923C20.528 10.3252 20.8962 10.6093 20.9831 11.2119C21.1202 10.6587 21.4133 10.2951 22.005 10.2036C21.4245 10.0904 21.1038 9.7635 20.9967 9.18771Z" fill="url(#paint3_linear_372_803)"/>
<path d="M21.5143 3.46034C21.6857 3.46034 21.8327 3.46598 21.9788 3.46034C22.2944 3.44625 22.5062 3.23726 22.5043 2.9489C22.5024 2.66053 22.2887 2.45717 21.9712 2.44543C21.8303 2.4398 21.6895 2.44543 21.5147 2.44543C21.5147 2.28857 21.5185 2.14392 21.5147 1.99927C21.5044 1.66769 21.2959 1.45072 20.9981 1.45541C20.7126 1.45964 20.5111 1.67521 20.4998 1.9941C20.4947 2.13499 20.4998 2.27307 20.4998 2.44543C20.3387 2.44543 20.1932 2.44121 20.048 2.44543C19.7291 2.45623 19.5136 2.65865 19.5098 2.94467C19.5061 3.24196 19.724 3.45001 20.0551 3.46128C20.1936 3.46598 20.3326 3.46128 20.4998 3.46128C20.4998 3.62707 20.4951 3.7736 20.4998 3.91919C20.5125 4.23667 20.7182 4.44989 21.0056 4.45083C21.2931 4.45177 21.5016 4.23902 21.5147 3.92295C21.5171 3.78252 21.5143 3.64163 21.5143 3.46034Z" fill="url(#paint4_linear_372_803)"/>
<defs>
<linearGradient id="paint0_linear_372_803" x1="10.0085" y1="3.1813" x2="10.0085" y2="24.7012" gradientUnits="userSpaceOnUse">
<stop stop-color="#D370FF"/>
<stop offset="1" stop-color="#9C96FF"/>
</linearGradient>
<linearGradient id="paint1_linear_372_803" x1="16.5042" y1="0.701157" x2="16.5042" y2="11.2006" gradientUnits="userSpaceOnUse">
<stop stop-color="#D370FF"/>
<stop offset="1" stop-color="#9C96FF"/>
</linearGradient>
<linearGradient id="paint2_linear_372_803" x1="10" y1="7.70116" x2="10" y2="21.7012" gradientUnits="userSpaceOnUse">
<stop stop-color="#D370FF"/>
<stop offset="1" stop-color="#9C96FF"/>
</linearGradient>
<linearGradient id="paint3_linear_372_803" x1="20.9962" y1="7.20381" x2="20.9962" y2="13.2074" gradientUnits="userSpaceOnUse">
<stop stop-color="#D370FF"/>
<stop offset="1" stop-color="#9C96FF"/>
</linearGradient>
<linearGradient id="paint4_linear_372_803" x1="21.007" y1="1.45534" x2="21.007" y2="4.45084" gradientUnits="userSpaceOnUse">
<stop stop-color="#D370FF"/>
<stop offset="1" stop-color="#9C96FF"/>
</linearGradient>
</defs>
</svg>
