<svg width="24" height="25" viewBox="0 0 24 25" fill="none" xmlns="http://www.w3.org/2000/svg">
<path fill-rule="evenodd" clip-rule="evenodd" d="M14.6737 5.30361C12.948 4.8988 11.1519 4.8988 9.42616 5.30361C7.18212 5.82999 5.42994 7.58216 4.90356 9.82621C4.49875 11.552 4.49875 13.348 4.90356 15.0738C4.98419 15.4175 5.09359 15.7497 5.22911 16.0678L6.27087 15.026C8.12998 13.1669 11.1442 13.1669 13.0033 15.026L13.9802 16.0029L13.9973 15.9858C15.3813 14.6019 17.5454 14.522 19.0206 15.6797C19.0892 15.4823 19.148 15.2801 19.1963 15.0738C19.6012 13.348 19.6012 11.552 19.1963 9.82621C18.67 7.58216 16.9178 5.82999 14.6737 5.30361ZM20.1481 17.5427C20.5053 16.9071 20.7772 16.2161 20.9488 15.4849C21.417 13.4887 21.417 11.4113 20.9488 9.41515C20.2663 6.50553 17.9944 4.23368 15.0848 3.55117C13.0887 3.08294 11.0112 3.08294 9.0151 3.55117C6.10548 4.23368 3.83363 6.50553 3.15113 9.41514C2.68289 11.4113 2.68289 13.4887 3.15113 15.4849C3.83363 18.3945 6.10548 20.6663 9.0151 21.3488C11.0112 21.8171 13.0887 21.8171 15.0848 21.3488C17.1212 20.8712 18.8451 19.615 19.9305 17.9066C20.0338 17.8017 20.1067 17.6764 20.1481 17.5427ZM18.1504 17.3194C17.3879 16.488 16.0769 16.4518 15.2701 17.2586L15.253 17.2757L16.6906 18.7132C17.2518 18.333 17.7453 17.8615 18.1504 17.3194ZM14.955 19.5233L11.7305 16.2988C10.5744 15.1426 8.69983 15.1426 7.54366 16.2988L6.20458 17.6379C7.02812 18.5983 8.14726 19.2964 9.42617 19.5964C11.1519 20.0012 12.948 20.0012 14.6737 19.5964C14.7684 19.5742 14.8622 19.5498 14.955 19.5233Z" fill="#7E76FF"/>
<path d="M14.3013 7.85288C14.4154 7.38237 15.0846 7.38237 15.1987 7.85288L15.5126 9.14752C15.5533 9.3155 15.6845 9.44666 15.8525 9.48739L17.1471 9.80132C17.6176 9.91542 17.6176 10.5846 17.1471 10.6987L15.8525 11.0126C15.6845 11.0533 15.5533 11.1845 15.5126 11.3525L15.1987 12.6471C15.0846 13.1176 14.4154 13.1176 14.3013 12.6471L13.9874 11.3525C13.9467 11.1845 13.8155 11.0533 13.6475 11.0126L12.3529 10.6987C12.3235 10.6915 12.2959 10.6822 12.2702 10.6711C11.8842 10.5031 11.9118 9.90828 12.3529 9.80132L13.6475 9.48739C13.8155 9.44666 13.9467 9.3155 13.9874 9.14752L14.3013 7.85288Z" fill="#7E76FF"/>
<path d="M22 21.5C22 22.0523 21.5523 22.5 21 22.5C20.4477 22.5 20 22.0523 20 21.5C20 20.9477 20.4477 20.5 21 20.5C21.5523 20.5 22 20.9477 22 21.5Z" fill="#7E76FF"/>
<path d="M22 3.5C22 4.05228 21.5523 4.5 21 4.5C20.4477 4.5 20 4.05228 20 3.5C20 2.94772 20.4477 2.5 21 2.5C21.5523 2.5 22 2.94772 22 3.5Z" fill="#7E76FF"/>
<path d="M4 21.5C4 22.0523 3.55228 22.5 3 22.5C2.44772 22.5 2 22.0523 2 21.5C2 20.9477 2.44772 20.5 3 20.5C3.55228 20.5 4 20.9477 4 21.5Z" fill="#7E76FF"/>
<path d="M4 3.5C4 4.05228 3.55228 4.5 3 4.5C2.44772 4.5 2 4.05228 2 3.5C2 2.94772 2.44772 2.5 3 2.5C3.55228 2.5 4 2.94772 4 3.5Z" fill="#7E76FF"/>
</svg>
