<svg width="40" height="40" viewBox="0 0 40 40" fill="none" xmlns="http://www.w3.org/2000/svg">
<path d="M-0.000976562 6.17339C0.0726203 5.99645 0.136822 5.81637 0.220597 5.64412C0.716985 4.62629 1.55787 4.15652 2.67122 4.15652C5.6532 4.15339 8.63544 4.15339 11.6179 4.15652H20.7995C20.9037 4.15652 21.0078 4.15652 21.1127 4.15652C21.6976 4.17062 22.0898 4.50415 22.0984 4.99584C22.1071 5.50162 21.707 5.8516 21.0978 5.8516C17.0218 5.8516 12.9458 5.8516 8.8698 5.8516C6.81222 5.8516 4.75464 5.8516 2.69705 5.8516C1.9697 5.8516 1.67531 6.13659 1.67531 6.86473C1.67218 12.0995 1.67218 17.3348 1.67531 22.5706C1.67531 22.6701 1.6941 22.7687 1.7035 22.8681L1.83268 22.9676C1.90628 22.8439 1.95952 22.6998 2.05739 22.6004C3.34246 21.3069 4.63119 20.0172 5.92357 18.7311C6.46381 18.1924 6.88112 18.1916 7.42448 18.7365C8.68424 19.9986 9.94087 21.2647 11.2343 22.5644C11.3643 22.4407 11.4747 22.3404 11.5811 22.2347L19.124 14.6942C19.8389 13.9794 20.1693 13.9762 20.8739 14.6809L31.2613 25.0674C31.3677 25.1739 31.4797 25.2757 31.6574 25.4448V23.7028C31.6574 23.0647 31.652 22.4266 31.6574 21.7885C31.6637 21.2232 31.9917 20.8591 32.4858 20.8489C32.9994 20.8403 33.347 21.2083 33.347 21.7885C33.3502 27.0243 33.3502 32.2596 33.347 37.4944C33.347 38.9483 32.2345 39.9998 30.7696 39.9998H2.6031C1.32142 40.0084 0.445302 39.3515 0.0694885 38.1137C0.0507255 38.0657 0.0271147 38.0198 -0.000976562 37.9766L-0.000976562 6.17339ZM20.062 16.1755C19.9453 16.2695 19.9054 16.2977 19.8671 16.3321C13.8645 22.3347 7.86319 28.3404 1.86322 34.3493C1.74898 34.4822 1.6845 34.6508 1.68079 34.8261C1.66278 35.6458 1.66983 36.4663 1.67374 37.2869C1.67766 38.0604 1.96187 38.3431 2.7409 38.3431C12.0251 38.3431 21.3092 38.3431 30.5934 38.3431C31.3764 38.3431 31.6566 38.0651 31.6574 37.2916C31.6574 34.2835 31.6574 31.2754 31.6637 28.2673C31.6705 28.1341 31.6479 28.0011 31.5976 27.8775C31.5472 27.754 31.4704 27.6431 31.3724 27.5525C27.6816 23.8768 23.9976 20.1954 20.3204 16.5083C20.2277 16.4026 20.1415 16.2915 20.062 16.1755ZM9.9855 23.745L6.6384 20.4073C6.59487 20.4401 6.5533 20.4754 6.51391 20.513C4.95898 22.0672 3.40092 23.6182 1.85774 25.1841C1.74108 25.3031 1.68157 25.527 1.68079 25.7032C1.66826 27.7067 1.67218 29.7095 1.67374 31.7131C1.67374 31.8227 1.6894 31.9315 1.69645 32.031L9.9855 23.745Z" fill="#ABABAB"/>
<path d="M27.7392 0C28.0915 0.166767 28.2692 0.458806 28.4 0.818961C28.977 2.4193 29.5791 4.01025 30.1592 5.60981C30.1936 5.72553 30.2559 5.83101 30.3407 5.9169C30.4255 6.0028 30.5302 6.06647 30.6455 6.10228C32.256 6.68557 33.8626 7.28609 35.4661 7.8827C36.0548 8.10114 36.2576 8.33054 36.249 8.76821C36.2404 9.29513 35.8755 9.49165 35.4488 9.64746C33.8508 10.2308 32.2591 10.8297 30.6595 11.4075C30.5379 11.4451 30.4275 11.5122 30.338 11.6027C30.2485 11.6933 30.1828 11.8045 30.1467 11.9266C29.5595 13.5512 28.9559 15.1696 28.3553 16.7887C28.1643 17.3047 27.9224 17.5043 27.5004 17.5043C27.0784 17.5043 26.8349 17.3047 26.6438 16.7895C26.0441 15.1696 25.4404 13.552 24.8532 11.9282C24.8181 11.8067 24.7537 11.6957 24.6656 11.6049C24.5776 11.5141 24.4686 11.4464 24.3482 11.4075C22.7244 10.8187 21.1068 10.2135 19.4869 9.61379C18.9663 9.4204 18.7603 9.18239 18.7564 8.76899C18.7517 8.33915 18.9592 8.09801 19.5041 7.89679C21.1381 7.29314 22.7698 6.69653 24.3952 6.07488C24.5874 5.98933 24.7404 5.83444 24.8235 5.64112C25.4404 4.02826 26.0407 2.41017 26.6242 0.78686C26.7503 0.434535 26.9374 0.170682 27.2702 0.00391473L27.7392 0ZM22.1325 8.71888V8.80657C23.2286 9.20979 24.32 9.62084 25.4209 10.0107C25.8327 10.1564 26.095 10.4022 26.2414 10.8203C26.5937 11.8248 26.9734 12.8184 27.3438 13.8159C27.3845 13.9263 27.4322 14.0335 27.5137 14.2332C27.9576 13.0298 28.371 11.9384 28.7609 10.8391C28.9073 10.4273 29.1524 10.1665 29.5705 10.0201C30.5883 9.66625 31.5936 9.28182 32.6036 8.90679C32.7007 8.87077 32.7915 8.81675 32.9512 8.74002C31.7807 8.30627 30.6901 7.88818 29.594 7.50297C29.3961 7.44251 29.2161 7.33424 29.07 7.18771C28.9239 7.04119 28.8161 6.86093 28.7562 6.66287C28.4054 5.65835 28.0257 4.66401 27.6554 3.66653C27.6194 3.56788 27.5646 3.4755 27.4863 3.31186C27.0517 4.48628 26.636 5.57614 26.2492 6.67853C26.1892 6.87704 26.0804 7.05732 25.9326 7.20287C25.7849 7.34841 25.603 7.45455 25.4036 7.51158C24.8243 7.69949 24.2574 7.92498 23.6859 8.13794C23.1675 8.32741 22.65 8.52393 22.1325 8.71888Z" fill="#ABABAB"/>
<path d="M30.0016 16.0048C29.9946 15.4568 30.1911 15.1835 30.628 15.0183C31.3937 14.7302 32.1665 14.4609 32.9252 14.1571C33.0935 14.0822 33.2286 13.9482 33.3049 13.7805C33.6063 13.0343 33.8717 12.2741 34.1552 11.5201C34.3329 11.0457 34.5921 10.8429 35.0031 10.8491C35.4439 10.8554 35.6827 11.113 35.8244 11.5029C36.0945 12.2475 36.3834 12.985 36.641 13.7343C36.6737 13.8448 36.7339 13.9453 36.8161 14.0261C36.8983 14.1069 36.9997 14.1655 37.1108 14.1962C37.8452 14.4538 38.571 14.738 39.303 14.9988C39.7078 15.1428 39.9834 15.3824 40.0006 15.8342C40.0155 16.2256 39.7877 16.5044 39.321 16.6805C38.5796 16.96 37.8335 17.2153 37.0967 17.5151C36.9065 17.6004 36.7533 17.7513 36.6653 17.9403C36.3709 18.6614 36.1172 19.3997 35.8479 20.1325C35.6678 20.6195 35.3781 20.8607 34.9867 20.8575C34.5952 20.8544 34.3274 20.6227 34.1403 20.1216C33.8733 19.4036 33.6008 18.6872 33.3464 17.9653C33.3157 17.8543 33.2572 17.753 33.1766 17.6708C33.0959 17.5886 32.9956 17.5283 32.8852 17.4956C32.1125 17.2278 31.3491 16.9318 30.5826 16.6469C30.2162 16.5098 30.0095 16.2569 30.0016 16.0048ZM34.9882 14.1712C34.8042 15.1326 34.2601 15.6588 33.2955 15.842C34.2389 16.0385 34.8144 16.5529 34.9397 17.5754C35.1746 17.1057 35.2865 16.6656 35.5613 16.3947C35.8362 16.1238 36.2754 16.0181 36.7514 15.788C35.7258 15.6588 35.1793 15.1287 34.9882 14.1712Z" fill="#ABABAB"/>
<path d="M11.6522 15.4241C10.7706 15.421 9.92609 15.0685 9.30384 14.4439C8.68159 13.8193 8.33231 12.9735 8.33252 12.0918C8.33252 10.2206 9.8303 8.74475 11.7219 8.75728C13.5626 8.76981 15.0157 10.2801 14.9993 12.1631C14.9836 13.9592 13.4702 15.4327 11.6522 15.4241ZM13.3214 12.1044C13.3246 11.8866 13.2845 11.6704 13.2035 11.4683C13.1226 11.2661 13.0024 11.082 12.8499 10.9266C12.6973 10.7711 12.5155 10.6475 12.3149 10.5627C12.1143 10.478 11.8989 10.4338 11.6812 10.4328C11.2411 10.4309 10.818 10.6023 10.5034 10.91C10.1888 11.2177 10.008 11.637 10.0002 12.077C10.0039 12.5164 10.178 12.9372 10.4859 13.2508C10.7938 13.5644 11.2114 13.7462 11.6506 13.758C12.0912 13.7574 12.5137 13.5831 12.8265 13.2729C13.1393 12.9627 13.3171 12.5417 13.3214 12.1012V12.1044Z" fill="#ABABAB"/>
<path d="M34.1595 2.9078C34.1595 2.59463 34.1477 2.34722 34.1595 2.10215C34.1885 1.60263 34.5431 1.25422 35.0035 1.25501C35.4639 1.25579 35.8178 1.60107 35.8475 2.10294C35.8624 2.34878 35.8475 2.59541 35.8475 2.90624C36.0691 2.90624 36.2711 2.90624 36.4739 2.90624C37.1237 2.91328 37.5074 3.23742 37.4995 3.76748C37.4925 4.28422 37.1128 4.59505 36.4817 4.59897H35.8577C35.8577 4.86517 35.864 5.10788 35.8577 5.34981C35.8389 5.90414 35.4936 6.25803 34.9902 6.24863C34.5095 6.23924 34.1814 5.88535 34.1642 5.34746C34.1571 5.11258 34.1642 4.88318 34.1642 4.59897C33.8941 4.59897 33.6514 4.60445 33.4086 4.59897C32.8778 4.58409 32.5192 4.24821 32.5137 3.76748C32.5083 3.28675 32.8535 2.93912 33.3852 2.90624C33.6232 2.89684 33.8682 2.9078 34.1595 2.9078Z" fill="#ABABAB"/>
</svg>
