<svg width="26" height="26" viewBox="0 0 26 26" fill="none" xmlns="http://www.w3.org/2000/svg">
<path d="M0.896484 21.0844C1.0645 20.725 1.2041 20.3479 1.40686 20.0087C1.88059 19.2147 2.55961 18.6431 3.41486 18.2849C3.46287 18.2647 3.50898 18.2388 3.58099 18.2034C2.96639 17.6488 2.64552 16.9793 2.70931 16.1645C2.75921 15.5265 3.03651 14.9902 3.51972 14.5633C4.42992 13.7592 5.82965 13.804 6.72154 14.6517C7.47446 15.3667 7.90398 16.9686 6.59458 18.1883C6.9224 18.3778 7.26981 18.5452 7.57932 18.7669C7.88314 18.9842 8.14843 19.2558 8.39667 19.4737C8.82492 19.0764 9.22792 18.6279 9.70481 18.2805C10.1748 17.9375 10.7199 17.6969 11.2397 17.4069C10.3219 16.7134 9.86209 15.7514 9.98905 14.5538C10.0737 13.7535 10.4615 13.0978 11.0786 12.5774C12.2624 11.5787 14.0764 11.6949 15.178 12.8035C16.2076 13.8388 16.5639 16.0685 14.7795 17.4158C15.2797 17.6956 15.8286 17.9413 16.3049 18.2868C16.7774 18.6298 17.1766 19.0738 17.6263 19.4907C18.0849 18.9425 18.6938 18.4984 19.4562 18.2091C18.7683 17.6065 18.4714 16.8669 18.5959 15.9876C18.6818 15.38 18.9837 14.8797 19.4676 14.495C20.4302 13.7301 21.8034 13.8362 22.6586 14.7332C23.4071 15.5183 23.692 17.0317 22.4363 18.2041C22.4931 18.2344 22.543 18.266 22.5961 18.2893C23.7969 18.8123 24.6079 19.6967 25.0292 20.9328C25.3255 21.8032 24.7222 22.6408 23.8026 22.6427C22.1716 22.6458 20.5407 22.6433 18.9098 22.6433C18.817 22.6433 18.7247 22.6433 18.587 22.6433C18.587 22.949 18.6066 23.232 18.5832 23.5112C18.5093 24.3986 17.7495 25.1004 16.8582 25.1017C14.2899 25.1061 11.721 25.1061 9.15275 25.1017C8.25076 25.1004 7.49467 24.398 7.41951 23.4929C7.39677 23.2206 7.41572 22.9452 7.41572 22.6427H7.10053C5.50119 22.6427 3.90186 22.6427 2.3019 22.6427C1.58561 22.6427 1.19273 22.3704 0.9407 21.7028C0.93312 21.6832 0.912276 21.6687 0.897748 21.6522C0.897748 21.4634 0.897748 21.2739 0.897748 21.085L0.896484 21.0844ZM12.9938 24.3475C14.2457 24.3475 15.4983 24.35 16.7502 24.3462C17.3168 24.3449 17.788 23.9849 17.8152 23.4783C17.8417 22.9781 17.8569 22.4639 17.776 21.9725C17.4412 19.9373 15.9107 18.4321 13.8168 18.0266C11.9314 17.6615 9.89178 18.5868 8.85209 20.2702C8.29434 21.1741 8.1339 22.1563 8.15601 23.2055C8.17054 23.8908 8.64806 24.3607 9.30814 24.3519C10.5367 24.3348 11.7652 24.3468 12.9938 24.3468V24.3475ZM13.0039 12.6601C11.7495 12.6588 10.7325 13.6669 10.7293 14.9151C10.7262 16.1702 11.7621 17.2073 13.009 17.1979C14.2565 17.1884 15.2728 16.1657 15.2722 14.922C15.2715 13.672 14.2584 12.662 13.0045 12.6607L13.0039 12.6601ZM7.39551 21.8752C7.57237 21.3724 7.72459 20.8949 7.91156 20.4313C7.9722 20.2803 7.95641 20.1925 7.86293 20.0788C6.96914 18.9962 5.81955 18.5382 4.44445 18.7801C3.08641 19.0195 2.17999 19.8426 1.70499 21.1393C1.62035 21.3712 1.63678 21.5948 1.83574 21.7362C1.96523 21.8278 2.15283 21.8765 2.31516 21.8771C3.94608 21.8872 5.57699 21.8834 7.20791 21.8828C7.28497 21.8828 7.36203 21.8765 7.39551 21.8752ZM18.6136 21.872C18.6136 21.872 18.6679 21.8822 18.7216 21.8822C20.3999 21.8828 22.0775 21.8853 23.7558 21.8809C24.2188 21.8796 24.4468 21.555 24.2839 21.1185C23.752 19.6903 22.7167 18.8679 21.2065 18.7347C19.9343 18.6222 18.8852 19.1187 18.1 20.1375C18.0615 20.1874 18.0394 20.2835 18.0596 20.3409C18.2339 20.8431 18.4203 21.3408 18.6142 21.872H18.6136ZM19.3324 16.3432C19.3311 17.2288 20.0531 17.9571 20.9317 17.9552C21.8122 17.9539 22.5418 17.2206 22.5348 16.3432C22.5279 15.4665 21.8129 14.7496 20.9431 14.7471C20.0537 14.7445 19.3343 15.4577 19.3324 16.3432ZM6.66848 16.3571C6.67037 15.4665 5.95851 14.7483 5.07231 14.7464C4.18926 14.7445 3.46413 15.4697 3.46603 16.3514C3.46855 17.2326 4.2019 17.9621 5.07799 17.9539C5.95219 17.9457 6.66658 17.2282 6.66848 16.3565V16.3571Z" fill="#7E76FF"/>
<path d="M0.896484 6.56842C1.05566 6.28671 1.29948 6.19133 1.61909 6.18754C2.15409 6.18122 2.68847 6.13322 3.22411 6.113C3.36307 6.10795 3.43065 6.05994 3.47803 5.9273C3.67005 5.39545 3.87849 4.86929 4.07367 4.33807C4.16905 4.0791 4.32507 3.90034 4.61436 3.88455C4.86197 3.87129 5.04894 4.03172 5.16958 4.34565C5.36918 4.86676 5.57131 5.38661 5.76143 5.91088C5.8107 6.04668 5.8726 6.10795 6.02546 6.113C6.58447 6.13132 7.14222 6.16796 7.70122 6.19259C8.04168 6.20775 8.23244 6.31892 8.31961 6.56842C8.4093 6.82424 8.33666 7.01373 8.05937 7.23797C7.61848 7.59485 7.17948 7.95362 6.73228 8.30229C6.61984 8.39009 6.60089 8.47031 6.63816 8.60296C6.79923 9.16954 6.94451 9.74119 7.10368 10.3084C7.1738 10.5579 7.11569 10.76 6.91798 10.9198C6.72912 11.0721 6.4992 11.0714 6.2598 10.9173C5.77659 10.6059 5.29212 10.2964 4.81902 9.97111C4.66932 9.86815 4.56636 9.87762 4.4236 9.9749C3.96187 10.2895 3.4894 10.5889 3.02387 10.8977C2.8009 11.0455 2.57604 11.0898 2.34296 10.9306C2.12757 10.7834 2.07198 10.5724 2.15662 10.256C2.30506 9.70202 2.44781 9.14681 2.60951 8.59664C2.6512 8.45515 2.61583 8.38314 2.51098 8.3004C2.08461 7.96373 1.65888 7.62517 1.242 7.2765C1.11251 7.16912 1.01081 7.027 0.896484 6.8994C0.896484 6.78887 0.896484 6.67896 0.896484 6.56842ZM7.20412 6.94488C6.65648 6.91456 6.17832 6.88361 5.69953 6.86277C5.42098 6.85014 5.24854 6.7118 5.15379 6.45662C5.01167 6.07384 4.86576 5.69296 4.72048 5.31144C4.69521 5.24512 4.6611 5.18195 4.61499 5.08279C4.43561 5.55399 4.26569 5.97594 4.11347 6.40482C4.00924 6.69854 3.82796 6.85582 3.50708 6.86593C3.03966 6.88109 2.57288 6.91519 2.04545 6.94488C2.42823 7.25439 2.75163 7.53926 3.09904 7.7894C3.42118 8.02121 3.50835 8.29155 3.38644 8.66739C3.25253 9.08111 3.15399 9.50621 3.02514 9.97995C3.46918 9.69002 3.86712 9.43799 4.25622 9.17333C4.50067 9.00784 4.73122 8.99837 4.97693 9.16512C5.26306 9.35967 5.55425 9.54601 5.84481 9.73424C5.9503 9.80309 6.05831 9.86815 6.21622 9.96605C6.08357 9.46958 5.97935 9.03564 5.84986 8.60991C5.74943 8.27955 5.82649 8.03511 6.10316 7.82666C6.46004 7.55821 6.80113 7.26955 7.20538 6.94425L7.20412 6.94488Z" fill="#7E76FF"/>
<path d="M13.1421 0.89502C13.3322 1.01819 13.3897 1.19253 13.3815 1.41676C13.3676 1.81722 13.3796 2.21895 13.3765 2.61942C13.3746 2.8765 13.2249 3.03757 12.9994 3.03757C12.7739 3.03757 12.6254 2.8765 12.6229 2.61942C12.6197 2.21832 12.6324 1.81722 12.6178 1.41676C12.6103 1.19316 12.6665 1.01882 12.8572 0.895651H13.1409L13.1421 0.89502Z" fill="#7E76FF"/>
<path d="M10.4948 10.4122C10.5662 10.1425 10.6584 9.79387 10.7513 9.4452C10.8246 9.17233 10.8884 8.89566 10.9774 8.62784C11.0286 8.47562 11.0002 8.38782 10.8738 8.28928C10.426 7.94188 9.98763 7.5812 9.54611 7.22559C9.29977 7.02788 9.22018 6.82702 9.29408 6.59457C9.37683 6.33496 9.56885 6.21053 9.89541 6.19537C10.462 6.16884 11.028 6.13347 11.5945 6.11515C11.7474 6.1101 11.8125 6.0482 11.8617 5.91302C12.0588 5.37486 12.2647 4.83922 12.4706 4.30422C12.5786 4.02377 12.7688 3.87217 13.0069 3.8867C13.2703 3.90249 13.4364 4.04777 13.528 4.29601C13.7289 4.84175 13.943 5.38244 14.1426 5.92818C14.19 6.0583 14.2569 6.10883 14.3972 6.11389C14.9562 6.1341 15.5139 6.16947 16.0729 6.19411C16.4241 6.20927 16.6161 6.32423 16.7027 6.58762C16.7829 6.83144 16.6976 7.03104 16.4229 7.25212C15.9927 7.597 15.5663 7.94693 15.1318 8.28612C15.0099 8.38087 14.9713 8.46172 15.0187 8.62153C15.1791 9.16348 15.3181 9.71238 15.464 10.2588C15.5487 10.5752 15.4912 10.7824 15.2808 10.934C15.0749 11.0824 14.8602 11.0679 14.581 10.886C14.1066 10.5758 13.6303 10.2689 13.1598 9.95241C13.0448 9.87535 12.9621 9.8703 12.8446 9.94988C12.3487 10.284 11.8459 10.6081 11.3438 10.9334C11.1574 11.0546 10.9585 11.073 10.7633 10.9612C10.5883 10.8607 10.4885 10.7066 10.4936 10.4129L10.4948 10.4122ZM11.4057 9.97831C11.8605 9.68207 12.2565 9.43004 12.6462 9.1679C12.8831 9.00873 13.1092 9.00241 13.3467 9.16285C13.6202 9.34792 13.8988 9.52542 14.1761 9.70544C14.2955 9.7825 14.4161 9.85766 14.593 9.96946C14.4572 9.45909 14.3492 9.01884 14.2203 8.58426C14.1274 8.27033 14.2051 8.03599 14.4654 7.84081C14.7427 7.63363 15.008 7.41003 15.2777 7.19274C15.3642 7.12326 15.4482 7.04999 15.5733 6.94514C15.0313 6.91482 14.5525 6.8845 14.0731 6.86302C13.7933 6.85039 13.6228 6.707 13.528 6.45371C13.4516 6.2478 13.372 6.04251 13.2937 5.83723C13.2033 5.60036 13.1124 5.36412 12.9987 5.06598C12.818 5.54098 12.6519 5.94524 12.5117 6.35897C12.3993 6.69058 12.2028 6.86555 11.8409 6.87186C11.3886 6.88008 10.9364 6.91734 10.4209 6.94514C10.7437 7.20474 11.0153 7.42645 11.2901 7.64437C11.9009 8.12947 11.9041 8.13832 11.6956 8.89503C11.6028 9.23233 11.5143 9.57089 11.4057 9.97768V9.97831Z" fill="#7E76FF"/>
<path d="M25.1022 6.86686C25.0479 6.9395 24.962 7.11004 24.8287 7.22374C24.4099 7.58188 23.9785 7.92613 23.5395 8.25901C23.3822 8.37839 23.3526 8.4883 23.4081 8.67274C23.5654 9.19953 23.7038 9.73201 23.8471 10.2632C23.9311 10.5753 23.8705 10.7919 23.6539 10.9359C23.4195 11.0913 23.1959 11.0446 22.9729 10.8961C22.508 10.586 22.0343 10.2891 21.5738 9.97204C21.4248 9.86971 21.3212 9.87982 21.1778 9.97772C20.7293 10.2841 20.2689 10.5727 19.8179 10.8753C19.5841 11.0326 19.3492 11.1046 19.0965 10.9321C18.8773 10.7831 18.8262 10.5601 18.9203 10.2121C19.0637 9.68148 19.202 9.149 19.3574 8.62157C19.4035 8.46619 19.3694 8.38029 19.2462 8.28364C18.799 7.93497 18.3594 7.5762 17.9185 7.21995C17.669 7.01845 17.5982 6.82959 17.6772 6.58704C17.7587 6.33501 17.945 6.21121 18.2583 6.19605C18.8325 6.16826 19.4067 6.13415 19.9815 6.11393C20.1204 6.10888 20.1874 6.06024 20.2347 5.93012C20.4318 5.39133 20.6459 4.85885 20.8411 4.32005C20.934 4.06297 21.0932 3.90317 21.3686 3.88674C21.6136 3.87159 21.805 4.02887 21.9181 4.32384C22.1202 4.85253 22.323 5.38059 22.5156 5.91244C22.5649 6.04887 22.6306 6.11014 22.7828 6.1152C23.3576 6.13415 23.9311 6.16889 24.5059 6.19731C24.8786 6.21563 25.1079 6.42976 25.1016 6.86749L25.1022 6.86686ZM21.3799 5.06729C21.2271 5.46523 21.0572 5.80506 20.9662 6.1651C20.8285 6.714 20.495 6.92876 19.9549 6.89086C19.8299 6.88202 19.7029 6.89212 19.5772 6.89907C19.3384 6.91234 19.1003 6.92939 18.8041 6.94897C19.2064 7.27238 19.5557 7.56293 19.9158 7.8396C20.1735 8.0373 20.2587 8.2767 20.1577 8.58557C20.1185 8.70495 20.0895 8.82749 20.0573 8.94877C19.972 9.27028 19.8873 9.59242 19.7856 9.97772C20.1779 9.72127 20.5291 9.5242 20.843 9.27912C21.2214 8.98414 21.553 8.99235 21.9276 9.2848C22.2415 9.52988 22.5921 9.72822 22.9755 9.97962C22.8656 9.56968 22.8024 9.20332 22.6679 8.86476C22.4581 8.33796 22.5838 7.96719 23.0563 7.66273C23.3614 7.46629 23.6286 7.21174 23.9615 6.94455C23.4296 6.91549 22.9679 6.88075 22.5049 6.86749C22.1739 6.85802 21.9895 6.69694 21.8833 6.39249C21.7343 5.96487 21.5631 5.54482 21.3799 5.06666V5.06729Z" fill="#7E76FF"/>
<path d="M9.21221 2.8291C9.35244 2.90553 9.46677 2.94406 9.55015 3.01733C10.0409 3.44938 10.526 3.88711 11.0086 4.328C11.2051 4.50739 11.224 4.74805 11.068 4.91101C10.9158 5.07019 10.6928 5.06892 10.4995 4.89585C10.0005 4.44991 9.50467 3.99954 9.00756 3.55171C8.86797 3.42601 8.81933 3.26115 8.90776 3.10513C8.96903 2.99649 9.10041 2.92701 9.21221 2.82973V2.8291Z" fill="#7E76FF"/>
<path d="M15.1556 5.05772C15.064 4.98003 14.9086 4.90991 14.8739 4.8019C14.8353 4.68189 14.8574 4.47471 14.9395 4.39575C15.4562 3.89991 15.9925 3.42428 16.5326 2.9537C16.6873 2.81853 16.9166 2.85706 17.0398 3.01245C17.1686 3.17478 17.1825 3.36364 17.0322 3.5045C16.5029 3.99845 15.9609 4.47976 15.419 4.95981C15.3653 5.00782 15.2756 5.0154 15.1562 5.05835L15.1556 5.05772Z" fill="#7E76FF"/>
</svg>
