<svg width="30" height="30" viewBox="0 0 30 30" fill="none" xmlns="http://www.w3.org/2000/svg">
<path d="M15 0C23.2843 0 30 6.71573 30 15C30 23.2843 23.2843 30 15 30C6.71573 30 0 23.2843 0 15C0 6.71573 6.71573 0 15 0ZM22.4092 12.5996C22.4092 12.5996 16.4936 15.8086 15.209 15.8086C14.0371 15.8086 8.00917 12.5996 8.00977 12.5996L8 19.7998C8 20.4622 8.53819 21 9.20117 21H21.2168C21.881 21 22.4189 20.4622 22.4189 19.7998L22.4092 12.5996ZM9.20117 9C8.53759 9.00002 8 9.5378 8 10.2002V10.7344C8 10.7344 14.0371 14.1582 15.209 14.1582C16.4372 14.1582 22.4092 10.7998 22.4092 10.7998L22.4189 10.2002C22.4189 9.5378 21.881 9 21.2168 9H9.20117Z" fill="#3C5D62"/>
</svg>
