<svg width="20" height="18" viewBox="0 0 20 18" fill="none" xmlns="http://www.w3.org/2000/svg">
<path opacity="0.89772" d="M19.6876 0.656738V3.66186C18.106 3.92547 16.9988 4.47904 16.3662 5.32259C15.7335 6.16613 15.4172 7.66869 15.4172 9.83027H19.4504V17.3431H11.7003V11.0165C11.7003 7.74777 12.3066 5.21714 13.5192 3.42461C14.7318 1.57936 16.788 0.656738 19.6876 0.656738ZM8.2998 0.656738V3.66186C6.71815 3.92547 5.611 4.47904 4.97835 5.32259C4.34569 6.16613 4.02936 7.66869 4.02936 9.83027H8.06255V17.3431H0.3125V11.0165C0.3125 7.74777 0.918796 5.21714 2.13139 3.42461C3.34398 1.57936 5.40012 0.656738 8.2998 0.656738Z" fill="#7E76FF"/>
</svg>
