<svg width="81" height="40" viewBox="0 0 81 40" fill="none" xmlns="http://www.w3.org/2000/svg">
<path d="M59.2842 1.02637H40.7021V19.4138H59.2842V1.02637Z" fill="#5E5E5E"/>
<path d="M45.4009 4.04199V11.2671C45.4009 15.0996 47.3268 16.5237 49.8665 16.5237C52.5543 16.5237 54.5649 14.9949 54.5649 11.2252V4.04199H52.9353V11.33C52.9353 14.0315 51.7289 15.2252 49.9088 15.2252C48.258 15.2252 47.0093 14.0525 47.0093 11.33V4.04199H45.4009Z" fill="#8D8D8D"/>
<path d="M79.0093 1.02637H60.4272V19.4138H79.0093V1.02637Z" fill="#5E5E5E"/>
<path d="M66.5647 16.3562V11.0996C66.5647 9.06822 66.5435 7.58131 66.4588 6.03157L66.5223 6.01063C67.1361 7.33 67.9615 8.73314 68.8292 10.1153L72.7657 16.3562H74.3953V4.08393H72.8927V9.23576C72.8927 11.1415 72.935 12.6284 73.0832 14.2619L72.9985 14.2829C72.4271 13.0054 71.6864 11.7279 70.7975 10.2829L66.8398 4.06299H65.062V16.3352H66.5647V16.3562Z" fill="#8D8D8D"/>
<path d="M79.0093 20.5449H60.4272V38.9324H79.0093V20.5449Z" fill="#5E5E5E"/>
<path d="M72.3425 27.2253C72.3425 25.5917 71.1784 24.7959 69.4218 24.7959C68.7234 24.7959 68.1943 24.8588 67.9192 24.9216V29.6965C68.2578 29.7802 68.7234 29.8221 69.2525 29.8221C71.1784 29.8431 72.3425 28.8797 72.3425 27.2253ZM73.9509 27.0577C73.9509 28.1677 73.6123 29.0472 72.9774 29.6755C72.1308 30.5551 70.7552 31.0158 69.189 31.0158C68.7023 31.0158 68.2578 30.9949 67.898 30.9111V35.8535H66.2896V23.7279C67.0726 23.5813 68.0673 23.4766 69.3583 23.4766C70.9456 23.4766 72.1097 23.8326 72.8292 24.5027C73.5488 25.0682 73.9509 25.9687 73.9509 27.0577Z" fill="#8D8D8D"/>
<path d="M59.2632 20.5654H40.6812V38.9529H59.2632V20.5654Z" fill="#5E5E5E"/>
<path d="M53.8239 29.4451C53.845 26.5132 52.1731 24.7121 48.7868 24.7121C47.9614 24.7121 47.3265 24.7749 46.9032 24.8797V34.5969C47.3053 34.6598 47.8979 34.6598 48.5328 34.6598C51.9614 34.6807 53.8239 32.7749 53.8239 29.4451ZM55.517 29.4032C55.517 31.4137 54.8821 33.0472 53.7392 34.1781C52.554 35.3299 50.6493 35.9372 48.2366 35.9372C47.0725 35.9372 46.1413 35.8954 45.3159 35.7906V23.7069C46.3106 23.5603 47.4746 23.4556 48.7445 23.4556C51.0514 23.4556 52.681 23.9582 53.7815 24.9634C54.8609 25.9687 55.517 27.4137 55.517 29.4032Z" fill="#8D8D8D"/>
<path d="M39.6231 1.02637H1.27393V38.974H39.6231V1.02637Z" fill="#5E5E5E"/>
<path d="M30.2052 28.0628C29.3375 28.2932 28.3851 28.3769 27.5386 28.6701C28.9777 27.4345 28.9142 25.5497 29.8666 24.0837C30.1841 23.6649 30.438 23.2461 30.7767 22.8481C30.1841 24.0209 30.438 25.5288 29.7608 26.6597C29.5068 27.0995 29.1259 27.5392 28.7238 27.8953C28.8507 27.8953 28.9777 27.7696 29.0835 27.7068C30.1841 26.6178 31.6232 26.3246 32.8084 25.445C33.274 25.068 33.7185 24.5864 33.9301 24.0419C33.7185 25.8429 31.8984 27.5183 30.2052 28.0628Z" fill="#8D8D8D"/>
<path d="M34.1628 20.7958C33.6337 21.5497 32.9776 22.2618 32.4908 23.0157C32.5543 22.4084 32.6178 21.6545 32.385 21.089C31.9617 19.8534 31.6019 18.5969 31.4961 17.2356L31.5173 16.712C31.8347 18.0942 33.2104 19.0576 33.1257 20.6073C33.1469 20.9843 33.0411 21.2984 32.9776 21.6335L32.9987 21.6544L33.0622 21.5916C33.2739 20.8377 33.3585 20.0209 33.676 19.3089C34.1204 18.2827 34.6919 17.2356 34.4591 16C35.1151 17.466 34.9035 19.4136 34.1628 20.7958Z" fill="#8D8D8D"/>
<path d="M33.3164 12.9218C34.2265 14.1364 34.417 16.0631 33.7609 17.4663C33.5069 18.0527 33.3376 18.6809 33.2529 19.3302C33.2106 19.2254 33.1894 19.0579 33.1471 18.9323C32.7873 17.571 31.4752 16.6076 30.9461 15.3092C30.7768 14.8904 30.6286 14.4506 30.5439 13.9898C31.1154 15.037 32.5334 15.5815 32.9143 16.7333C33.0625 17.0265 33.0625 17.3825 33.1683 17.6967C33.1894 17.6967 33.2106 17.6757 33.2106 17.6548C33.0413 16.4611 33.0836 15.2254 33.2529 14.0527C33.2529 13.4244 33.1894 12.7961 32.8297 12.3145C33.0413 12.461 33.1471 12.7124 33.3164 12.9218Z" fill="#8D8D8D"/>
<path d="M32.6603 12.6702C32.8931 13.7383 32.5545 14.7644 32.7662 15.8325C32.1736 14.7016 30.9461 14.1571 30.0783 13.2566C29.5916 12.7121 29.3587 12.0629 29.2529 11.3508C29.7397 12.5236 31.0519 12.7749 31.8138 13.7592C32.0677 13.9896 32.1524 14.3037 32.3217 14.555L32.3429 14.5341C31.8984 13.6126 31.7503 12.5864 31.454 11.6021C31.3058 11.1833 30.9884 10.7644 30.5863 10.4922C31.6021 10.7226 32.4699 11.7487 32.6603 12.6702Z" fill="#8D8D8D"/>
<path d="M30.0149 10.2409C30.7556 10.9111 31.0942 11.7697 31.327 12.6493L31.454 12.9425C30.3746 12.1676 29.3799 11.1205 28.6815 10.0315L27.835 9.17285C28.5757 9.48699 29.3799 9.67547 30.0149 10.2409Z" fill="#8D8D8D"/>
<path d="M12.8293 9.31934C12.0674 9.96855 11.5595 10.8062 11.0092 11.5602C10.5013 12.1675 9.86635 12.5864 9.29492 13.1099C9.59122 12.4816 9.61238 11.7277 10.0357 11.1623C10.6706 10.0942 11.8134 9.71724 12.8293 9.31934Z" fill="#8D8D8D"/>
<path d="M8.72353 11.5812C9.08332 11.1414 9.54893 10.8273 10.078 10.6807C9.06216 11.3718 9.12565 12.6074 8.80819 13.6335C8.70237 14.0105 8.53306 14.3665 8.4484 14.7435L8.46957 14.7644C8.63888 14.3246 8.93517 13.9058 9.29496 13.5498C10.0145 12.9006 11.0727 12.4817 11.4325 11.5184C11.4114 12.8587 10.2685 13.9267 9.18914 14.6807C8.7447 15.0786 8.30025 15.5184 8.06745 16.021C8.04629 15.6859 8.10978 15.3299 8.08861 14.9739C7.98279 13.8011 7.87697 12.4608 8.72353 11.5812Z" fill="#8D8D8D"/>
<path d="M6.67085 15.6235C6.64968 14.4297 7.13646 13.4454 7.85603 12.5659C7.8772 12.5659 7.89836 12.5449 7.91952 12.5449C7.13646 13.7177 7.79254 15.1837 7.75021 16.524L7.64439 17.8852C7.66556 17.8852 7.66556 17.9271 7.68672 17.9271C7.72905 17.7805 7.75021 17.613 7.77138 17.4664C7.96185 16.3774 8.91423 15.5816 9.76079 14.8276C9.93011 14.6392 10.0994 14.4297 10.1841 14.1994C10.1206 14.7439 9.95127 15.2884 9.71847 15.8119C9.06238 17.0685 7.85603 18.1156 7.62323 19.5606C7.53857 18.1365 6.58619 17.0894 6.67085 15.6235Z" fill="#8D8D8D"/>
<path d="M6.09923 17.3194C6.18388 16.9425 6.24737 16.5655 6.41669 16.2095C6.09923 17.7802 7.17859 18.932 7.53838 20.2932C7.68653 20.7959 7.72886 21.3613 7.9405 21.843C7.96166 21.843 7.98282 21.843 7.98282 21.822C7.45372 20.3561 8.21563 19.0158 8.97753 17.8849C9.16801 17.5707 9.27383 17.2357 9.35849 16.8796C9.44314 17.5288 9.27383 18.3037 9.16801 18.9739C8.97753 19.8535 8.7024 20.6702 8.4696 21.5079C8.32145 22.0315 8.34261 22.6388 8.42727 23.1833L8.34261 23.1205C7.79235 22.0943 6.67065 21.3194 6.35319 20.1885C6.07806 19.3089 5.90875 18.2828 6.09923 17.3194Z" fill="#8D8D8D"/>
<path d="M6.03598 20.3983C6.16296 22.0737 7.98307 22.9533 8.82963 24.3355C9.02011 24.6286 9.21058 24.9218 9.46455 25.1732C9.42222 25.0056 9.25291 24.8381 9.18942 24.6705C8.89312 24.0841 8.7873 23.393 8.85079 22.7019C8.93545 21.8433 9.29524 21.0475 9.14709 20.147C9.88783 21.7386 9.65503 23.7072 10.0783 25.4245C10.1841 25.8014 10.3958 26.1365 10.5439 26.4925C9.02011 25.4663 6.94603 24.482 6.26878 22.6182C6.01481 21.948 5.97249 21.1522 6.03598 20.3983Z" fill="#8D8D8D"/>
<path d="M6.9458 24.2517C7.79236 26.1575 9.92993 26.3041 11.3479 27.4768C11.6019 27.7072 11.877 27.8957 12.1733 28.0423L12.1945 28.0214C11.877 27.7282 11.4961 27.3931 11.2633 27.0161C10.4379 25.8643 10.713 24.2517 10.0992 23.0161C10.6707 23.6863 11.1786 24.3774 11.5172 25.1522C12.0252 26.3878 12.2156 27.8119 13.4008 28.7334C12.131 28.3145 10.6283 28.4402 9.50665 27.6653C8.27913 26.9114 7.17861 25.6339 6.9458 24.2517Z" fill="#8D8D8D"/>
<path d="M9.12598 27.7909C10.4805 29.3197 12.7027 28.8171 14.5228 29.215C14.7768 29.2569 15.0096 29.3616 15.2847 29.3197C15.0731 29.1731 14.7768 29.194 14.544 29.0684C13.126 28.5658 12.9143 27.0579 12.1313 26.0317C13.126 26.681 13.9514 27.5605 14.8614 28.3982C15.5175 28.9637 16.3006 29.2359 17.126 29.4035C16.9355 29.4663 16.6604 29.4453 16.4487 29.5082C14.9672 29.8642 13.2953 30.4715 11.7292 29.927C10.7133 29.5919 9.65508 28.7961 9.12598 27.7909Z" fill="#8D8D8D"/>
<path d="M27.6017 31.3721C26.0779 31.9376 24.4695 31.3512 23.2631 30.4506C22.7763 30.1365 22.3531 29.6967 21.7181 29.7386C21.4853 29.7386 21.2737 29.7386 21.0832 29.8014C22.2472 30.3459 23.3266 31.0789 24.3213 32.0213C24.152 32.2098 23.9404 32.3773 23.7287 32.5449C22.7763 31.5187 21.7181 30.5554 20.533 29.9899C20.3002 30.0109 20.0885 30.1574 19.8769 30.2622C18.9245 30.8695 17.9721 31.6444 17.2525 32.5868L16.6388 32.0842C17.6123 31.0999 18.7129 30.3459 19.898 29.8014C18.734 29.4454 17.9721 30.4088 17.0832 30.8904C16.0462 31.6025 14.5647 31.9376 13.316 31.4559C12.6388 31.2046 12.0039 30.8276 11.5171 30.2412C12.4906 30.9114 13.951 30.9742 15.0726 30.5344C16.5753 29.8852 18.1203 29.0684 19.9192 29.4664C20.1943 29.4664 20.4695 29.7595 20.7446 29.5082C22.0779 29.1732 23.6017 29.4035 24.7658 30.0109L25.951 30.4716C27.0515 30.8695 28.4906 30.7648 29.4218 30.0946C28.9562 30.681 28.3002 31.1208 27.6017 31.3721Z" fill="#8D8D8D"/>
<path d="M29.253 29.8011C27.5387 30.4503 25.8032 29.6545 24.1524 29.3822L23.835 29.3403C24.618 29.1728 25.3799 28.9215 26.0149 28.377C26.9461 27.4974 27.7715 26.5969 28.7873 25.9058C28.0254 26.8691 27.9408 28.2513 26.6921 28.8796C26.3746 29.089 25.9937 29.11 25.6551 29.2775C26.1207 29.2775 26.544 29.1309 26.9884 29.089C28.6815 28.8168 30.6074 29.089 31.7926 27.6649C31.3482 28.6073 30.2477 29.445 29.253 29.8011Z" fill="#8D8D8D"/>
<path d="M32.3853 25.0056C31.708 25.4454 31.0096 25.8643 30.3535 26.3459V26.2831C31.3482 24.6287 30.8615 22.3669 31.4752 20.5658L31.708 19.9585C31.581 21.0894 32.0678 22.0527 32.0466 23.1836C32.0043 23.8747 31.7927 24.4821 31.4329 25.0266H31.4964C31.9831 24.3983 32.3641 23.7072 32.9355 23.0999C33.8244 22.2412 34.7345 21.3826 34.8403 20.2098C35.1366 22.1574 34.0361 23.8957 32.3853 25.0056Z" fill="#8D8D8D"/>
<path d="M30.1629 18.8694C30.0571 21.2359 29.1682 23.2883 27.602 25.0474L27.5597 25.1312C27.2423 24.7752 26.819 24.3354 26.4169 24.0213C26.6497 23.8747 26.8401 23.5815 27.0094 23.372C27.983 22.0527 28.5544 20.5658 28.6391 18.8904L28.5967 18.7438L28.6814 18.8066H30.1417L30.2264 18.7647L30.1629 18.8694ZM20.7872 28.126L20.6814 28.1888C20.7237 27.6652 20.7237 27.1207 20.6814 26.5972C20.9354 26.6809 21.2105 26.5972 21.4856 26.5972L22.2687 26.4506C22.6497 26.5343 22.9248 27.1417 23.3692 26.7647C23.5174 26.5972 23.7713 26.5972 23.8772 26.3668C24.1311 26.283 24.1946 26.0317 24.3639 25.8642C24.5333 25.3825 25.0835 25.3197 25.401 24.9846C25.6338 24.7752 25.9512 24.5867 26.0994 24.3145L26.1206 24.4401L27.1999 25.4663C25.3798 27.0998 23.2422 28.0213 20.7872 28.126ZM20.7661 24.9008C20.9565 24.9846 21.274 24.8171 21.3798 25.0265C21.3163 25.1521 21.2317 25.2569 21.274 25.3825C21.3587 25.571 21.4645 25.8223 21.6973 25.8432C21.7608 25.927 21.8454 25.948 21.9301 25.9689C21.528 26.0317 21.0835 26.0108 20.7026 26.1364C20.7449 25.7176 20.7026 25.2987 20.7026 24.8799L20.6179 24.7752C20.6814 24.7961 20.7237 24.859 20.7661 24.9008ZM20.3851 22.3249C20.2793 22.3459 20.1735 22.3249 20.0888 22.283C20.0465 22.283 20.0676 22.2202 20.0465 22.1993C20.1946 22.1993 20.2581 22.0317 20.4274 22.0527C20.5121 21.9689 20.5333 21.8432 20.6602 21.7804C20.6179 21.6548 20.7872 21.7385 20.8084 21.6548C20.8507 21.6129 20.9142 21.571 20.9777 21.6129C21.0835 21.7595 21.2952 21.6967 21.401 21.8642C21.4433 21.8851 21.4645 21.8223 21.4645 21.8014V21.7385C21.6338 21.7176 21.7184 21.948 21.8878 21.8014C21.9301 21.7595 21.9089 21.6967 21.8878 21.6548C21.8666 21.6548 21.8454 21.6338 21.8454 21.6129C21.9724 21.5501 22.0359 21.7804 22.184 21.7176C22.311 21.6129 22.3745 21.5082 22.5438 21.5082L22.5862 21.5501C22.6073 21.8432 22.3534 22.0317 22.1206 22.1783C21.9724 22.2412 21.6973 22.2202 21.7184 22.4506C21.5491 22.5972 21.401 22.3668 21.1893 22.4296C21.0835 22.3877 21.1893 22.2412 21.0412 22.2202C20.8084 22.283 20.5544 22.0946 20.3851 22.3249ZM19.1576 28.0631C17.1047 27.7909 15.3057 26.9113 13.7184 25.5501L14.7766 24.5029L14.7978 24.4401C16.2581 25.8223 18.0147 26.5343 20.0042 26.66L20.1523 26.6181L20.11 26.7019V28.0631L20.1946 28.1888C19.856 28.0841 19.4751 28.126 19.1576 28.0631ZM11.9618 23.2673C11.2211 21.9061 10.7978 20.4401 10.7131 18.8275H12.1311L12.2793 18.7857C12.2581 18.8694 12.2581 18.9532 12.2581 19.0788V19.0579C12.2158 19.0788 12.2793 19.0998 12.2793 19.1417C12.3004 19.6862 12.4063 20.1888 12.5333 20.6705L12.5967 20.7752C12.4909 20.6705 12.4486 20.5658 12.3639 20.4611C12.237 20.482 12.11 20.5029 12.0253 20.5867C12.0888 20.7333 11.9407 20.6914 11.8772 20.7333C11.856 20.6914 11.8137 20.6495 11.7713 20.6286C11.6655 20.6286 11.5597 20.6495 11.4962 20.7542C11.5174 20.838 11.4327 20.859 11.3904 20.9218C11.3692 21.1521 11.2846 21.4453 11.4539 21.6338C11.4539 21.8014 11.5385 21.948 11.6655 22.0527C11.7079 22.0527 11.7502 22.0317 11.7713 22.0108C11.9195 22.1155 11.983 22.3668 12.1946 22.304C12.2581 22.283 12.237 22.2202 12.2581 22.1574C12.3639 22.2621 12.4063 22.4715 12.6179 22.4506C12.6602 22.4925 12.7026 22.5972 12.7872 22.5972C12.9989 22.5343 12.9354 22.8485 13.0835 22.9323C13.2105 23.016 13.274 23.1836 13.4433 23.0998L13.5068 23.016C13.5703 23.0579 13.5068 23.1626 13.5703 23.2045C13.6549 23.372 13.8243 23.4768 13.9936 23.5186C14.1417 23.6862 14.2899 23.8747 14.4592 24.0003L14.3322 24.0422L13.3163 25.0893C12.8507 24.5448 12.3216 23.9375 11.9618 23.2673ZM10.7766 17.3616C11.0306 15.2673 11.9407 13.4453 13.401 11.8328L13.4433 11.9794C13.7819 12.3145 14.1417 12.6705 14.4803 12.9846C14.184 13.1731 14.0359 13.5082 13.8031 13.7595C12.893 15.037 12.3639 16.482 12.2793 18.0946L12.3216 18.283C11.8137 18.2412 11.2634 18.2412 10.7343 18.283C10.7555 17.9689 10.7131 17.6548 10.7766 17.3616ZM14.5862 10.8066C16.2158 9.65477 18.0359 8.96367 20.0888 8.8799L20.0253 9.00555L20.0465 10.2202L20.0888 10.3459C18.0994 10.4296 16.3639 11.1836 14.8613 12.5239L14.8401 12.5867C14.5015 12.2307 14.1206 11.8118 13.7184 11.5186H13.6761C13.9936 11.3302 14.2687 11.016 14.5862 10.8066ZM20.11 14.3878C19.8348 14.3249 19.602 14.4506 19.3481 14.4715C18.7766 14.6181 18.2687 14.9323 17.7819 15.2673C17.7608 15.3092 17.7396 15.3511 17.6973 15.372C17.3375 15.0579 16.9989 14.6391 16.6179 14.3668C17.6126 13.571 18.7343 13.0265 20.0253 12.9427L20.11 12.9008C20.0465 13.3825 20.0465 13.9061 20.11 14.3878ZM19.7079 16.0213C19.6867 15.9584 19.7713 15.8747 19.6867 15.8328C19.4539 15.9375 19.5385 16.1888 19.3904 16.3563C19.3692 16.482 19.1999 16.4192 19.1153 16.5029C19.0518 16.3982 18.9248 16.4192 18.8401 16.461C18.7131 16.461 18.692 16.2097 18.565 16.3354C18.5227 16.3773 18.5438 16.461 18.4592 16.4401C18.438 16.3982 18.3957 16.3982 18.3745 16.3773C18.3745 16.2935 18.5015 16.3145 18.4592 16.2307C18.3745 16.0631 18.1629 16.0841 18.0359 15.9794H17.9089C18.5015 15.3511 19.2634 15.0789 20.0888 14.9532C20.0888 15.3092 20.0465 15.7281 20.1735 16.0631C20.0465 15.8956 19.856 16.0841 19.7079 16.0213ZM18.2899 20.126C18.3745 20.0422 18.4592 19.9165 18.5015 19.7909L18.6708 19.8747C18.5015 19.8956 18.4169 20.0631 18.2899 20.126ZM19.9195 21.6548C19.856 21.7804 19.8983 21.948 19.8772 22.0736C19.1999 21.948 18.5862 21.6757 18.0359 21.2359C18.3534 20.9008 18.7555 20.5867 18.9883 20.2307C19.0094 20.3982 19.2211 20.461 19.3481 20.5448C19.6232 20.6705 19.9407 20.859 20.2581 20.7333C20.237 20.7542 20.2158 20.7752 20.1946 20.7961C20.2793 20.8799 20.1311 20.9637 20.237 21.0474C20.2581 21.1103 20.1735 21.1103 20.1735 21.1521C20.2158 21.2359 20.1523 21.4035 20.3005 21.4453C20.3428 21.4872 20.3004 21.571 20.237 21.571C20.11 21.5501 19.983 21.5501 19.9195 21.6548ZM16.7661 16.2097C16.6179 16.2935 16.5121 16.4401 16.4274 16.5658C16.3004 16.6495 16.1523 16.6286 16.0465 16.7752C16.0465 16.838 16.11 16.9008 16.0465 16.9427C15.9195 17.0474 15.6867 16.9218 15.6232 17.1312C15.602 17.3197 15.3692 17.4244 15.3904 17.6338C15.2634 17.7176 15.2846 17.8642 15.3057 17.9898C15.3692 18.0736 15.2846 18.2202 15.3904 18.283C15.1999 18.2621 14.9248 18.2202 14.7555 18.304C14.8613 18.0736 14.819 17.8014 14.8825 17.5501C15.0729 16.5029 15.5597 15.5815 16.2581 14.7438C16.6179 15.0789 16.9989 15.4977 17.3798 15.7909C17.0835 15.7909 17.0835 16.2097 16.7661 16.2097ZM16.0676 22.1783L16.0253 21.8642C15.729 21.6129 15.8348 21.1521 15.7713 20.838C15.5597 20.6705 15.729 20.4192 15.5809 20.2307C15.5809 19.9375 15.1153 19.8328 15.2634 19.5186C15.1999 19.4349 15.1364 19.3302 15.1999 19.2254C15.2846 19.1207 15.4962 19.2254 15.5597 19.0788L15.602 18.8066C15.7079 18.7438 15.856 18.8904 15.9195 18.7438C16.0253 18.4925 15.5385 18.1783 15.9618 18.0527C16.11 18.0317 16.2793 18.0108 16.3428 18.1783C16.3639 18.3668 16.4274 18.5762 16.3428 18.7647C16.4698 18.8066 16.3639 18.9323 16.3639 19.016C16.2793 19.0579 16.2158 19.1417 16.11 19.0998C16.0676 19.037 16.0042 18.9113 15.8983 18.9323C15.8137 19.037 15.9195 19.1417 15.9195 19.2673C15.8983 19.3302 15.9195 19.4139 15.8772 19.4768C15.8348 19.4558 15.8137 19.4349 15.7502 19.4349C15.6655 19.4768 15.729 19.5815 15.7502 19.6234C15.8348 19.6862 15.8983 19.7699 16.0253 19.7699L16.0676 19.7071C16.0465 19.5396 16.1311 19.4139 16.1311 19.2673L16.2793 19.3511C16.4063 19.9794 16.7026 20.5448 17.0624 21.0893L17.2528 21.2778C16.7872 21.6757 16.3428 22.1574 15.9407 22.5972C15.9407 22.5762 15.9195 22.4925 15.856 22.5343C15.8137 22.3459 16.1311 22.4087 16.0676 22.1783ZM19.3269 23.9794L19.5809 24.0841C18.692 23.8747 17.7396 23.5605 16.9777 22.9323C16.8507 22.8485 16.7661 22.6809 16.5967 22.6809C16.9565 22.3877 17.3163 22.0108 17.6126 21.6548C17.7396 21.9061 18.0359 22.0317 18.2475 22.1993C18.6285 22.3668 19.0306 22.7019 19.4962 22.6181C19.3481 22.66 19.2211 22.7438 19.1153 22.8694C19.0518 23.016 19.0729 23.2045 18.8825 23.2673C18.8825 23.5186 19.1364 23.7699 19.3269 23.9794ZM17.8031 20.0213C17.8031 20.0631 17.8666 20.126 17.9301 20.0841C17.9936 20.0003 17.8031 19.8747 17.9301 19.8328C18.0147 19.9165 17.9724 20.0841 18.0147 20.1888C18.0571 20.2516 18.0782 20.3145 18.0571 20.3773C17.9089 20.5448 17.7184 20.6914 17.6338 20.8799C17.5491 20.6495 17.3375 20.461 17.2528 20.2307C17.1047 19.9584 17.02 19.6652 16.893 19.4139C17.02 19.5605 17.3375 19.393 17.3375 19.6862C17.3587 19.7071 17.3798 19.6862 17.4221 19.6862C17.4645 19.6443 17.4645 19.6443 17.528 19.6652C17.5491 19.7071 17.6761 19.749 17.5703 19.7909C17.5915 19.8956 17.6973 20.0003 17.8031 20.0213ZM20.0888 12.3982C19.8137 12.3354 19.5597 12.4401 19.2846 12.461C18.1417 12.6914 17.0835 13.1731 16.2158 13.9898L16.1735 13.8851C15.8348 13.571 15.5174 13.1731 15.1364 12.9427C15.4539 12.7542 15.7502 12.461 16.0676 12.2516C17.2528 11.4558 18.5862 11.016 20.0676 10.9323C20.0253 11.4139 20.0676 11.9165 20.0888 12.3982ZM14.2899 18.283L14.1629 18.2412L12.7661 18.2621C12.893 16.7124 13.3163 15.2883 14.2264 14.0736L14.7766 13.3825V13.2778C15.0941 13.6548 15.4751 14.0108 15.856 14.3459C14.8401 15.4139 14.3322 16.7124 14.2264 18.1364C14.2475 18.1993 14.2475 18.2621 14.2899 18.283ZM13.2528 20.6286C13.1047 20.6495 13.147 20.7961 13.1047 20.8799C13.1258 20.5239 12.9565 20.1888 12.9142 19.8328L12.8084 18.9113L12.7449 18.8275C13.1893 18.8904 13.6973 18.8485 14.1629 18.8694L14.2687 18.8275C14.2264 19.0579 14.2264 19.372 14.3745 19.5605C14.311 19.4977 14.2264 19.3302 14.0994 19.3302C13.8454 19.3511 13.8243 19.6862 13.5491 19.6862C13.3375 19.8537 13.2952 20.105 13.2528 20.3563C13.3587 20.4192 13.1893 20.5239 13.2528 20.6286ZM14.7978 18.8904L14.7343 18.7647C14.8825 18.8694 15.0518 18.8485 15.2211 18.8066C14.9671 18.8904 15.0729 19.1836 14.9671 19.372C14.946 19.4558 15.0941 19.4977 15.0729 19.5815C14.946 19.6443 14.9248 19.7699 14.8825 19.8747C14.946 19.5396 14.819 19.2254 14.7978 18.8904ZM20.1523 26.1783L20.0042 26.0736C18.0994 25.9689 16.4698 25.194 15.0518 23.9794C15.2846 23.9584 15.3692 24.2516 15.6232 24.1888C15.8983 24.1679 16.11 23.9375 16.4063 23.9794C16.5544 23.9794 16.7237 23.9794 16.8084 23.8328C16.8507 23.6862 16.6814 23.6024 16.6602 23.4768C17.6338 24.1888 18.7131 24.6495 19.9618 24.6914L20.0888 24.6495V25.9898L20.1523 26.1783ZM20.3851 16.7961L20.4698 16.838C20.3639 16.838 20.237 16.7752 20.1523 16.859C20.0888 16.9008 20.1311 16.9846 20.1523 17.0474C20.3428 17.1103 20.3851 17.4244 20.6179 17.2987C20.7237 17.3197 20.8507 17.3406 20.893 17.4453C21.0412 17.5082 21.0624 17.7595 21.2528 17.6966C21.2528 17.8014 21.2105 17.9689 21.3375 18.0317C21.3163 18.1155 21.1893 18.1574 21.1893 18.2621C21.1682 18.283 21.147 18.3459 21.1682 18.3877C21.3587 18.4087 21.3375 18.6181 21.4433 18.7438C21.401 18.8904 21.4433 19.037 21.5915 19.1207C21.5703 19.2883 21.4856 19.4349 21.4221 19.5815C21.2317 19.6862 20.893 19.4349 20.8296 19.7909C20.7237 19.9165 20.8084 20.1888 20.5967 20.1888C20.1735 20.2097 19.7925 20.126 19.4751 19.8956C19.6867 19.7909 20.0465 19.9375 20.11 19.6234C20.1735 19.5815 20.1946 19.4977 20.1523 19.4349C20.2581 19.3302 20.2793 19.2045 20.3428 19.0998C20.2581 19.016 20.3004 18.9741 20.3216 18.8904C20.11 18.6809 19.8348 18.7857 19.5597 18.7857C19.3904 18.8694 19.5597 19.0579 19.4539 19.1626C19.2422 19.1836 19.2422 19.393 19.0941 19.4977C19.0094 19.4558 18.946 19.3511 18.946 19.2673H18.9671C18.946 19.3092 18.9883 19.3511 19.0094 19.3511C19.1999 19.372 19.1364 19.1626 19.1999 19.0579C19.2211 18.9323 19.5174 18.7647 19.2846 18.6809C19.2634 18.6391 19.3057 18.5553 19.2422 18.5343C19.1788 18.5553 19.0518 18.5553 19.0518 18.6809C19.0941 18.7647 19.0518 18.8694 18.9671 18.9323H18.9248C18.946 18.8694 18.9036 18.8275 18.8613 18.8066C18.7343 18.8066 18.6497 18.8904 18.5227 18.8694C18.3534 18.9113 18.184 18.9323 18.0147 18.9323C17.9936 18.8275 18.1417 18.8694 18.184 18.7857C18.1629 18.6391 18.2687 18.5343 18.3322 18.4296C18.3745 18.3877 18.4592 18.4087 18.5015 18.4296C18.5438 18.4715 18.5862 18.5134 18.6497 18.4925L18.692 18.4087C18.8401 18.4925 18.7555 18.9323 19.0518 18.7438C19.0941 18.5553 19.0518 18.3249 19.1364 18.1574C19.0729 17.9898 19.2422 17.927 19.2846 17.8223C19.4327 17.8432 19.4327 17.6548 19.4962 17.571C19.729 17.5082 19.983 17.4453 20.1523 17.194C20.0888 17.0684 20.1311 16.8799 20.0253 16.7752C20.1311 16.7542 20.3004 16.7124 20.3851 16.7961ZM21.2528 10.9741C22.1417 11.0789 22.946 11.3302 23.729 11.6862C23.856 11.8537 24.0676 11.9584 24.11 12.1679C23.983 12.482 24.5333 12.461 24.2793 12.7752C24.2581 12.8799 24.3428 12.9218 24.3851 13.0056C24.4063 13.0893 24.3639 13.215 24.4698 13.2778C24.6602 13.3197 24.7237 13.0684 24.9142 13.1312C25.147 13.2987 25.2105 13.5919 25.2105 13.8432C25.2317 14.0108 25.3798 14.1155 25.528 14.1783C25.8243 14.0946 25.6973 14.4296 25.8878 14.5134C26.1206 14.5343 26.2475 14.8485 26.5015 14.8066C26.7343 14.9741 26.8613 15.2254 27.0729 15.4139C27.0729 15.4558 27.0941 15.4977 27.1364 15.5186C27.2634 15.5396 27.3269 15.4558 27.4327 15.4558C27.8348 16.2516 28.0253 17.1312 28.0888 18.0736L28.1311 18.1783C27.6444 18.1783 27.1364 18.1783 26.6285 18.2202C26.6073 17.927 26.6285 17.6338 26.4803 17.4035C26.565 17.2569 26.5862 17.0474 26.565 16.8799C26.5438 16.7961 26.4592 16.8799 26.438 16.8799C26.2687 17.0265 26.2475 17.2569 26.1629 17.4453C26.0147 17.6338 25.9936 17.948 26.0782 18.1574L26.1417 18.2202H25.5703C25.7184 18.1364 25.4433 17.9689 25.5915 17.8223L25.8454 17.7804C25.9301 17.5919 26.1417 17.4663 26.1206 17.2359C26.2264 17.0893 26.3322 16.9218 26.2475 16.7333C26.1206 16.461 26.4592 16.1679 26.2052 15.9165C26.2264 15.8328 26.184 15.7281 26.0782 15.7281C25.9936 15.7071 25.9089 15.7281 25.9089 15.6234C25.9512 15.5605 26.0782 15.4768 26.0359 15.372C25.9724 15.2883 25.8878 15.372 25.8031 15.3511C25.7819 15.2254 26.0147 15.0998 25.8031 14.9951C25.6549 14.9741 25.5915 15.1417 25.4433 15.0788C25.3798 15.037 25.3375 14.9323 25.401 14.8694L25.1047 14.4925C25.0835 14.4506 24.9777 14.5134 24.9777 14.4506C24.9989 14.1574 24.6391 13.9898 24.6179 13.6967C24.5121 13.5919 24.5967 13.4035 24.4486 13.3197C24.3639 13.2569 24.2793 13.194 24.1523 13.2359C24.0253 13.0474 23.8772 12.8799 23.7079 12.7124C23.6655 12.6914 23.6232 12.7333 23.602 12.7542C23.6232 12.9008 23.7925 12.9846 23.7925 13.1312C23.7713 13.1312 23.7502 13.1312 23.729 13.1521C23.7502 13.2987 23.8772 13.4244 23.9618 13.5082C23.1576 12.9008 22.2052 12.5867 21.2105 12.4192C21.02 12.4192 20.8084 12.3354 20.6179 12.3982C20.6602 11.9584 20.6391 11.4558 20.6391 10.9951L20.5967 10.8904C20.8295 10.9951 21.0412 10.9323 21.2528 10.9741ZM21.6549 8.94273C23.7079 9.21498 25.528 10.0317 27.0729 11.4768L26.9036 11.5396C26.6285 11.8328 26.2899 12.0841 26.1417 12.4192C26.1206 12.3145 25.9724 12.2516 25.9301 12.1679C25.9089 11.8956 25.6338 11.6234 25.3798 11.4768C25.1893 11.4349 25.1258 11.1417 24.893 11.2254C24.6814 11.0579 24.4274 11.1836 24.237 11.2673V11.2883C23.2634 10.7438 22.184 10.4087 21.02 10.3249C20.9565 10.3249 20.9354 10.3668 20.8719 10.3668C20.9354 10.3249 20.893 10.1993 20.893 10.1364C20.8719 10.0946 20.8084 10.0317 20.7237 10.0736C20.7026 10.1155 20.6814 10.1574 20.6814 10.1993C20.7026 9.75948 20.7237 9.19403 20.6602 8.79613C20.9565 8.92178 21.3163 8.8799 21.6549 8.94273ZM22.6073 21.9898C23.0518 22.0317 23.4751 22.1364 23.8772 22.283C23.983 22.283 24.0888 22.283 24.1523 22.1993C24.1311 22.0317 24.3216 21.948 24.3004 21.7804C24.3851 21.6338 24.3216 21.4453 24.4486 21.3197C24.4698 21.1521 24.4486 20.9427 24.3216 20.8171C24.2158 20.7542 24.11 20.838 24.0042 20.859C23.8772 20.9427 23.9195 21.215 23.7079 21.1521C23.6655 21.215 23.5597 21.215 23.4962 21.194C23.4751 21.1731 23.4539 21.1731 23.4539 21.1312C23.602 21.0474 23.8772 21.1103 23.8983 20.859C24.0042 20.7542 24.1946 20.7961 24.3004 20.6914C24.3851 20.5658 24.4063 20.4611 24.5121 20.3563C24.5121 20.3145 24.5333 20.2516 24.5333 20.2097C24.5544 20.2726 24.5544 20.3773 24.6602 20.4192C24.7872 20.461 24.8295 20.3563 24.8719 20.2726C24.8719 20.2307 24.893 20.1679 24.9354 20.2097C25.0624 20.3145 25.2317 20.2307 25.3798 20.2307C25.5068 20.1888 25.6549 20.1679 25.7819 20.1679C25.6549 20.7333 25.3798 21.2359 25.0412 21.7385C24.9142 21.8851 24.8084 22.0527 24.6602 22.2202C24.6179 22.0946 24.6179 21.948 24.5121 21.8432L24.4486 21.8642C24.3639 22.0317 24.1946 22.1574 24.2158 22.3459C24.0888 22.5343 23.7925 22.3668 23.602 22.4715C23.3904 22.5343 23.2634 22.3249 23.0941 22.283C22.9036 22.1993 22.6708 22.1993 22.5015 22.0946C22.5438 22.0317 22.565 21.9898 22.6073 21.9898ZM24.0042 14.4925C23.729 14.7857 23.3904 15.0788 23.1576 15.393L23.1153 15.2883C22.438 14.7438 21.6761 14.4715 20.8296 14.3668L20.7026 14.3878V13.0265L20.6602 12.9218C21.2317 13.0056 21.7819 13.0893 22.311 13.2569C22.9671 13.4872 23.5809 13.8432 24.1523 14.304L24.2793 14.3459L24.0042 14.4925ZM26.1417 18.7857C26.0571 19.0579 26.0571 19.372 25.9936 19.6443C25.9724 19.6862 25.9724 19.749 25.9512 19.7909C25.8666 19.6234 25.7819 19.393 25.5915 19.2883C25.4221 19.2045 25.528 18.9741 25.3798 18.8694L25.2317 18.7228C25.4645 18.8275 25.8243 18.8066 26.1417 18.7857ZM25.2317 16.105C25.401 16.1469 25.5068 16.3354 25.6761 16.3773C25.8243 16.6076 25.8878 16.8799 25.9724 17.1312C25.8243 17.2778 25.8243 17.6129 25.528 17.571C25.4645 17.4035 25.6549 17.3197 25.6126 17.1521C25.6549 17.1103 25.7396 17.0893 25.7608 17.0056C25.7396 16.859 25.5491 16.8799 25.528 16.7333C25.4645 16.6495 25.3587 16.6495 25.274 16.6286C25.0835 16.5448 24.893 17.0265 24.8507 16.6286C24.9142 16.5867 24.9565 16.5029 24.893 16.4401C24.7237 16.3563 24.7026 16.126 24.5333 16.0213C24.2793 16.0213 24.0465 15.9165 23.8137 15.9794C23.6655 15.9375 23.4751 15.8328 23.3481 16.0003C23.3481 16.126 23.2634 16.2307 23.2422 16.3563C23.1788 16.3354 23.1364 16.2726 23.0941 16.2097C23.5385 15.7071 24.0676 15.2045 24.5333 14.7228L24.5544 14.66C24.7872 14.9532 25.0624 15.2464 25.2317 15.5605C25.2952 15.7699 24.9142 15.9794 25.2317 16.105ZM22.3534 20.9427C22.3534 21.1312 22.0782 21.1103 21.9512 21.2359C21.8878 21.215 21.9301 21.1312 21.9512 21.0893C22.0782 21.0265 22.1629 20.9218 22.3534 20.9427ZM21.9089 16.7542C21.8243 16.7752 21.7396 16.838 21.6549 16.7961C21.5703 16.7124 21.4645 16.5867 21.3163 16.5658C21.2105 16.5867 21.147 16.7124 21.0412 16.6495C21.2317 16.461 21.5491 16.4192 21.6973 16.1469C21.7396 16.0213 21.7819 15.8747 21.7608 15.749C21.7184 15.6862 21.6338 15.6234 21.5703 15.6862C21.4645 15.8537 21.2317 15.8956 21.1258 16.0631L20.7661 15.9375C20.7026 15.6024 20.7872 15.1836 20.7026 14.8904C20.893 14.9532 21.1047 14.9741 21.3163 15.016C21.8454 15.1417 22.311 15.393 22.7766 15.6652C22.6708 15.7071 22.565 15.8328 22.4803 15.9165C22.4803 16.0003 22.5862 15.9794 22.6073 16.0422L22.7131 16.0003C22.5015 16.3982 21.9724 16.3354 21.9089 16.7542ZM24.7661 24.6076C24.4909 24.3563 24.9354 24.1679 25.02 23.9375C24.9777 23.7071 24.7026 23.5605 24.5121 23.4977C24.4063 23.4349 24.4486 23.3302 24.4486 23.2464C24.5333 23.1626 24.6391 23.0788 24.6814 22.9532L24.7237 23.0579L25.3587 23.7071C25.3587 23.8537 25.3798 23.9794 25.528 24.0422C25.5915 24.0631 25.6761 24.0213 25.7396 24.0422H25.6973C25.4221 24.3354 25.1047 24.5658 24.7872 24.7961L24.7237 24.9008C24.6602 24.7752 24.8507 24.7124 24.7661 24.6076ZM25.9724 23.1417C25.8454 23.016 25.8454 22.7857 25.6126 22.7857C25.528 22.7857 25.5068 22.8485 25.5068 22.9113C25.5068 22.9532 25.528 22.9951 25.4856 23.016L25.02 22.6181C25.2317 22.5134 25.401 22.2202 25.5703 22.0108C25.9936 21.4244 26.2475 20.7542 26.4592 20.0841C26.5227 20.1469 26.6285 20.1469 26.692 20.105C26.7555 20.0422 26.7766 19.9375 26.7343 19.8747L26.5862 19.6652C26.6073 19.3511 26.692 19.0579 26.6497 18.7647L26.7555 18.8066C27.2211 18.8066 27.7079 18.8275 28.1735 18.7857L28.11 18.8694C27.983 20.6914 27.3481 22.3459 26.0571 23.6862C26.1206 23.4977 25.9512 23.3302 25.9724 23.1417ZM30.1417 17.6757C30.1629 17.8432 30.1206 18.0527 30.2264 18.1993L28.7449 18.2202C28.7026 18.2412 28.6602 18.2621 28.6179 18.2621L28.6602 18.1993C28.6391 17.0474 28.3216 16.0213 27.8772 15.0579C27.856 14.6181 27.4327 14.3249 27.2634 13.948C26.946 13.7176 26.8401 13.3406 26.4592 13.1312C26.3957 13.0474 26.3534 12.9218 26.2475 12.9008L26.4169 12.859C26.7766 12.5029 27.1576 12.1469 27.4327 11.77C28.9777 13.4872 29.9512 15.4139 30.1417 17.6757ZM29.6549 14.0946C27.983 10.5553 24.3004 8.31445 20.4486 8.31445C18.7555 8.3354 17.2105 8.71236 15.7925 9.40346C13.274 10.5972 11.2211 13.1731 10.5227 15.7281C9.40098 20.0422 10.9248 24.3982 14.6497 26.9323C17.3375 28.838 21.6126 29.194 24.6391 27.749C27.3269 26.6391 29.6126 23.8956 30.311 21.194C31.0094 18.9323 30.7131 16.126 29.6549 14.0946Z" fill="#8D8D8D"/>
<path d="M24.9775 10.911C24.9775 10.9739 24.9775 11.0157 25.0199 11.0576C25.2315 11.1414 25.2527 11.4346 25.5278 11.3718C25.6125 11.288 25.4855 11.1833 25.5066 11.0576C25.4643 10.9529 25.3797 10.911 25.2738 10.8691C25.1469 10.9948 25.0622 10.8063 24.9775 10.911Z" fill="#8D8D8D"/>
<path d="M20.8932 10.0526C21.1683 10.3877 21.634 10.1992 21.9726 10.1364C22.2265 10.2411 22.4593 10.1155 22.6287 9.96887V9.92698C22.4593 9.67568 22.1207 9.65473 21.8244 9.63379L21.0837 9.94793C21.0202 9.92698 20.9144 9.8851 20.872 9.96887C20.8509 10.0108 20.872 10.0317 20.8932 10.0526Z" fill="#8D8D8D"/>
</svg>
