<svg width="93" height="40" viewBox="0 0 93 40" fill="none" xmlns="http://www.w3.org/2000/svg">
<path d="M59.8522 15.5249H43.8522C43.5354 15.5249 43.377 15.7625 43.377 16.0001V17.2675C43.377 17.5843 43.6146 17.7427 43.8522 17.7427H55.8126V24.3962C55.4958 23.9209 55.0997 23.4457 54.7037 22.9704C53.2779 21.5447 51.773 20.8318 50.1888 20.8318C48.9215 20.8318 47.8918 21.4655 47.0205 22.5744C46.3076 23.5249 45.9116 24.6338 45.9116 25.6635C45.9116 26.6932 46.07 28.0398 46.8621 29.3071C47.8126 30.812 49.3968 31.2873 50.8225 31.2873C52.6443 31.2873 54.1492 30.02 54.1492 28.3566C54.1492 27.4061 53.674 26.614 52.8027 26.0596L51.9314 25.5843V27.0101C51.8522 27.4061 51.2185 27.9605 50.5057 27.9605C49.872 27.9605 49.3176 27.7229 48.9215 27.3269C48.6839 27.0893 48.5255 26.614 48.6047 26.2972C48.6047 25.8219 48.7631 25.4259 49.0799 25.0299C49.476 24.5546 49.872 24.317 50.5057 24.317C52.0898 24.317 53.4364 25.0299 54.5453 26.614C55.4166 27.9605 55.8918 29.2279 55.8918 30.6536V33.9803L58.268 35.4061C58.3473 35.4853 58.4265 35.4853 58.5057 35.4853C58.8225 35.4853 58.9809 35.2477 58.9809 35.0101V17.8219H59.9314C60.2482 17.8219 60.4067 17.5843 60.4067 17.3467V16.0794C60.4067 15.7625 60.169 15.5249 59.8522 15.5249Z" fill="#8D8D8D"/>
<path d="M91.852 15.5249H71.5748C71.2579 15.5249 71.0995 15.7626 71.0995 16.0002V18.218C69.1193 16.1586 67.3768 15.1289 65.7926 15.1289C64.2877 15.1289 63.0203 15.4457 61.9114 16.317C60.8817 17.1091 60.248 18.1388 60.248 19.3269C60.248 22.8913 64.2084 22.8121 65.2381 22.3368C65.3966 22.2576 65.6342 22.0992 65.8718 22.0992C66.6639 22.0992 66.9807 22.7329 66.9807 23.2873C66.9807 24.0794 65.7926 24.7923 64.3669 24.7923C63.5748 24.7923 63.0995 24.5546 62.7827 24.0794L62.149 23.1289L61.753 24.2378C61.6738 24.4754 61.5154 24.7923 61.5154 25.1883C61.5154 25.9804 61.9114 26.7725 62.7035 27.4853C63.4164 28.119 64.2877 28.4358 65.2381 28.4358C66.7431 28.4358 68.0104 27.8814 68.8025 26.7725C69.5154 25.9012 69.8322 24.8715 69.8322 23.6834C69.8322 23.0497 69.5946 22.3368 69.0401 21.5447C68.4065 20.5943 67.6144 20.119 66.7431 20.119C66.4263 20.119 66.0302 20.1982 65.6342 20.3566C65.4758 20.4358 65.1589 20.515 65.0797 20.515C64.9213 20.515 64.6837 20.4358 64.5253 20.1982C64.3669 20.0398 64.2084 19.8022 64.2084 19.4061C64.2084 18.5348 65.0005 17.6636 66.4263 17.6636H66.5055C67.456 17.6636 68.4065 18.1388 69.2778 19.0101C69.9906 19.723 70.5451 20.4358 71.0203 21.2279V33.822L73.3966 35.2477C73.4758 35.3269 73.555 35.3269 73.6342 35.3269C73.951 35.3269 74.1094 35.0893 74.1094 34.8517V17.822H77.753V28.8319L80.6045 30.02H80.7629C81.0005 30.02 81.2381 29.8616 81.2381 29.5447V29.4655C81.7134 26.218 83.1391 24.0002 85.5154 22.6537V23.2873C85.5154 23.7626 85.5154 24.9507 85.5946 25.5844C85.5946 25.9804 85.5946 26.218 85.6738 26.4556C85.6738 27.723 85.8322 29.624 86.2282 31.0497C87.0203 33.7428 88.3669 34.3764 89.3174 34.3764H89.3966C89.951 34.3764 90.4263 34.218 90.7431 33.9012C90.9015 33.7428 91.1391 33.4259 91.1391 32.8715C91.1391 32.3962 91.0599 32.0002 90.9015 31.6834L90.6639 31.2873L90.1886 31.3665C89.7134 31.5249 89.4758 31.5249 89.4758 31.4457H89.3966C89.2381 31.4457 89.2381 31.4457 89.1589 31.3665C89.0005 31.2873 88.6837 31.0497 88.4461 30.1784C88.2876 29.5447 88.2084 28.6735 88.2084 28.1982C88.2084 24.6339 88.9213 21.9408 90.1094 21.3863H90.1886C90.3471 21.3071 90.5055 21.1487 90.5055 20.9111C90.5055 20.8319 90.5055 20.7527 90.4263 20.6735V20.5943C89.8718 19.4853 88.6837 18.6933 87.0995 18.2972H86.7827C85.5154 18.5348 84.0104 19.4061 82.1094 20.9903C81.6342 21.3863 81.1589 21.7824 80.7629 22.1784V17.822H91.852C92.1688 17.822 92.3273 17.5844 92.3273 17.3467V16.0794C92.4065 15.7626 92.1688 15.5249 91.852 15.5249Z" fill="#8D8D8D"/>
<path d="M38.1493 21.3862C38.1493 21.9407 38.1493 22.4159 38.0701 22.8912C37.9117 25.109 37.3572 27.1684 36.486 29.0694C36.1691 29.8615 35.7731 30.5743 35.2978 31.2872C31.9711 36.5149 26.1097 40.0001 19.4563 40.0001C16.6048 40.0001 13.9117 39.3664 11.5355 38.2575C5.19883 35.3268 0.763184 28.8318 0.763184 21.3862C0.763184 14.0199 5.04041 7.68324 11.1394 4.67334C10.6642 5.307 10.1889 5.94067 9.79289 6.65354C9.79289 6.73275 9.71368 6.73275 9.71368 6.81195C9.47606 7.04958 9.23843 7.20799 9.00081 7.44562C8.68398 7.68324 8.44635 8.00007 8.12952 8.2377L7.97111 8.39611L7.81269 8.55453C7.73348 8.63374 7.65427 8.79215 7.49586 8.87136C7.33744 9.10898 7.09982 9.34661 6.9414 9.58423C6.14932 10.6139 5.51566 11.7228 5.04041 12.911C4.9612 12.9902 4.9612 13.1486 4.882 13.2278C4.80279 13.3862 4.80279 13.5446 4.72358 13.6238C4.72358 13.703 4.64437 13.7823 4.64437 13.8615C4.56516 14.0991 4.48596 14.2575 4.40675 14.4951C4.32754 14.6535 4.32754 14.812 4.24833 14.8912C4.24833 14.9704 4.16912 15.0496 4.16912 15.1288C4.16912 15.2872 4.08992 15.4456 4.08992 15.604L3.85229 17.0298C3.85229 17.1882 3.85229 17.2674 3.77308 17.4258V19.3268C3.77308 24.3961 6.07011 28.9902 9.79289 31.9209C12.6444 34.2179 16.2087 35.6436 20.0899 35.6436C23.6543 35.6436 26.9018 34.5347 29.5949 32.5545C31.5751 31.1288 33.1592 29.307 34.3473 27.1684C34.5058 26.8516 34.6642 26.6139 34.8226 26.2971C35.7731 24.3169 36.3275 22.1783 36.3275 19.8813V19.3268C36.3275 18.7723 36.3275 18.2971 36.2483 17.7426L36.3275 17.8219C36.5652 18.0595 36.8028 18.2179 37.0404 18.4555C37.278 18.0595 37.5157 17.7426 37.7533 17.3466C37.9117 18.0595 37.9909 18.7723 38.0701 19.5644C38.1493 20.2773 38.1493 20.8318 38.1493 21.3862Z" fill="#8D8D8D"/>
<path d="M21.674 6.41584L18.1889 0C12.4067 2.61386 8.44629 8.39604 8.44629 15.1287C8.44629 18.5347 9.47599 21.703 11.2186 24.3168C11.0602 23.4455 11.0602 22.5743 11.0602 21.6238C11.1394 14.7327 15.4958 8.87129 21.674 6.41584Z" fill="#5E5E5E"/>
<path d="M24.4466 9.5839C25.8724 9.18786 27.4565 9.02945 28.9615 9.02945C29.912 9.02945 30.9417 9.10865 31.813 9.26707L31.7338 6.41559L31.5754 0.712615C30.9417 0.633407 30.2288 0.554199 29.5159 0.554199C26.3476 0.554199 23.4169 1.5839 21.0407 3.24727L22.9417 6.73242C19.5357 7.92054 16.7635 10.2968 15.0209 13.3859C14.1496 14.8908 13.5159 16.6334 13.2783 18.4552C13.7536 17.5047 14.308 16.6334 14.9417 15.8413C17.2387 12.8314 20.5655 10.5344 24.4466 9.5839Z" fill="#8D8D8D"/>
<path d="M32.7633 6.33643L32.9217 10.376C31.5752 9.97999 30.2286 9.74237 28.7237 9.74237C25.9514 9.74237 23.3376 10.5344 21.0405 11.881C18.189 13.6236 15.9712 16.3958 14.8623 19.6434C15.9712 18.1384 17.3178 16.7919 18.9019 15.7622C21.1989 14.2572 23.9712 13.3859 26.9019 13.3859C29.1197 13.3859 31.1791 13.8612 33.0801 14.7325C34.5059 15.3661 35.7732 16.2374 36.8821 17.3463L39.0999 14.0196L41.9514 9.66316C39.4168 7.60375 36.2484 6.33643 32.7633 6.33643Z" fill="#5E5E5E"/>
<path d="M36.3274 19.4851V20.0395C36.3274 23.3663 34.9809 26.1385 34.8225 26.4554C34.664 26.7722 34.5056 27.0098 34.3472 27.3267C33.1591 29.4653 31.5749 31.287 29.5947 32.7128C26.9017 34.6138 23.6541 35.8019 20.0898 35.8019C16.2086 35.8019 12.565 34.4554 9.79275 32.0791C6.14919 29.0692 3.77295 24.5544 3.77295 19.4851V17.5841C3.77295 17.4257 3.77295 17.3465 3.85216 17.188L4.08978 15.7623C4.08978 15.6039 4.16899 15.4455 4.16899 15.287C4.16899 15.2078 4.2482 15.1286 4.2482 15.0494C4.3274 14.891 4.3274 14.7326 4.40661 14.6534C4.48582 14.4158 4.56503 14.1781 4.64424 14.0197C4.64424 13.9405 4.72344 13.8613 4.72344 13.7821C4.80265 13.6237 4.80265 13.4653 4.88186 13.3861C4.96107 13.3068 4.96107 13.1484 5.04028 13.0692C5.51552 11.8811 6.22839 10.7722 6.94127 9.74249C7.09968 9.50487 7.33731 9.26725 7.49572 9.02962C7.57493 8.95041 7.65414 8.792 7.81255 8.71279C7.89176 8.63358 7.89176 8.55437 7.97097 8.55437C8.05018 8.47517 8.05018 8.39596 8.12938 8.39596C8.36701 8.07913 8.68384 7.8415 9.00067 7.60388C9.2383 7.36625 9.47592 7.20784 9.71354 6.97021C9.71354 7.04942 9.63434 7.04942 9.63434 7.12863C9.63434 7.20784 9.55513 7.28705 9.55513 7.28705C8.60463 9.18804 7.97097 11.4851 7.73335 13.8613C7.65414 14.495 7.65414 15.1286 7.65414 15.8415C7.65414 24.396 12.6442 31.287 18.8225 31.287H19.4561C20.3274 31.287 21.1987 31.1286 22.07 30.9702C26.268 29.8613 29.3571 25.9801 29.3571 21.4653V21.2276C29.2779 18.5346 28.169 16.0791 26.3472 14.4158C27.6145 14.4158 28.8819 14.6534 30.07 14.9702C32.367 15.5247 34.4264 16.6336 36.2482 18.0593L36.3274 18.1385C36.2482 18.4554 36.3274 19.0098 36.3274 19.4851Z" fill="#5E5E5E"/>
<path d="M36.3278 19.485V20.0395C36.3278 23.5246 34.7437 26.5345 34.7437 26.5345C34.5853 26.8513 34.4268 27.089 34.2684 27.4058C33.0803 29.5444 31.4169 31.3662 29.4367 32.7919C26.6645 34.8513 23.3377 35.881 19.8526 35.881C16.0506 35.881 12.407 34.5345 9.47635 32.1583C5.67436 29.0692 3.45654 24.3959 3.45654 19.485C3.45654 14.5741 5.67436 9.90085 9.47635 6.81174L9.63476 6.65332C9.63476 6.73253 9.55555 6.73253 9.55555 6.81174C9.55555 6.89094 9.47635 6.89094 9.47635 6.97015C5.75357 10.0593 3.61496 14.5741 3.61496 19.485C3.61496 24.3959 5.75357 28.9107 9.55555 32.0791C12.407 34.4553 16.1298 35.7226 19.8526 35.7226C23.2585 35.7226 26.5853 34.6929 29.3575 32.6335C31.3377 31.2078 32.9219 29.386 34.11 27.2474C34.2684 26.9305 34.4268 26.6929 34.506 26.3761C34.506 26.3761 36.0902 23.4454 36.0902 19.9603V19.4058C36.0902 18.8513 36.0902 18.3761 36.011 17.8216V17.7424L36.0902 17.8216L36.1694 17.9008C36.3278 18.5345 36.3278 19.0098 36.3278 19.485Z" fill="#5E5E5E"/>
</svg>
