<svg width="170" height="40" viewBox="0 0 170 40" fill="none" xmlns="http://www.w3.org/2000/svg">
<path d="M14.9285 7.58691C14.9285 7.58691 9.24362 16.1377 12.6472 26.4213C12.6472 26.4213 14.7863 31.3212 18.5472 34.0374C18.5472 34.0374 12.6678 36.5437 8.53659 32.7279C4.40498 28.9138 6.66575 19.5699 8.55287 16.2353C10.4473 12.9093 14.9285 7.58691 14.9285 7.58691Z" fill="#5E5E5E"/>
<path d="M15.2372 5.06603C15.2372 5.06603 7.25513 4.98076 3.18137 10.0306C-0.893248 15.0604 -1.0068 22.3063 5.65339 27.8687C5.65339 27.8687 2.97397 18.3538 14.912 6.38753C20.7718 1.56518 24.7847 1.1341 25.8662 1.03255C25.8662 1.03255 26.3298 0.125839 25.2402 0.0157146C24.2233 -0.0815552 23.5767 0.304529 23.5767 0.304529C23.5767 0.304529 19.8321 1.85784 15.2372 5.06603Z" fill="#5E5E5E"/>
<path d="M50.157 34.057C49.5597 33.6422 49.1607 33.0971 48.9495 32.5568C48.8072 32.2071 48.7344 31.8493 48.7344 31.5159C48.7344 30.6739 48.7344 27.8767 48.7344 27.8767H50.4257C50.4257 27.8767 50.4257 30.6739 50.4257 31.5159C50.4257 31.6017 50.4462 31.7636 50.5199 31.9265C50.5846 32.097 50.6943 32.2804 50.849 32.4385C51.158 32.7479 51.6379 33.032 52.5489 33.0358C54.1262 33.0358 53.8177 33.0358 54.7441 33.0358C54.9395 33.0358 55.2403 32.9874 55.4927 32.849C55.7532 32.7153 55.9563 32.5199 56.0785 32.2881C56.1599 32.121 56.2121 31.9384 56.2121 31.6985C56.2121 30.1657 56.2121 30.7875 56.2121 30.0762C56.2121 29.9296 56.1834 29.7874 56.1269 29.6815C56.0785 29.592 56.0215 29.5311 55.9238 29.4866C55.8591 29.4536 55.7575 29.4253 55.5904 29.4253C54.8341 29.4253 54.3949 29.4253 54.1511 29.4253C54.0863 29.4253 54.0456 29.4253 54.0045 29.4253C53.9801 29.4377 53.9642 29.4497 53.9231 29.466C53.8335 29.5268 53.7204 29.6083 53.6064 29.8602C53.537 30.0269 53.4762 30.2874 53.4762 30.6735H51.7849C51.7849 30.1045 51.8783 29.6121 52.0445 29.2098C52.2155 28.8194 52.455 28.498 52.6997 28.2705C52.98 28.0309 53.2529 27.8844 53.4517 27.8274C53.5734 27.7623 53.7041 27.7383 53.834 27.7383C53.834 27.7383 54.0863 27.7383 55.5908 27.7383C55.9649 27.7383 56.315 27.8111 56.6235 27.9457C56.9329 28.0879 57.1844 28.2915 57.3798 28.5272C57.7702 29.0109 57.9043 29.5723 57.9086 30.0766C57.9086 30.7879 57.9086 30.1657 57.9086 31.6989C57.9086 32.1913 57.7869 32.6626 57.5833 33.065C57.3721 33.4558 57.0871 33.7849 56.7701 34.0291C56.1359 34.5172 55.4078 34.7327 54.745 34.7327C53.8181 34.7327 54.1271 34.7327 52.5497 34.7327C52.5412 34.7327 52.5373 34.7327 52.5335 34.7327C51.5719 34.7323 50.7672 34.4679 50.157 34.057Z" fill="#8D8D8D"/>
<path d="M48.5186 26.8729V25.1851H81.6828V26.8729H48.5186Z" fill="#8D8D8D"/>
<path d="M88.3459 26.8729V25.1851H143.581V26.8729H88.3459Z" fill="#8D8D8D"/>
<path d="M146.976 26.8729V25.1851H163.643V26.8729H146.976Z" fill="#8D8D8D"/>
<path d="M60.0383 34.6306V26.0996H61.7292V34.6306H60.0383Z" fill="#8D8D8D"/>
<path d="M67.8533 34.6306V26.0996H69.5531V34.6306H67.8533Z" fill="#8D8D8D"/>
<path d="M111.435 34.6306V26.0996H113.125V34.6306H111.435Z" fill="#8D8D8D"/>
<path d="M148.049 34.6306V26.0996H149.744V34.6306H148.049Z" fill="#8D8D8D"/>
<path d="M58.4601 32.2108C57.8992 31.967 57.3542 31.9263 57.0936 31.9263C57.0366 31.9263 56.9964 31.9383 56.9719 31.9383C56.9561 31.9383 56.9475 31.9383 56.9394 31.9383L56.8824 31.4382L56.7603 30.2552C56.7847 30.2552 56.8987 30.2466 57.0936 30.2466C57.5084 30.2466 58.2686 30.2873 59.1273 30.6451C59.9813 31.0029 60.9244 31.6984 61.5916 32.8814L60.1193 33.7067C59.6394 32.8699 59.0459 32.4594 58.4601 32.2108Z" fill="#8D8D8D"/>
<path d="M63.9577 34.4761C64.2997 34.0939 64.4458 33.6427 64.4539 32.9961C64.4539 32.2197 64.1857 31.2148 63.7387 30.1136C63.5592 29.6666 63.4744 29.2146 63.4744 28.7839C63.4782 27.7388 63.95 26.9092 64.3725 26.3526C64.8117 25.7917 65.2184 25.4785 65.2548 25.4536L66.2755 26.8077C66.2673 26.8077 66.2588 26.8163 66.2468 26.8321C66.2185 26.8522 66.1778 26.893 66.1208 26.9379C66.0068 27.0391 65.8603 27.2023 65.7141 27.381C65.4172 27.7632 65.1652 28.2714 65.1691 28.7839C65.1691 29.0072 65.2102 29.227 65.3075 29.479C65.7956 30.6865 66.1452 31.8499 66.1452 32.9961C66.1534 33.9315 65.8765 34.8871 65.2098 35.6164L63.9577 34.4761Z" fill="#8D8D8D"/>
<path d="M39.2681 34.838C38.3493 34.838 37.5768 34.5042 37.0073 34.0371C36.4464 33.5696 36.0886 32.9753 35.885 32.3985C35.7385 32.0206 35.6656 31.6461 35.6618 31.2759C35.6618 30.8208 35.6451 29.9749 35.6288 29.2632C35.6009 28.5557 35.5842 28.3891 35.5842 28.3848L37.276 28.4092C37.276 28.4173 37.3569 30.2633 37.3569 31.2754C37.3569 31.467 37.4345 31.8243 37.617 32.1496C37.8043 32.4787 38.0687 32.7761 38.4183 32.9427C38.6454 33.0644 38.9184 33.1458 39.2676 33.1458C39.6301 33.1458 40.0081 33.1583 40.3856 33.1583C40.8616 33.1583 41.3416 33.1253 41.7401 33.0319C42.1463 32.9264 42.4677 32.7761 42.7239 32.5198C42.9026 32.3373 43.0569 32.1213 43.1995 31.7841C43.3705 31.3449 43.4965 30.7184 43.4965 29.8404L43.4682 28.4298L45.1882 28.8523V29.8404C45.1882 30.9991 45.0173 31.9263 44.6517 32.6745C44.3021 33.4184 43.757 33.9553 43.1593 34.2839C42.7646 34.5038 42.346 34.6383 41.935 34.7236C41.3986 34.8294 40.8621 34.85 40.3856 34.85C39.9592 34.8504 39.5774 34.838 39.2681 34.838Z" fill="#8D8D8D"/>
<path d="M41.6347 31.2753C41.1226 31.2753 40.6834 31.178 40.3171 31.0315C39.9511 30.8811 39.6666 30.6737 39.4592 30.4337C39.0564 29.9744 38.9874 29.5309 38.9711 29.4251L38.9673 29.3766V26.5708H40.659V29.2262C40.659 29.2262 40.6749 29.2382 40.6749 29.2464C40.716 29.2991 40.7644 29.3728 40.9555 29.4623C41.0892 29.5232 41.3013 29.5677 41.6347 29.5677C42.3589 29.5596 42.7449 29.3119 43.0415 29.0313C43.3097 28.7669 43.4481 28.4584 43.4601 28.4172C43.4601 28.4091 43.4601 28.4091 43.4601 28.4091L43.7001 28.4982L43.4601 28.4168L45.0666 28.97C45.0421 29.0308 44.9282 29.3316 44.6518 29.7263C44.3917 30.1128 43.9443 30.5884 43.2647 30.9132C42.8174 31.1292 42.2646 31.2749 41.6463 31.2749H41.6347V31.2753Z" fill="#8D8D8D"/>
<path d="M133.927 35.4215C133.021 35.4215 132.243 35.1022 131.678 34.6309C131.109 34.1548 130.756 33.5695 130.537 32.9961C130.407 32.6139 130.325 32.2398 130.325 31.87C130.325 31.4064 130.312 30.573 130.28 29.8612C130.268 29.1495 130.243 28.556 130.243 28.556L131.936 28.499C131.936 28.499 132.016 30.8613 132.016 31.87C132.016 32.0569 132.098 32.4185 132.28 32.7399C132.467 33.0737 132.731 33.3664 133.078 33.5455C133.31 33.6595 133.578 33.7362 133.927 33.7362C134.372 33.7362 134.845 33.7563 135.31 33.7563C135.777 33.7563 136.228 33.7362 136.602 33.6423C136.994 33.5695 137.295 33.4349 137.522 33.2357C137.673 33.1058 137.798 32.943 137.912 32.7155C138.051 32.3984 138.16 31.9386 138.16 31.2757V30.3039H139.855V31.2757C139.855 32.2193 139.68 33.0038 139.336 33.6303C138.994 34.2731 138.468 34.7239 137.912 34.9835C137.543 35.1622 137.165 35.2762 136.777 35.34C136.274 35.4369 135.777 35.454 135.31 35.454C134.793 35.4544 134.306 35.4215 133.927 35.4215Z" fill="#8D8D8D"/>
<path d="M136.294 32.2885C135.732 32.2885 135.232 32.1342 134.845 31.89C134.456 31.6461 134.196 31.3209 134.016 31.0163C133.672 30.4223 133.635 29.8897 133.635 29.813L133.626 29.7886V26.5723H135.317V29.711C135.326 29.7192 135.326 29.7355 135.326 29.7436C135.346 29.8044 135.367 29.9064 135.399 29.9878C135.472 30.1747 135.586 30.3495 135.75 30.4511C135.862 30.5243 136.009 30.5732 136.294 30.5895C136.98 30.5732 137.395 30.4223 137.673 30.2475C137.953 30.0607 138.09 29.87 138.14 29.7963C138.156 29.7676 138.16 29.7599 138.16 29.7599L138.571 29.9754L138.156 29.7886L139.696 30.4922C139.658 30.565 139.441 31.0042 138.903 31.4396C138.368 31.8865 137.504 32.2893 136.317 32.2893C136.311 32.2885 136.301 32.2885 136.294 32.2885Z" fill="#8D8D8D"/>
<path d="M75.5539 34.838C74.6519 34.838 73.8712 34.5042 73.3098 34.0372C72.7494 33.5697 72.3826 32.9753 72.1718 32.3986C72.0372 32.0206 71.9644 31.6461 71.9644 31.2759H73.6595C73.6514 31.4674 73.7336 31.8248 73.9205 32.1501C74.0983 32.4791 74.367 32.7765 74.7166 32.9432C74.9446 33.0649 75.212 33.1463 75.5539 33.1463C75.9288 33.1463 76.3068 33.1587 76.6843 33.1587C77.1651 33.1587 77.6364 33.1257 78.0354 33.0323C78.4407 32.9269 78.7668 32.7765 79.0265 32.5203C79.1975 32.3377 79.3521 32.1218 79.4948 31.7845C79.6692 31.3453 79.7922 30.7189 79.7922 29.8409L79.7669 28.4097L81.4827 28.8527V29.8409C81.4827 30.9995 81.3048 31.9268 80.9539 32.675C80.5961 33.4188 80.0515 33.9558 79.458 34.2844C79.056 34.5042 78.6365 34.6388 78.2299 34.7241C77.6887 34.8299 77.1646 34.8505 76.6839 34.8505C76.2622 34.8505 75.8749 34.838 75.5539 34.838Z" fill="#8D8D8D"/>
<path d="M77.9324 31.2753C77.4165 31.2753 76.9777 31.178 76.6109 31.0315C76.2454 30.8811 75.9617 30.6737 75.7577 30.4337C75.343 29.9744 75.286 29.5309 75.2688 29.4251L75.262 29.3766V26.5708H76.9524V29.2177C76.9614 29.2262 76.9648 29.2301 76.9683 29.2464C77.0094 29.2991 77.0548 29.3728 77.2498 29.4623C77.383 29.5232 77.5952 29.5677 77.9324 29.5677C78.6523 29.5596 79.0353 29.3119 79.3357 29.0313C79.6048 28.7669 79.7381 28.4584 79.7582 28.4172C79.7582 28.4091 79.7582 28.4091 79.7582 28.4091L79.9986 28.4982L79.7582 28.4168L81.3565 28.97C81.336 29.0308 81.2301 29.3316 80.958 29.7263C80.6855 30.1128 80.2381 30.5884 79.5637 30.9132C79.1082 31.1292 78.5589 31.2749 77.9414 31.2749C77.9367 31.2749 77.9367 31.2749 77.9367 31.2749H77.9324V31.2753Z" fill="#8D8D8D"/>
<path d="M103.619 35.2572C102.761 35.2572 102.05 35.1021 101.48 34.7558C100.899 34.4152 100.528 33.886 100.32 33.3533C100.187 32.9874 100.113 32.6253 100.073 32.2637C100.016 31.7842 100.016 31.3124 100.016 30.8569H101.708C101.708 31.345 101.716 31.8245 101.773 32.1908C101.83 32.5769 101.927 32.8571 102.066 33.0358C102.154 33.1622 102.261 33.2676 102.432 33.3533C102.667 33.4673 103.034 33.5693 103.619 33.5693C104.26 33.5693 104.907 33.6589 105.488 33.6589C106.021 33.6589 106.47 33.5852 106.782 33.4103C107.092 33.2068 107.374 32.9103 107.611 32.1702C107.757 31.6779 107.846 30.9992 107.846 30.0963V29.1206H109.539V30.0963C109.539 31.231 109.409 32.1497 109.15 32.906C108.897 33.6417 108.489 34.2271 107.985 34.6144C107.648 34.8865 107.279 35.0485 106.912 35.1715C106.425 35.315 105.937 35.348 105.488 35.348C104.75 35.3484 104.082 35.2572 103.619 35.2572Z" fill="#8D8D8D"/>
<path d="M105.652 31.9384C105.091 31.9384 104.631 31.8608 104.237 31.7194C103.845 31.5849 103.537 31.3698 103.318 31.1538C102.863 30.7026 102.773 30.2308 102.761 30.1211L102.756 30.0603V28.9543C102.756 28.7388 102.797 28.4988 102.927 28.2631C103.057 28.0236 103.268 27.8565 103.468 27.7425C103.875 27.5518 104.223 27.5193 104.652 27.5026C104.939 27.4858 105.26 27.4858 105.636 27.4858C105.87 27.4858 106.139 27.4858 106.44 27.4858V29.1698C106.139 29.1698 105.871 29.1698 105.636 29.1698C105.221 29.1698 104.884 29.1737 104.642 29.2024C104.565 29.2024 104.455 29.247 104.448 29.3772V29.8692L104.455 29.885C104.487 29.9382 104.553 30.0273 104.813 30.1288C104.993 30.1897 105.257 30.2467 105.651 30.2467C106.414 30.2467 106.863 29.987 107.205 29.6939C107.529 29.409 107.724 29.0477 107.781 28.9012C107.802 28.8519 107.813 28.8356 107.813 28.8356L109.522 29.1369L109.408 29.3965C109.392 29.4372 109.278 29.7873 108.977 30.2304C108.676 30.649 108.196 31.1855 107.444 31.5437C106.952 31.7914 106.351 31.938 105.656 31.938L105.652 31.9384Z" fill="#8D8D8D"/>
<path d="M21.7876 32.1214C22.0726 32.1253 22.6943 32.0074 23.3045 31.7315C23.9147 31.4671 24.5326 31.0562 24.9632 30.5565C25.2482 30.2313 25.4513 29.8649 25.5447 29.4668C25.5978 29.247 25.6223 29.0315 25.6223 28.8284C25.6304 28.1573 25.3699 27.5193 25.0939 27.0394C24.8257 26.5719 24.5489 26.2749 24.5163 26.2385C24.5163 26.2347 24.5163 26.2347 24.5163 26.2347L24.7443 26.0187L24.5163 26.2385L25.7277 25.3442C25.7607 25.3845 26.1343 25.4702 26.529 26.1327C26.915 26.7789 27.3131 27.7066 27.3178 28.8284C27.3178 29.1536 27.281 29.5243 27.1914 29.8654C26.927 30.9272 26.2804 31.74 25.5408 32.3378C24.809 32.9274 23.9631 33.3341 23.2072 33.5736C22.6947 33.7279 22.223 33.8174 21.7876 33.8174V32.1214Z" fill="#8D8D8D"/>
<path d="M29.0217 34.5374V28.4458H30.7169V34.5374H29.0217Z" fill="#8D8D8D"/>
<path d="M21.7876 34.2V32.5078H30.2372V34.2H21.7876Z" fill="#8D8D8D"/>
<path d="M32.8683 32.1212L32.6202 32.0278C32.624 32.0197 32.6283 32.0072 32.6326 31.9785C32.6485 31.9383 32.6652 31.8693 32.6772 31.7917C32.7136 31.6212 32.7462 31.3975 32.7462 31.1661C32.7462 30.9548 32.7136 30.759 32.6489 30.6249C32.5919 30.4912 32.5349 30.4218 32.4051 30.3369C32.3117 30.2877 32.0061 30.1497 31.7705 30.1334C31.0386 30.0601 30.4854 30.1574 30.1357 30.1574L30.3393 30.1287C29.9412 30.1206 29.7621 30.1493 29.7377 30.1655V30.1493L29.7458 30.1574L29.6485 29.8322L29.5183 29.4782L28.9492 28.6812C29.112 28.5715 29.25 28.527 29.4493 28.4982C29.6528 28.458 29.9249 28.4297 30.3397 28.4297C30.7549 28.4297 31.324 28.4584 32.1047 28.527C32.5195 28.5634 32.8979 28.6812 33.2184 28.8483C33.5522 29.0313 33.808 29.2837 33.9914 29.5519C34.3612 30.1051 34.4383 30.6986 34.4383 31.1665C34.4345 31.9387 34.2429 32.5124 34.2271 32.5566L32.8683 32.1212Z" fill="#8D8D8D"/>
<path d="M25.5002 39.1947C25.0897 38.6908 24.9226 38.0973 24.9226 37.512C24.9226 37.0565 25.0242 36.5928 25.2478 36.1699C25.4591 35.7632 25.8049 35.3643 26.2685 35.1265C26.5856 34.9679 26.9434 34.8702 27.3256 34.8702C27.8257 34.8702 28.387 34.899 28.9724 34.9842C28.9724 34.4237 28.9724 33.9927 28.9724 33.9927H30.6722C30.6722 33.9927 30.6722 34.647 30.6722 35.4217C30.7536 35.4547 30.8432 35.4864 30.9323 35.5276C32.2208 36.0799 33.4939 37.1134 34.4165 38.8369L32.9326 39.642C32.2697 38.4379 31.4932 37.7305 30.6718 37.284C30.6718 37.3328 30.6718 37.365 30.6718 37.422C30.6718 37.7228 30.6431 38.0647 30.5128 38.4384C30.3791 38.7975 30.1186 39.1788 29.7364 39.4226C29.484 39.6018 29.1913 39.7312 28.8747 39.8211C28.4307 39.9428 27.9268 39.9998 27.3252 39.9998C27.3171 39.9998 27.3046 39.9998 27.2965 39.9998C26.5655 39.9998 25.8987 39.6742 25.5002 39.1947ZM27.3261 36.5688C27.2039 36.5688 27.1187 36.5928 27.0493 36.6164C26.9721 36.6652 26.9074 36.7304 26.8419 36.8122C26.7039 36.9661 26.6143 37.2429 26.6143 37.5115C26.6143 37.7712 26.6953 37.991 26.7973 38.0973C26.907 38.2194 27.0047 38.2923 27.3261 38.3081C27.8831 38.3081 28.2735 38.2434 28.501 38.1701C28.7367 38.0883 28.8185 38.015 28.8588 37.9585C28.8952 37.9186 28.9158 37.8856 28.9325 37.8123C28.9565 37.7305 28.9809 37.5848 28.9728 37.4215C28.9728 37.2347 28.9728 36.9909 28.9728 36.6982C28.4196 36.6001 27.8548 36.5684 27.3381 36.5684C27.3299 36.5688 27.3299 36.5688 27.3261 36.5688Z" fill="#8D8D8D"/>
<path d="M21.8367 26.8729V25.1851H44.725V26.8729H21.8367Z" fill="#8D8D8D"/>
<path d="M71.3091 30.1209C71.3091 29.71 71.3978 29.2708 71.5983 28.8521C71.7967 28.4579 72.1224 28.0753 72.586 27.8314C72.8992 27.6733 73.2523 27.5752 73.6397 27.5752C74.9111 27.5752 75.8019 27.5752 75.8019 27.5752V29.2793C75.8019 29.2793 74.9111 29.2793 73.6397 29.2793C73.512 29.2793 73.4392 29.2991 73.3706 29.3316C73.3093 29.3642 73.2523 29.4169 73.1919 29.4944C73.0779 29.6367 72.9927 29.905 73.0004 30.1205C73.0004 30.2306 73.0175 30.3279 73.0334 30.3729L71.4475 30.9702C71.3455 30.6904 71.3091 30.4097 71.3091 30.1209Z" fill="#8D8D8D"/>
<path d="M88.6843 34.5894V32.9062H98.0282V34.5894H88.6843Z" fill="#8D8D8D"/>
<path d="M96.8118 34.5897V26.1606H98.5078V34.5897H96.8118Z" fill="#8D8D8D"/>
<path d="M88.2903 32.7155L96.9743 26.3921L98.0031 27.7342L88.7119 34.6146L88.3666 32.9674L88.2903 32.7155Z" fill="#8D8D8D"/>
<path d="M122.216 37.1369V35.437H126.734V37.1369H122.216Z" fill="#8D8D8D"/>
<path d="M136.787 28.381C135.859 27.5716 135.652 26.7305 135.636 26.6083L137.295 26.2745L136.957 26.3482L137.295 26.2544C137.295 26.2544 137.295 26.275 137.302 26.2831C137.311 26.3114 137.335 26.3769 137.374 26.4536C137.461 26.6126 137.611 26.8521 137.901 27.1088C138.466 27.6003 139.591 28.1861 141.922 28.1985C142.442 28.1985 143.016 28.1578 143.658 28.0884L143.84 29.7677C143.146 29.8529 142.507 29.8855 141.922 29.8855C141.913 29.8855 141.902 29.8855 141.897 29.8855C139.295 29.8851 137.701 29.1819 136.787 28.381Z" fill="#8D8D8D"/>
<path d="M141.043 32.5407C141.043 31.3452 141.43 30.3369 141.815 29.6128C142.198 28.8967 142.572 28.4584 142.597 28.4297L143.882 29.5314C143.882 29.5314 143.882 29.5314 143.882 29.5352C143.873 29.5438 143.857 29.5554 143.848 29.5721C143.816 29.6085 143.775 29.6736 143.718 29.7422C143.609 29.905 143.458 30.1287 143.313 30.4094C143.016 30.9703 142.732 31.7347 142.734 32.5403C142.734 33.2066 142.905 33.9021 143.459 34.6459L142.097 35.6564C141.327 34.6305 141.036 33.5164 141.043 32.5407Z" fill="#8D8D8D"/>
<path d="M148.049 25.7706C148.049 25.7706 148.049 25.2586 148.049 24.5425C148.049 24.1929 148.096 23.7781 148.288 23.3556C148.468 22.9408 148.826 22.502 149.361 22.253C149.712 22.0825 150.115 22.0054 150.566 22.0054C151.94 22.0054 163.066 22.0054 163.066 22.0054V23.7009C163.066 23.7009 151.94 23.7009 150.566 23.7009C150.313 23.7009 150.174 23.7494 150.076 23.7781C149.992 23.8389 149.939 23.8715 149.894 23.9323C149.801 24.0506 149.737 24.3026 149.744 24.5425C149.744 25.2586 149.744 25.7706 149.744 25.7706H148.049Z" fill="#8D8D8D"/>
<path d="M151.708 33.2073C151.553 32.7604 151.403 32.1708 151.403 31.4834C151.403 31.1664 151.437 30.8326 151.526 30.4992C151.697 29.8526 152.143 29.3889 152.663 29.068C153.191 28.7595 153.811 28.5718 154.474 28.5718C155.062 28.5718 155.689 28.7269 156.254 29.0967C156.817 29.4502 157.295 30.0278 157.6 30.7678L156.081 31.8862C155.948 31.0687 155.591 30.6911 155.336 30.5163C155.071 30.3492 154.777 30.2639 154.474 30.2639C154.137 30.2639 153.786 30.3612 153.542 30.524C153.29 30.6744 153.176 30.8454 153.16 30.9268C153.112 31.1055 153.096 31.2928 153.096 31.4839C153.082 32.2642 153.485 33.0976 153.511 33.1465L153.486 33.1589L152.023 33.952C152.004 33.9148 151.854 33.6307 151.708 33.2073Z" fill="#8D8D8D"/>
<path d="M156.071 32.0075C156.071 31.0888 156.372 30.2553 156.926 29.6374C157.47 29.0311 158.268 28.645 159.138 28.645C159.17 28.645 159.218 28.657 159.259 28.657C160.253 28.702 161.032 29.1369 161.554 29.5234C162.073 29.9177 162.358 30.2836 162.394 30.32L161.048 31.3489L161.399 31.0887L161.048 31.357C161.048 31.357 161.048 31.357 161.048 31.3489C161.045 31.345 161.041 31.345 161.025 31.3326C161.009 31.3129 160.984 31.2756 160.934 31.2272C160.845 31.138 160.715 31.0035 160.538 30.8655C160.187 30.6131 159.724 30.3736 159.191 30.3487C159.161 30.3487 159.154 30.3487 159.138 30.3487C158.735 30.3487 158.43 30.4991 158.195 30.7674C157.947 31.0318 157.772 31.4551 157.772 32.0075C157.772 32.2067 157.792 32.4227 157.853 32.6626L156.195 33.0363C156.119 32.6871 156.119 32.2641 156.071 32.0075Z" fill="#8D8D8D"/>
<path d="M161.073 34.7323V26.1772H162.756V34.7323H161.073Z" fill="#8D8D8D"/>
<path d="M116.566 26.2744C115.308 27.4339 114.565 29.0965 114.565 30.8572C114.565 31.3209 114.622 31.7965 114.722 32.2679C115.11 33.9519 116.158 35.3235 117.513 36.1775L118.406 34.7364C117.411 34.122 116.663 33.1176 116.374 31.8942C116.297 31.5398 116.255 31.1863 116.255 30.8568C116.255 28.767 117.686 26.8923 119.801 26.4008L116.566 26.2744Z" fill="#8D8D8D"/>
<path d="M89.883 26.4011C87.7687 26.8926 86.338 28.7673 86.338 30.8571C86.338 31.1862 86.3744 31.5402 86.4519 31.8945C86.7412 33.1179 87.4932 34.1223 88.4933 34.7368L87.5943 36.1778C86.2398 35.3238 85.1986 33.9518 84.8091 32.2682C84.6951 31.7964 84.6462 31.3212 84.6462 30.8576C84.6462 29.0968 85.3948 27.4343 86.6431 26.2747C87.3788 25.5309 88.3464 25.1851 88.3464 25.1851L89.883 26.4011Z" fill="#8D8D8D"/>
<path d="M118.577 34.5894V32.9062H127.917V34.5894H118.577Z" fill="#8D8D8D"/>
<path d="M126.698 34.5897V26.1606H128.388V34.5897H126.698Z" fill="#8D8D8D"/>
<path d="M118.174 32.7155L126.86 26.3921L127.894 27.7342L118.602 34.6146L118.256 32.9674L118.174 32.7155Z" fill="#8D8D8D"/>
<path d="M166.197 29.1531C165.725 29.1531 165.347 28.7671 165.347 28.3073V25.8922C165.347 25.4333 165.726 25.0464 166.197 25.0464H168.596C169.068 25.0464 169.448 25.4333 169.448 25.8922V28.3073C169.448 28.7671 169.067 29.1531 168.596 29.1531H166.197ZM168.011 27.7138V26.4943H166.785V27.7138H168.011Z" fill="#8D8D8D"/>
<path d="M166.197 34.4886C165.725 34.4886 165.347 34.1026 165.347 33.6308V31.2316C165.347 30.7598 165.726 30.3857 166.197 30.3857H168.596C169.068 30.3857 169.448 30.7598 169.448 31.2316V33.6308C169.448 34.1026 169.067 34.4886 168.596 34.4886H166.197ZM168.011 33.0365V31.8251H166.785V33.0365H168.011Z" fill="#8D8D8D"/>
<path d="M85.4762 19.8345H78.1235V23.0345H85.4762V19.8345Z" fill="#5E5E5E"/>
<path d="M62.5753 19.8345H55.2073V23.0345H62.5753V19.8345Z" fill="#5E5E5E"/>
<path d="M21.7512 6.51749H31.03L29.3468 6.53806C29.3468 6.53806 29.3468 10.7061 29.3468 12.0109C27.5861 14.036 22.5075 11.552 21.7512 9.92965C21.7512 11.4174 21.7512 12.3121 21.7512 14.1212C31.3878 20.2942 33.1403 10.8364 37.8371 11.1856C37.8371 11.4663 37.8371 11.6655 37.8371 11.6655L28.7979 17.7404V21.6153H41.3988V16.8817C41.3988 15.4303 41.3988 14.048 41.3988 13.4219C43.7856 11.1852 46.8232 14.0355 42.8549 14.4263C43.2003 15.2675 43.4321 16.0405 44.05 17.4228C52.2472 14.3282 47.136 7.65174 41.4678 9.92922C41.4678 8.36348 41.4678 6.51706 41.4678 6.51706H53.6707C53.6707 6.51706 60.0583 12.0841 49.7593 15.5319C49.7593 16.8169 49.7593 18.7161 49.7593 18.7161H66.6174V12.9703V6.51706H68.439V18.6993H71.8948V6.53763H86.1956V7.08654L73.8715 15.4462V18.7156H90.5351V12.9699V6.49264H94.7309V3.52441H21.7512V6.51749ZM87.3697 12.9707V14.9144H80.4661L87.3697 10.6371V12.9707ZM58.4356 6.53806H63.1851V12.9707V15.5323C63.1851 15.5323 58.9644 15.5323 56.9067 15.5323C61.331 11.255 58.4356 6.53806 58.4356 6.53806ZM39.5811 16.8821V18.3745H33.3559L39.5811 14.9144V16.8821ZM38.1868 7.86342C33.9494 7.51376 34.1812 9.55514 32.3558 9.90865C32.3558 8.4976 32.3558 6.65161 32.3558 6.51706H38.2275C38.2271 6.51749 38.1868 7.08697 38.1868 7.86342Z" fill="#5E5E5E"/>
</svg>
