<svg width="185" height="40" viewBox="0 0 185 40" fill="none" xmlns="http://www.w3.org/2000/svg">
<path d="M20.4479 0C9.40753 0 0.448242 8.95929 0.448242 19.9997C0.448242 31.0401 9.40813 40 20.4479 40C31.4889 40 40.4476 31.0401 40.4476 19.9997C40.4476 8.95929 31.4889 0 20.4479 0Z" fill="#5E5E5E"/>
<path d="M20.4461 0.850098C9.87553 0.850098 1.29834 9.42664 1.29834 19.9979C1.29834 30.5691 9.87553 39.1523 20.4461 39.1523C31.0173 39.1523 39.5993 30.5691 39.5993 19.9979C39.5993 9.42664 31.0168 0.850098 20.4461 0.850098ZM20.4516 1.2945C20.5622 1.2945 20.6777 1.32955 20.7672 1.39425C20.8648 1.46387 20.9383 1.56212 20.9776 1.6754V1.68085L20.9836 1.6875L21.6215 4.00439C29.9254 4.60659 36.4861 11.5416 36.4861 19.9978C36.4861 22.4937 35.9135 24.859 34.8947 26.9679L36.5393 28.6246L36.5447 28.63L36.5508 28.636C36.6318 28.7309 36.6747 28.8404 36.685 28.9516C36.6965 29.0647 36.6741 29.1832 36.6155 29.2847C36.5576 29.3853 36.4697 29.4653 36.364 29.5132C36.2581 29.5623 36.1394 29.5766 36.0248 29.5543H36.0066L33.7478 28.963C30.8638 33.2304 25.9784 36.0383 20.4468 36.0383C14.9139 36.0383 10.0333 33.2304 7.14988 28.963L4.89768 29.5603H4.87954C4.75319 29.5833 4.63768 29.5579 4.54033 29.5132C4.43273 29.4636 4.34559 29.3838 4.28884 29.2847C4.23379 29.1903 4.20718 29.0707 4.21928 28.9582C4.22893 28.8464 4.27189 28.7369 4.35354 28.6414L4.35958 28.636L4.36563 28.63L6.00418 26.9739C4.98298 24.8644 4.41223 22.4967 4.41223 19.9978C4.41223 11.5374 10.9742 4.60054 19.2829 4.00439L19.9087 1.6923L19.9142 1.6802V1.6748C19.9541 1.5617 20.026 1.46375 20.1246 1.39365C20.2254 1.3217 20.3403 1.2945 20.4516 1.2945ZM20.4516 1.5285C20.3832 1.5285 20.3137 1.54785 20.2581 1.58715C20.2014 1.62777 20.1587 1.68501 20.136 1.75095L18.7429 6.90054C18.7078 7.00089 18.6927 7.11699 18.7254 7.21734C18.7586 7.31769 18.8203 7.40294 18.9067 7.46219C19.157 7.63509 19.2508 7.95979 19.3693 8.27594C19.4872 8.59099 19.5059 8.86304 19.4219 9.18899C19.3385 9.51544 19.145 9.81234 18.8892 10.0312C18.4303 10.4248 18.0228 10.9007 17.7658 11.4587C17.5083 12.0181 17.4212 12.616 17.4212 13.2212V14.7074L10.2225 10.5524L9.42683 11.9212L17.4211 16.5327V18.2057L15.9809 19.037L7.98653 14.4196L7.19023 15.7945L14.3883 19.9555L13.101 20.6992C12.5774 21.0009 12.1046 21.3789 11.7491 21.8807C11.3929 22.3825 11.1868 22.9775 11.0762 23.5725C11.0139 23.9026 10.8543 24.2133 10.6136 24.4504C10.373 24.6856 10.1269 24.7974 9.79438 24.8531C9.46243 24.9087 9.13778 25.0012 8.86388 24.8707C8.76903 24.8254 8.6617 24.8132 8.55913 24.8362C8.45573 24.8568 8.35293 24.9124 8.28403 24.9935L4.52753 28.7911C4.48274 28.8431 4.45738 28.9114 4.45073 28.9792C4.44348 29.0463 4.45799 29.1073 4.49124 29.1666C4.5254 29.2254 4.57637 29.2725 4.63759 29.3021C4.69984 29.3299 4.76999 29.342 4.83709 29.3304L9.99813 27.9609C10.1021 27.9416 10.2085 27.8938 10.2793 27.8146C10.3488 27.7354 10.3935 27.6392 10.4026 27.5341C10.4262 27.2306 10.6614 26.9917 10.876 26.7323C11.0907 26.4717 11.318 26.3188 11.6427 26.2293C11.9674 26.1386 12.3138 26.1592 12.6312 26.2704C13.202 26.4705 13.8211 26.5847 14.4342 26.5267C15.0461 26.4705 15.6078 26.251 16.1308 25.9486L17.4187 25.2043V33.5142H19.0046V24.2919L20.4502 23.4551L21.8898 24.2859V33.5142H23.4818V25.2043L24.763 25.9486C25.2872 26.2497 25.8531 26.4705 26.4656 26.5267C27.0787 26.5847 27.6979 26.4644 28.2686 26.2636C28.586 26.1523 28.9385 26.1324 29.2632 26.2231C29.5867 26.3137 29.8038 26.4716 30.0184 26.7322C30.2318 26.9916 30.4737 27.2256 30.4973 27.5279C30.5063 27.6331 30.5499 27.7298 30.6206 27.809C30.6908 27.8882 30.7923 27.9523 30.8957 27.9729L36.0628 29.3254C36.1299 29.3375 36.2006 29.3303 36.2623 29.3024C36.3239 29.2732 36.375 29.2257 36.4086 29.1664C36.4418 29.1083 36.4551 29.0418 36.4491 28.9735C36.4424 28.9052 36.417 28.8375 36.3729 28.7861L32.6098 24.9999C32.5415 24.9195 32.4435 24.8518 32.3408 24.8312C32.2374 24.8094 32.1316 24.8198 32.036 24.8656C31.7615 24.9962 31.4381 24.9098 31.1061 24.8542C30.7736 24.7973 30.5275 24.6801 30.2869 24.4442C30.0463 24.2084 29.8872 23.8976 29.8244 23.5675C29.7131 22.9714 29.5069 22.3765 29.1514 21.8758C28.7959 21.3727 28.3177 21.0016 27.7941 20.6993L26.5068 19.9556L33.7103 15.7952L32.914 14.4256L24.9203 19.0432L23.4801 18.2118V16.5382L31.4744 11.9274L30.6787 10.5519L23.4807 14.7068V13.2201C23.4807 12.6155 23.3876 12.0175 23.13 11.4583C22.8724 10.8996 22.4594 10.4244 22.0005 10.0308C21.7442 9.81124 21.5579 9.51504 21.4739 9.18849C21.3899 8.86204 21.4141 8.59119 21.532 8.27549C21.6499 7.95989 21.7327 7.63399 21.983 7.46169C22.0701 7.40189 22.1372 7.31664 22.1705 7.21624C22.2037 7.11649 22.2056 6.99979 22.1705 6.90064L20.7545 1.7505C20.7315 1.6864 20.6868 1.62595 20.6317 1.586C20.5794 1.5479 20.5162 1.52773 20.4516 1.5285ZM20.4516 11.483C20.8295 11.483 21.2019 11.6371 21.4698 11.9044C21.7376 12.1723 21.8912 12.5453 21.8912 12.9232V15.6265L20.4516 16.4578L19.0059 15.6204V12.9225C19.0059 12.5446 19.1601 12.1722 19.4273 11.9044C19.6952 11.6365 20.0737 11.483 20.4516 11.483ZM20.4516 18.2892L21.8912 19.1199V20.7941L20.4576 21.6243L19.0066 20.788V19.126L20.4516 18.2892ZM15.975 20.8703L17.42 21.7077V23.3807L15.085 24.7272C14.7579 24.9158 14.3564 24.9642 13.9906 24.8675C13.6248 24.7696 13.3013 24.5217 13.1127 24.1946C12.9234 23.8682 12.8739 23.4648 12.9718 23.1008C13.0698 22.7344 13.3116 22.4116 13.6393 22.2229L15.975 20.8703ZM24.9228 20.8703L27.2633 22.2229C27.591 22.4115 27.8383 22.7283 27.9362 23.0942C28.0348 23.4599 27.9731 23.8675 27.7839 24.194C27.5952 24.5205 27.2772 24.7635 26.9114 24.8615C26.5468 24.9583 26.1447 24.9086 25.8176 24.72L23.482 23.3741V21.7005L24.9228 20.8703Z" fill="#8D8D8D"/>
<path d="M43.7537 3.1961L51.1301 25.72V36.7217H58.4079V25.72L65.3683 3.1961H58.7894L54.6562 17.8328L50.6415 3.1961H43.7537ZM89.1837 3.1961V36.7218H95.2371V14.9796L98.7065 36.7218H103.277L106.74 14.9796V36.7218H112.907V3.19615H103.663L101.026 19.1442L98.4858 3.19615L89.1837 3.1961ZM140.986 3.1961V36.7218H147.734V22.5918H153.482V36.7218H160.068V3.19615H153.482V16.5335H147.734V3.1961H140.986ZM169.655 3.18945L163.824 36.7206H170.405L171.702 28.5298H176.745L178.016 36.7206H184.654L178.821 3.18945H169.655ZM174.279 10.5428L175.994 22.6733H172.491L174.279 10.5428ZM122.398 3.18945L116.568 36.7206H123.148L124.446 28.5298H129.489L130.759 36.7206H137.397L131.565 3.18945H122.398ZM127.022 10.5428L128.738 22.6733H125.234L127.022 10.5428ZM70.6224 3.18945L64.7914 36.7206H71.3722L72.6691 28.5298H77.7122L78.9825 36.7206H85.6207L79.7891 3.18945H70.6224ZM75.246 10.5428L76.9625 22.6733H73.4581L75.246 10.5428Z" fill="#5E5E5E"/>
</svg>
