<svg width="26" height="24" viewBox="0 0 26 24" fill="none" xmlns="http://www.w3.org/2000/svg">
<path d="M13.8067 20.9121C13.8067 20.1157 13.7965 19.3193 13.8087 18.5229C13.8291 17.2166 14.3791 16.1684 15.4776 15.4738C16.6997 14.7012 17.951 13.9713 19.224 13.2869C19.5838 13.0934 19.7216 12.8687 19.818 12.5163C20.2268 11.0261 20.6518 9.53987 21.0802 8.05436C21.2995 7.29327 21.9676 6.82819 22.7639 6.85671C23.4728 6.88183 24.1198 7.39375 24.2284 8.13651C24.2861 8.52961 24.4273 8.79236 24.701 9.06462C25.0764 9.43803 25.1837 9.94113 25.0486 10.4564C24.4586 12.703 23.8564 14.9469 23.2528 17.1902C23.1469 17.5853 22.9092 17.9017 22.6037 18.1719C21.7476 18.9303 20.9009 19.6982 20.0367 20.447C19.6632 20.7709 19.4833 21.1531 19.4935 21.6467C19.5064 22.2652 19.4976 22.8837 19.4962 23.5022C19.4955 23.8234 19.3462 23.9999 19.0834 23.9952C18.8302 23.9911 18.6869 23.8193 18.6862 23.5124C18.6849 22.8518 18.6917 22.1905 18.6842 21.5299C18.6767 20.8686 18.932 20.333 19.4222 19.8984C20.2716 19.1455 21.1155 18.3864 21.9696 17.6389C22.2541 17.3898 22.4374 17.0971 22.5345 16.7305C23.0898 14.6319 23.6568 12.5367 24.2135 10.4381C24.2535 10.286 24.2807 10.117 24.2576 9.96489C24.1999 9.59012 23.8801 9.31515 23.5291 9.30021C23.1537 9.28391 22.7993 9.52358 22.6893 9.90718C22.4808 10.6296 22.2901 11.3567 22.0952 12.0825C21.9329 12.6861 21.77 13.2897 21.6186 13.8966C21.5873 14.0215 21.5806 14.1655 21.6084 14.2904C21.7666 14.9958 21.4977 15.6945 20.8758 16.0679C20.1073 16.5295 19.3272 16.9709 18.5491 17.4162C18.3088 17.5541 18.0718 17.497 17.951 17.2913C17.824 17.0754 17.8966 16.8473 18.1553 16.6966C18.8933 16.2668 19.6354 15.8438 20.3734 15.4134C20.7767 15.1785 20.9295 14.7955 20.7869 14.4058C20.6049 13.9075 20.0645 13.7262 19.5757 14.01C18.7053 14.5151 17.8389 15.0271 16.9706 15.5363C16.6786 15.7074 16.3867 15.8778 16.0954 16.0495C15.1137 16.6287 14.6282 17.4977 14.6221 18.6295C14.6133 20.2481 14.6187 21.866 14.6221 23.4846C14.6221 23.6835 14.5916 23.8553 14.3947 23.9537C14.1102 24.0956 13.8121 23.8987 13.8108 23.5559C13.8067 22.6746 13.8094 21.7934 13.8094 20.9121H13.8067ZM23.4476 8.46444C23.4252 8.08355 23.248 7.83574 22.9255 7.71828C22.4774 7.55534 21.994 7.83981 21.844 8.36395C21.548 9.40273 21.2581 10.4435 20.9641 11.483C20.8113 12.0248 20.6565 12.5666 20.5017 13.1131C20.6504 13.1824 20.776 13.2408 20.9104 13.3032C20.9362 13.2156 20.9587 13.143 20.9783 13.0697C21.2818 11.9454 21.5772 10.8183 21.8908 9.69739C22.0708 9.05579 22.5155 8.67015 23.155 8.50721C23.2507 8.48277 23.3506 8.47734 23.4476 8.46376V8.46444Z" fill="#7E76FF"/>
<path d="M12.179 20.9056C12.179 21.7699 12.1796 22.6342 12.179 23.4978C12.179 23.821 12.0316 23.9968 11.7696 23.9941C11.5075 23.9914 11.369 23.8189 11.3683 23.4896C11.3683 21.905 11.3629 20.321 11.3697 18.7364C11.3751 17.5096 10.8618 16.5964 9.79114 15.984C8.68244 15.3499 7.58663 14.6947 6.48607 14.0463C6.26813 13.918 6.0434 13.8284 5.78744 13.8942C5.45476 13.9798 5.23818 14.1923 5.17029 14.5304C5.09968 14.88 5.2504 15.1978 5.57629 15.3892C6.26949 15.7952 6.96744 16.1931 7.66335 16.5943C7.73668 16.6364 7.81136 16.6765 7.88129 16.724C8.09855 16.8741 8.1549 17.094 8.03201 17.2943C7.91116 17.4912 7.681 17.5496 7.45424 17.422C6.92399 17.1232 6.39849 16.815 5.87095 16.5108C5.63672 16.3757 5.40113 16.2427 5.16893 16.1035C4.49474 15.6988 4.21502 15.0233 4.38815 14.2574C4.41327 14.1481 4.40512 14.0212 4.37661 13.9112C4.03442 12.6131 3.68613 11.3156 3.33715 10.0195C3.15045 9.32495 2.41991 9.06288 1.95687 9.52524C1.74504 9.73707 1.65746 9.99439 1.7369 10.2918C2.32418 12.4956 2.90535 14.7008 3.51232 16.8985C3.57954 17.1429 3.76013 17.3853 3.95024 17.5612C4.79008 18.3365 5.64758 19.0935 6.50848 19.8458C7.03805 20.3088 7.31777 20.8696 7.30283 21.5812C7.28993 22.1997 7.30012 22.8182 7.30012 23.4367C7.30012 23.8128 7.17248 23.9907 6.9009 23.9948C6.61982 23.9988 6.48879 23.8176 6.48879 23.4245C6.48879 22.806 6.48675 22.1874 6.48879 21.5689C6.49082 21.1364 6.33331 20.7841 6.00606 20.4969C5.14109 19.7365 4.28563 18.9652 3.41999 18.2055C3.03774 17.8701 2.79876 17.4641 2.66908 16.9712C2.11439 14.8644 1.54815 12.7597 0.979201 10.6563C0.768051 9.87625 0.955438 9.24076 1.60722 8.74718C1.66561 8.70304 1.70363 8.59577 1.70567 8.51634C1.72468 7.67241 2.28412 6.97515 3.03978 6.86719C3.8966 6.74499 4.66855 7.23518 4.91026 8.07435C5.37058 9.67325 5.82343 11.2742 6.27085 12.8772C6.3143 13.0326 6.39441 13.0958 6.53292 13.1691C7.09372 13.4631 7.64298 13.7801 8.19089 14.0972C8.91531 14.5161 9.64314 14.9309 10.356 15.3695C11.5516 16.1055 12.1674 17.1823 12.1776 18.5931C12.183 19.3644 12.1783 20.135 12.1783 20.9063L12.179 20.9056ZM5.46155 13.1216C5.46495 13.0808 5.47106 13.0625 5.46698 13.0476C5.02228 11.4718 4.57758 9.89594 4.12744 8.32216C4.09349 8.20334 4.03035 8.08589 3.95499 7.98812C3.73909 7.70772 3.35481 7.60181 3.04589 7.72062C2.72339 7.84487 2.53804 8.12051 2.55094 8.45727C3.55306 8.65823 3.91697 9.00178 4.18719 10.0046C4.27748 10.3386 4.36371 10.674 4.45333 11.008C4.65837 11.7725 4.86477 12.5363 5.07252 13.309C5.21306 13.2417 5.33459 13.1834 5.46291 13.1216H5.46155Z" fill="#7E76FF"/>
<path d="M11.2211 6.08006C11.4546 5.36175 11.6922 4.63189 11.9292 3.90203C12.0208 3.62095 12.1071 3.33851 12.2042 3.05879C12.3352 2.68197 12.6414 2.45385 12.9972 2.45657C13.3563 2.45928 13.6578 2.68401 13.7841 3.06625C14.0943 4.00455 14.4026 4.94352 14.6986 5.88589C14.7515 6.05494 14.8242 6.10518 14.998 6.10315C15.9716 6.09432 16.9459 6.09839 17.9195 6.09907C18.3486 6.09907 18.6541 6.298 18.7709 6.64833C18.8897 7.00478 18.7729 7.35375 18.4321 7.60496C17.6411 8.18613 16.8474 8.76459 16.049 9.33557C15.9085 9.43606 15.8752 9.52024 15.9322 9.6893C16.2506 10.6425 16.5609 11.5985 16.8596 12.5578C17.0056 13.027 16.7395 13.4737 16.2676 13.5959C15.9994 13.6652 15.7693 13.5776 15.5547 13.4214C14.7746 12.8538 13.9898 12.2923 13.2158 11.7159C13.0542 11.5958 12.951 11.5815 12.7806 11.7085C11.9944 12.2964 11.1973 12.8688 10.4002 13.4425C10.1056 13.655 9.78986 13.6849 9.47415 13.49C9.189 13.3142 9.06271 13.048 9.08783 12.7167C9.0953 12.6176 9.13197 12.5191 9.16252 12.4234C9.45786 11.5075 9.75048 10.5903 10.0553 9.67708C10.1076 9.52024 10.0818 9.43877 9.94805 9.34304C9.13604 8.76119 8.33014 8.17119 7.52424 7.58187C7.25538 7.38566 7.13385 7.11952 7.18545 6.78752C7.23705 6.45619 7.42987 6.2335 7.74965 6.13641C7.86031 6.10315 7.98252 6.10043 8.09998 6.10043C9.11635 6.09704 10.132 6.09771 11.1484 6.09636C11.1647 6.09636 11.181 6.08889 11.2204 6.07938L11.2211 6.08006ZM12.9972 3.3161C12.9442 3.45664 12.9137 3.53065 12.8885 3.60669C12.5986 4.49814 12.3121 5.39094 12.0202 6.28171C11.8769 6.71759 11.6053 6.91108 11.1505 6.91176C10.1938 6.91312 9.23652 6.91176 8.2799 6.91244C8.20997 6.91244 8.14004 6.92059 8.03344 6.92738C8.11288 6.9912 8.15701 7.0299 8.20318 7.06384C8.96291 7.6165 9.724 8.16712 10.4831 8.72045C10.9366 9.0511 11.0282 9.33014 10.8571 9.85971C10.5767 10.7281 10.2936 11.5951 10.0125 12.4628C9.98539 12.547 9.96367 12.6325 9.92564 12.7669C10.0479 12.6821 10.1246 12.6305 10.1986 12.5768C10.9454 12.035 11.6902 11.4912 12.4384 10.9508C12.841 10.6602 13.1452 10.6622 13.5525 10.9542C13.8621 11.1762 14.169 11.4023 14.4772 11.6256C14.9885 11.997 15.5004 12.3677 16.0632 12.7751C16.0212 12.6305 15.9981 12.5429 15.9702 12.4573C15.6898 11.5896 15.4067 10.7226 15.127 9.85428C14.9593 9.33354 15.0503 9.05313 15.4875 8.73471C16.2466 8.18138 17.007 7.6294 17.766 7.07607C17.821 7.03601 17.8713 6.9878 17.9595 6.91244C16.8882 6.91244 15.8725 6.91244 14.8568 6.91244C14.37 6.91244 14.1113 6.7237 13.9579 6.25523C13.7684 5.67745 13.5831 5.09832 13.3943 4.52054C13.2701 4.14033 13.1438 3.76081 12.9972 3.31746V3.3161Z" fill="#7E76FF"/>
<path d="M20.0911 4.35516C20.0429 4.41627 19.9757 4.55002 19.8684 4.62606C19.6552 4.77611 19.423 4.90171 19.1915 5.02324C18.9634 5.14341 18.7332 5.07484 18.6219 4.87116C18.5166 4.67834 18.5743 4.44818 18.778 4.32054C19.0068 4.17728 19.2404 4.03946 19.4814 3.91657C19.774 3.76788 20.1047 3.97089 20.0911 4.35516Z" fill="#7E76FF"/>
<path d="M12.5896 0.789293C12.5896 0.646037 12.5801 0.502102 12.5917 0.360204C12.6093 0.142944 12.7852 -0.00845956 13.0017 0.000366638C13.2265 0.00919284 13.3765 0.13276 13.3914 0.352736C13.4125 0.654184 13.4071 0.959028 13.3942 1.26183C13.3847 1.47909 13.2 1.62778 12.9848 1.62303C12.7695 1.61896 12.6046 1.46687 12.591 1.24418C12.5815 1.09346 12.5889 0.941375 12.5896 0.789293Z" fill="#7E76FF"/>
<path d="M6.32387 3.85712C6.36664 3.86935 6.42775 3.87546 6.47663 3.90261C6.72648 4.04112 6.97905 4.17623 7.22007 4.32899C7.41696 4.45391 7.4672 4.69629 7.35925 4.88164C7.24791 5.07242 7.02386 5.14168 6.81135 5.02965C6.56557 4.90133 6.32523 4.76215 6.091 4.61278C5.92941 4.50958 5.85201 4.35479 5.91379 4.15722C5.97354 3.96575 6.11136 3.87478 6.32319 3.85645L6.32387 3.85712Z" fill="#7E76FF"/>
<path d="M10.0299 2.13569C9.89144 2.29457 9.80929 2.47041 9.68912 2.503C9.55469 2.53966 9.32181 2.49689 9.24238 2.39844C9.04345 2.15131 8.8934 1.8614 8.75151 1.57421C8.67003 1.40923 8.71892 1.21302 8.88458 1.13087C9.01018 1.0684 9.26207 1.02767 9.31638 1.0942C9.57234 1.40719 9.7801 1.75956 10.0299 2.13502V2.13569Z" fill="#7E76FF"/>
<path d="M17.2743 1.44759C17.254 1.51073 17.2431 1.5793 17.2119 1.63633C17.0815 1.8726 16.9518 2.11091 16.8079 2.33903C16.6714 2.55562 16.4325 2.61061 16.2376 2.48908C16.0468 2.37027 15.9857 2.15368 16.1018 1.93507C16.2322 1.68929 16.3693 1.44487 16.5234 1.21335C16.6293 1.0538 16.8038 0.963504 16.9844 1.06602C17.1148 1.14003 17.2071 1.28057 17.3164 1.39124C17.3029 1.41025 17.2893 1.42926 17.2757 1.44759H17.2743Z" fill="#7E76FF"/>
</svg>
