<svg width="56" height="41" viewBox="0 0 56 41" fill="none" xmlns="http://www.w3.org/2000/svg">
<path d="M55.5618 36.4316C55.2826 37.42 54.9186 38.3598 54.1581 39.0988C53.1805 40.0494 51.9898 40.4836 50.6522 40.4903C47.1356 40.5078 43.619 40.497 40.1023 40.493C39.9257 40.493 39.6965 40.5024 39.5845 40.4027C39.362 40.2031 39.0681 39.9361 39.0587 39.6867C39.0492 39.4358 39.3 39.1122 39.5252 38.9329C39.6924 38.8008 40.0025 38.8196 40.2493 38.8183C43.6041 38.8115 46.9617 38.7401 50.3151 38.8399C52.5616 38.9059 54.2066 37.3809 53.879 34.7825C53.7037 34.7731 53.5162 34.7515 53.3275 34.7515C47.2812 34.7501 41.2336 34.7515 35.1874 34.7434C34.8085 34.7434 34.6211 34.8108 34.5563 35.2423C34.3581 36.5435 33.1945 37.5791 31.8649 37.5966C29.2814 37.629 26.6978 37.6303 24.1143 37.5953C22.7848 37.5764 21.6467 36.5368 21.4418 35.2221C21.3797 34.8216 21.2139 34.7434 20.8458 34.7434C14.7807 34.7528 8.71689 34.7501 2.65177 34.7515C2.47782 34.7515 2.30388 34.7704 2.14072 34.7798C1.7389 37.3674 3.48508 38.8452 5.4915 38.8358C15.5034 38.79 25.5153 38.8142 35.5285 38.8183C35.7942 38.8183 36.1245 38.7859 36.3079 38.9235C36.5439 39.1028 36.7906 39.4372 36.7906 39.7055C36.7906 39.9429 36.4953 40.226 36.2634 40.4027C36.1178 40.5146 35.8508 40.4916 35.6391 40.4916C25.5908 40.4957 15.5425 40.4997 5.4942 40.4916C2.44951 40.4903 0.444431 38.4596 0.440385 35.4257C0.440385 34.9767 0.434992 34.529 0.440385 34.08C0.449824 33.3964 0.738383 33.1078 1.43281 33.1011C2.22163 33.093 3.01044 33.0997 3.88421 33.0997V32.408C3.88421 22.9516 3.88421 13.4966 3.88421 4.04026C3.88421 2.33318 4.78494 1.06569 6.31673 0.657119C6.71181 0.550596 7.13251 0.506098 7.53973 0.506098C21.0871 0.499356 34.6345 0.499356 48.1806 0.500705C50.5053 0.500705 51.8793 1.89091 51.8806 4.23039C51.882 13.5964 51.8806 22.9624 51.8806 32.3298V33.0997C52.7477 33.0997 53.585 33.1226 54.4197 33.0916C54.9159 33.0727 55.2907 33.2211 55.5618 33.6337V36.433V36.4316ZM50.1965 33.0835C50.1965 32.8422 50.1965 32.648 50.1965 32.4552C50.1965 23.0379 50.1965 13.6207 50.1965 4.20342C50.1965 2.76198 49.6194 2.18216 48.186 2.18216C34.6426 2.18216 21.1006 2.1916 7.55726 2.16598C6.23852 2.16329 5.51038 2.91974 5.51308 4.20342C5.53061 13.6382 5.52252 23.0743 5.52252 32.5091C5.52252 32.6965 5.52252 32.884 5.52252 33.0849H50.1965V33.0835ZM23.0706 34.7798C23.1974 35.5875 23.6154 35.9529 24.4919 35.9597C26.8367 35.9758 29.1816 35.9664 31.5278 35.9624C31.6694 35.9624 31.8123 35.9314 31.9526 35.9044C32.5297 35.7925 32.8466 35.4297 32.9153 34.7798H23.072H23.0706Z" fill="#ABABAB"/>
<path d="M8.63093 5.21339V30.0119H47.1386V5.21474C46.9202 5.21474 46.6964 5.21474 46.4725 5.21474C36.5698 5.21474 26.6672 5.21474 16.7631 5.21474C16.5474 5.21474 16.329 5.23092 16.1186 5.19452C15.6844 5.12035 15.4525 4.80887 15.4512 4.403C15.4512 3.99713 15.6777 3.6843 16.1146 3.61014C16.3074 3.57778 16.5083 3.58722 16.7052 3.58722C26.9854 3.58722 37.2643 3.58722 47.5445 3.58722C48.603 3.58722 48.7972 3.78004 48.7972 4.83854C48.7972 13.378 48.7972 21.9174 48.7972 30.4569C48.7972 31.4762 48.5801 31.6933 47.5742 31.6933C34.4421 31.6933 21.31 31.6933 8.17787 31.6933C7.16656 31.6933 6.91846 31.4425 6.91846 30.4177C6.91846 21.8958 6.91846 13.3753 6.91846 4.85337C6.91846 3.82858 7.15847 3.58857 8.18056 3.58857C9.59773 3.58857 11.0149 3.58857 12.4321 3.59531C12.8649 3.59666 13.1481 3.82319 13.2357 4.24389C13.3234 4.66864 13.1346 4.99091 12.7463 5.15676C12.575 5.22957 12.3593 5.21609 12.1637 5.21609C11.0014 5.22148 9.8391 5.21879 8.62958 5.21879L8.63093 5.21339Z" fill="#ABABAB"/>
</svg>
