<svg width="24" height="25" viewBox="0 0 24 25" fill="none" xmlns="http://www.w3.org/2000/svg">
<path d="M1.21681 24.7021C1.19195 24.6847 1.16535 24.6699 1.13745 24.6579C0.401065 24.4349 0 23.9 0 23.1345C0 18.4475 0 13.7595 0 9.07042C0 7.64086 0 6.21099 0 4.78081C0 3.83544 0.641046 3.19158 1.58735 3.18923C5.26707 3.18735 8.94585 3.18735 12.6237 3.18923C13.0933 3.18923 13.3634 3.5067 13.2164 3.87677C13.1356 4.08012 12.9778 4.1778 12.7693 4.20551C12.6911 4.21127 12.6127 4.21252 12.5345 4.20927H1.68598C1.14872 4.20927 1.01206 4.34687 1.01206 4.89023V23.0077C1.01206 23.5581 1.15294 23.6971 1.70664 23.6971H18.3457C18.836 23.6938 18.9914 23.5402 18.9914 23.0527C18.9914 20.1852 18.9914 17.3178 18.9914 14.4505C18.9914 14.3721 18.9877 14.2937 18.9914 14.2157C19.0135 13.9048 19.2375 13.6822 19.5132 13.693C19.7888 13.7038 20.0039 13.9278 20.0044 14.2439C20.0063 17.2439 20.0053 20.2442 20.0016 23.2448C20.0016 23.8633 19.5869 24.402 19.0022 24.6138C18.9308 24.6396 18.8613 24.6716 18.7914 24.7007L1.21681 24.7021Z" fill="url(#paint0_linear_372_794)"/>
<path d="M23.9991 10.3567C23.8817 10.5634 23.699 10.6737 23.4764 10.7489C23.056 10.8907 22.6402 11.0451 22.2291 11.2119C22.1284 11.2583 22.0481 11.3398 22.0032 11.4411C21.8271 11.8816 21.6712 12.3311 21.5063 12.7763C21.3997 13.0632 21.218 13.2191 20.9897 13.2055C20.723 13.19 20.5751 13.028 20.4886 12.7828C20.3304 12.3353 20.1693 11.8882 19.9908 11.4482C19.9427 11.3405 19.8571 11.2541 19.7499 11.2049C19.3174 11.0297 18.8755 10.8761 18.4373 10.7155C18.1255 10.6009 18.0029 10.4572 18.0001 10.2069C17.9968 9.94768 18.1179 9.80304 18.4448 9.68187C18.8609 9.52736 19.2761 9.37004 19.695 9.22445C19.8622 9.16669 19.9636 9.07793 20.0237 8.90181C20.1674 8.466 20.3346 8.03769 20.4933 7.60704C20.5981 7.32526 20.7587 7.19846 21.0005 7.19987C21.2424 7.20128 21.3988 7.32808 21.5045 7.61268C21.673 8.06493 21.8332 8.52094 22.0107 8.96944C22.053 9.06397 22.1286 9.13967 22.223 9.18218C22.6262 9.34624 23.0344 9.49872 23.4473 9.63961C23.6737 9.71663 23.87 9.8237 24.001 10.0271L23.9991 10.3567ZM19.9401 10.2266C20.5403 10.3131 20.8855 10.6211 20.9963 11.2054C21.1001 10.6132 21.4608 10.3182 22.0365 10.2276C21.7595 10.0933 21.4941 10.0299 21.3269 9.86597C21.1597 9.70207 21.1006 9.4433 20.9879 9.21412C20.6751 9.87865 20.6751 9.87865 19.9387 10.2266H19.9401Z" fill="url(#paint1_linear_372_794)"/>
<path d="M5.75349 13.9391C5.75349 12.2209 5.75349 10.5026 5.75349 8.78441C5.75349 8.1011 6.11417 7.61785 6.73032 7.4779C7.12481 7.38867 7.48173 7.49621 7.81799 7.71271C9.81361 9.00702 11.8106 10.2996 13.8091 11.5905C14.3783 11.9591 14.9493 12.3264 15.5171 12.6974C16.5076 13.3441 16.5113 14.5534 15.5171 15.1986C12.9464 16.8683 10.3733 18.534 7.79779 20.1955C6.98956 20.7173 6.03668 20.3998 5.79998 19.5319C5.76332 19.3725 5.74754 19.2089 5.75302 19.0454C5.75145 17.3441 5.75161 15.642 5.75349 13.9391ZM6.75193 13.9424C6.75193 15.6368 6.74864 17.3312 6.75803 19.0252C6.75803 19.1562 6.81251 19.3511 6.90362 19.4009C6.99473 19.4507 7.1854 19.3868 7.29717 19.3154C9.84852 17.6739 12.3969 16.0278 14.9423 14.3772C15.3593 14.1072 15.3584 13.7977 14.9399 13.5267C12.3936 11.8771 9.8457 10.2299 7.29623 8.58529C7.18493 8.5139 6.99144 8.45473 6.89657 8.50498C6.80171 8.55523 6.7585 8.7506 6.75568 8.88069C6.74911 10.5695 6.75193 12.2559 6.75193 13.9438V13.9424Z" fill="url(#paint2_linear_372_794)"/>
<path d="M21.7484 5.94175C21.7513 6.19535 21.6287 6.34892 21.3258 6.46116C20.355 6.8209 19.3853 7.18345 18.4112 7.5338C18.334 7.55573 18.2634 7.59665 18.206 7.65284C18.1485 7.70903 18.1061 7.7787 18.0825 7.8555C17.7317 8.82998 17.3687 9.79977 17.0089 10.771C16.8957 11.0767 16.7441 11.2011 16.4923 11.1993C16.2406 11.1974 16.0983 11.0767 15.9828 10.7639C15.6202 9.78568 15.2567 8.80744 14.9026 7.82685C14.8832 7.76069 14.8478 7.70035 14.7994 7.65119C14.7511 7.60203 14.6914 7.56558 14.6255 7.54507C13.645 7.18862 12.6686 6.8209 11.688 6.46492C11.44 6.37475 11.2578 6.24184 11.2484 5.95678C11.24 5.70505 11.371 5.5543 11.6969 5.43361C12.6677 5.07293 13.6374 4.71085 14.611 4.35674C14.6802 4.33591 14.7432 4.29836 14.7945 4.24742C14.8458 4.19648 14.8837 4.1337 14.905 4.06463C15.2577 3.09062 15.6198 2.12036 15.98 1.14963C16.1054 0.819951 16.2495 0.700195 16.505 0.700195C16.7605 0.700195 16.8976 0.823708 17.0216 1.15809C17.379 2.12177 17.7387 3.08357 18.0886 4.05101C18.1105 4.12412 18.1501 4.19068 18.2039 4.24476C18.2578 4.29884 18.3242 4.33876 18.3972 4.36097C19.3782 4.7146 20.356 5.07857 21.3338 5.44112C21.6221 5.54679 21.7442 5.69989 21.7484 5.94175ZM13.2256 5.94175C13.3477 5.99341 13.4083 6.02206 13.4712 6.04554C14.062 6.26486 14.6509 6.49028 15.2455 6.69879C15.3642 6.7348 15.4723 6.79947 15.5602 6.8871C15.6481 6.97473 15.713 7.08263 15.7494 7.2013C15.9565 7.79679 16.1828 8.38524 16.4026 8.97604C16.4285 9.04507 16.4604 9.11129 16.5097 9.22541C16.7704 8.52096 17.0188 7.86677 17.2498 7.206C17.34 6.95005 17.4879 6.78051 17.7505 6.7002C17.9811 6.63023 18.2055 6.54006 18.4314 6.456C18.8644 6.29444 19.296 6.13101 19.7365 5.96523C19.7102 5.93048 19.7037 5.91263 19.6924 5.90841C19.1894 5.72055 18.6855 5.5327 18.183 5.34485C17.2766 5.00436 17.4433 5.18189 17.0996 4.26C16.907 3.7528 16.7192 3.2362 16.5078 2.67265C16.458 2.79052 16.4266 2.8605 16.4003 2.92906C16.1828 3.51235 15.957 4.09281 15.7541 4.68126C15.7177 4.80389 15.6515 4.91558 15.5613 5.00631C15.4711 5.09705 15.3599 5.16399 15.2375 5.20114C14.5847 5.43126 13.9389 5.67829 13.2256 5.94269V5.94175Z" fill="url(#paint3_linear_372_794)"/>
<path d="M20.4922 3.4574C20.3123 3.4574 20.1634 3.46398 20.0188 3.4574C19.707 3.44096 19.4937 3.22259 19.5022 2.94081C19.5083 2.66513 19.7182 2.46084 20.0188 2.44535C20.1653 2.4383 20.3123 2.44535 20.4926 2.44535C20.4926 2.29131 20.4894 2.15371 20.4926 2.01657C20.503 1.66623 20.7068 1.44832 21.0139 1.45302C21.3075 1.45912 21.5024 1.68079 21.508 2.01657C21.508 2.1476 21.508 2.2791 21.508 2.44253C21.6681 2.44253 21.8137 2.4383 21.9588 2.44253C22.2805 2.45286 22.4919 2.64964 22.497 2.93799C22.5022 3.23996 22.2913 3.4466 21.9598 3.45787C21.8189 3.46304 21.6808 3.45787 21.508 3.45787C21.508 3.60862 21.508 3.74576 21.508 3.88054C21.5024 4.2168 21.3075 4.43893 21.0149 4.4441C20.7077 4.45067 20.503 4.23229 20.4926 3.88054C20.4889 3.7528 20.4922 3.62318 20.4922 3.4574Z" fill="url(#paint4_linear_372_794)"/>
<defs>
<linearGradient id="paint0_linear_372_794" x1="10.0027" y1="3.18782" x2="10.0027" y2="24.7021" gradientUnits="userSpaceOnUse">
<stop stop-color="#D370FF"/>
<stop offset="1" stop-color="#9C96FF"/>
</linearGradient>
<linearGradient id="paint1_linear_372_794" x1="21.0005" y1="7.19986" x2="21.0005" y2="13.2063" gradientUnits="userSpaceOnUse">
<stop stop-color="#D370FF"/>
<stop offset="1" stop-color="#9C96FF"/>
</linearGradient>
<linearGradient id="paint2_linear_372_794" x1="11.0067" y1="7.44644" x2="11.0067" y2="20.4483" gradientUnits="userSpaceOnUse">
<stop stop-color="#D370FF"/>
<stop offset="1" stop-color="#9C96FF"/>
</linearGradient>
<linearGradient id="paint3_linear_372_794" x1="16.4983" y1="0.700195" x2="16.4983" y2="11.1993" gradientUnits="userSpaceOnUse">
<stop stop-color="#D370FF"/>
<stop offset="1" stop-color="#9C96FF"/>
</linearGradient>
<linearGradient id="paint4_linear_372_794" x1="20.9995" y1="1.45294" x2="20.9995" y2="4.44424" gradientUnits="userSpaceOnUse">
<stop stop-color="#D370FF"/>
<stop offset="1" stop-color="#9C96FF"/>
</linearGradient>
</defs>
</svg>
