<svg width="24" height="24" viewBox="0 0 24 24" fill="none" xmlns="http://www.w3.org/2000/svg">
<path d="M0 19.3562V8.25239C0.295715 7.5591 0.912491 7.64218 1.50767 7.65908C1.53631 7.34365 1.74847 7.22443 1.99819 7.14275C2.55347 6.96486 3.10735 6.78039 3.66592 6.61422C3.81894 6.56728 3.87386 6.51002 3.87245 6.34526C3.86353 5.43183 3.86823 4.5184 3.86823 3.60544C3.86823 3.01965 3.86494 2.43197 3.86823 1.84852C3.87104 1.44297 4.04049 1.30357 4.42774 1.4073C4.9159 1.53779 5.3989 1.68893 5.88284 1.82975C5.98329 1.85932 6.08186 1.89593 6.21141 1.93912V1.65514C6.21141 1.24161 6.20437 0.827606 6.21517 0.414075C6.22315 0.104279 6.3987 -0.0445175 6.68456 0.0179111C8.12699 0.332401 9.37134 1.00081 10.3524 2.1203C11.2963 3.19989 11.8361 4.47006 12.1318 5.85569C12.2125 6.2312 12.2656 6.61563 12.3346 7.01602C12.3853 6.98128 12.4172 6.9611 12.4468 6.9381C14.8327 5.08918 17.5551 4.22832 20.554 4.18138C20.9596 4.17434 21.0624 4.28043 21.0633 4.69349C21.0633 5.33326 21.0676 5.97351 21.061 6.61375C21.061 6.75973 21.0976 6.83812 21.2487 6.88177C21.4952 6.95265 21.7346 7.04888 21.9758 7.13712C22.2171 7.22537 22.463 7.32628 22.4795 7.65486C22.6729 7.65486 22.8442 7.66565 23.0141 7.65486C23.5914 7.61261 23.9998 8.00643 23.9998 8.62602C23.9848 13.3953 23.9848 18.1649 23.9998 22.9348C23.9998 23.4399 23.8501 23.7934 23.3835 23.9961H12.7458C12.5538 23.7835 12.3642 23.5798 12.0417 23.562C11.6779 23.5418 11.4559 23.7497 11.2437 23.9961H0.610205C0.473234 23.9398 0.348788 23.8568 0.244054 23.7521C0.139319 23.6473 0.0563711 23.5229 0 23.3859L0 21.23C0.122041 21.0629 0.281633 20.9822 0.484878 21.0512C0.698919 21.123 0.705021 21.3042 0.703613 21.4924C0.699388 21.9923 0.703613 22.4917 0.703613 22.9916C0.703613 23.2836 0.710184 23.2897 1.01153 23.2897C4.25219 23.2897 7.49316 23.288 10.7344 23.2845C10.8536 23.2797 10.9683 23.2382 11.063 23.1658C11.3283 22.9625 11.6526 22.8513 11.9868 22.849C12.3209 22.8467 12.6467 22.9535 12.9147 23.1531C13.0227 23.2338 13.1528 23.2795 13.2874 23.2841C16.5049 23.291 19.7224 23.2928 22.9399 23.2897C23.2896 23.2897 23.2901 23.2897 23.2901 22.9395C23.2901 18.2006 23.2901 13.4613 23.2901 8.72178C23.2976 8.65203 23.2954 8.58157 23.2835 8.51243C23.2685 8.46314 23.2145 8.39133 23.1746 8.38945C22.9456 8.37771 22.7156 8.38335 22.4673 8.38335V21.9773C22.4673 22.4537 22.3818 22.5406 21.9106 22.5406H2.09019C2.01978 22.5406 1.94937 22.5443 1.87943 22.5406C1.68323 22.5246 1.56072 22.4209 1.53537 22.2228C1.52573 22.1219 1.52244 22.0204 1.52551 21.9191C1.52551 17.5234 1.52551 13.1276 1.52551 8.73163V8.37771C1.34574 8.37771 1.19178 8.37771 1.03735 8.37771C0.702674 8.37771 0.702674 8.37771 0.702674 8.71239C0.702674 12.1793 0.702674 15.646 0.702674 19.1126C0.702674 19.3004 0.690939 19.474 0.47549 19.5482C0.260041 19.6224 0.117347 19.5229 0 19.3562ZM21.7505 20.5992V8.09326C21.756 8.03071 21.7546 7.96775 21.7463 7.90551C21.7418 7.88099 21.7325 7.85762 21.7188 7.83675C21.7052 7.81587 21.6876 7.79792 21.667 7.78394C21.4825 7.70696 21.2914 7.64312 21.0638 7.55957C21.0638 7.70039 21.0638 7.80131 21.0638 7.90035C21.061 8.1111 21.0666 8.32279 21.0492 8.53167C21.0328 8.72271 20.9014 8.82504 20.7179 8.83302C20.5343 8.841 20.4085 8.73398 20.3611 8.55608C20.3463 8.47879 20.3412 8.39994 20.3461 8.32139C20.3461 7.26777 20.3461 6.21383 20.3461 5.15959V4.89485C20.2843 4.89145 20.2224 4.89145 20.1607 4.89485C19.4411 4.98028 18.7136 5.02206 18.0048 5.16241C15.9813 5.56326 14.1628 6.4152 12.5763 7.74404C12.5032 7.79905 12.4447 7.87118 12.406 7.95409C12.3673 8.037 12.3495 8.12815 12.3543 8.21953C12.3609 12.444 12.3626 16.6676 12.3595 20.8902V21.2202C14.7294 19.3816 17.3922 18.5052 20.3461 18.4006V10.8467C20.3461 10.4712 20.4578 10.2938 20.6949 10.2834C20.9403 10.2736 21.0647 10.4618 21.0647 10.8467V18.5512C21.0647 19.0173 20.9709 19.1117 20.5015 19.1145C18.9702 19.1247 17.4531 19.4098 16.0226 19.9561C15.9287 19.9913 15.839 20.0312 15.7475 20.0688C17.7851 19.7843 19.7683 19.9805 21.7505 20.5992ZM6.93897 0.819157C6.93474 0.900361 6.92864 0.959973 6.92864 1.02334C6.92864 5.37832 6.92723 9.73315 6.92441 14.0878C6.92441 14.254 6.9798 14.3098 7.13329 14.353C8.91697 14.8537 10.268 15.9092 11.1865 17.5195C11.3343 17.7796 11.4611 18.0518 11.5972 18.3175L11.6352 18.3114V18.0894C11.6352 14.6944 11.6352 11.2992 11.6352 7.90363C11.6365 7.06079 11.5202 6.22189 11.2897 5.41118C10.8738 3.9434 10.1594 2.66291 8.90007 1.74057C8.31155 1.31043 7.64574 0.997598 6.93897 0.819157ZM10.9541 20.9794C10.9015 20.8893 10.8846 20.8545 10.8602 20.8235C9.23333 18.5536 7.11546 16.9919 4.36531 16.3432C3.90296 16.2343 3.86635 16.1888 3.86635 15.7086C3.86635 13.0068 3.86635 10.3052 3.86635 7.60369V7.26902C3.36692 7.43143 2.92757 7.5821 2.48025 7.71682C2.29531 7.7722 2.23476 7.86373 2.23523 8.06228C2.2418 12.146 2.24352 16.2296 2.24039 20.3133V20.5949C5.18533 19.7092 8.06878 19.6651 10.9541 20.9794ZM11.4826 20.425C11.4282 20.196 11.3888 20.0214 11.3451 19.8486C11.3015 19.6759 11.2559 19.5017 11.2005 19.3323C10.4711 17.0896 9.05919 15.5471 6.70803 14.9773C6.23864 14.8632 6.21094 14.8252 6.21094 14.3441V3.03185C6.21614 2.96178 6.21472 2.89137 6.20672 2.82157C6.19733 2.77463 6.16635 2.70938 6.1288 2.69577C5.62843 2.50802 5.12525 2.33106 4.60094 2.14283C4.59249 2.24516 4.58592 2.29116 4.58592 2.33716C4.58592 6.71624 4.58467 11.0955 4.58217 15.4749C4.58217 15.6208 4.62911 15.6734 4.76992 15.7096C7.07509 16.3033 8.9916 17.528 10.5626 19.3037C10.871 19.6519 11.1545 20.0237 11.4826 20.425ZM12.9941 21.8182H21.7327C21.7862 21.3835 21.7796 21.3539 21.5693 21.2887C19.5627 20.6588 17.5279 20.4584 15.4551 20.9043C14.594 21.0855 13.7647 21.3935 12.9941 21.8182ZM10.9166 21.8266L10.9339 21.7797C10.8175 21.721 10.7025 21.66 10.5847 21.6041C9.46662 21.0718 8.28705 20.7855 7.0535 20.6968C5.45147 20.5818 3.89874 20.8212 2.37839 21.3126C2.32535 21.3295 2.25635 21.3906 2.24931 21.4389C2.2383 21.5683 2.23627 21.6983 2.24321 21.828L10.9166 21.8266Z" fill="#7E76FF"/>
</svg>
