<svg width="24" height="25" viewBox="0 0 24 25" fill="none" xmlns="http://www.w3.org/2000/svg">
<path d="M18 2.5C18 3.05228 17.5523 3.5 17 3.5C16.4477 3.5 16 3.05228 16 2.5C16 1.94772 16.4477 1.5 17 1.5C17.5523 1.5 18 1.94772 18 2.5Z" fill="#7E76FF"/>
<path d="M3.09211 1.8208C3.19583 1.39307 3.80417 1.39307 3.90789 1.8208L4.19328 2.99774C4.23031 3.15046 4.34955 3.26969 4.50226 3.30672L5.6792 3.59211C6.10693 3.69583 6.10693 4.30417 5.6792 4.40789L4.50226 4.69328C4.48317 4.69791 4.4646 4.70382 4.44666 4.71092C4.32102 4.76064 4.22568 4.86863 4.19328 5.00226L3.90789 6.1792C3.90141 6.20593 3.89295 6.23099 3.88277 6.25439C3.7301 6.60526 3.18935 6.5802 3.09211 6.1792L2.80672 5.00226C2.80441 4.99271 2.80177 4.9833 2.79883 4.97403C2.75466 4.83496 2.64091 4.72799 2.49774 4.69328L1.3208 4.40789C1.29407 4.40141 1.26901 4.39295 1.24561 4.38277C0.894737 4.2301 0.9198 3.68935 1.3208 3.59211L2.49774 3.30672C2.65046 3.26969 2.76969 3.15046 2.80672 2.99774L3.09211 1.8208Z" fill="#7E76FF"/>
<path d="M23 4.5C23 5.05228 22.5523 5.5 22 5.5C21.4477 5.5 21 5.05228 21 4.5C21 3.94772 21.4477 3.5 22 3.5C22.5523 3.5 23 3.94772 23 4.5Z" fill="#7E76FF"/>
<path d="M6 19C6 19.5523 5.55228 20 5 20C4.44772 20 4 19.5523 4 19C4 18.4477 4.44772 18 5 18C5.55228 18 6 18.4477 6 19Z" fill="#7E76FF"/>
<path fill-rule="evenodd" clip-rule="evenodd" d="M17 15C17 17.7614 14.7614 20 12 20C9.23858 20 7 17.7614 7 15C7 12.2386 9.23858 10 12 10C14.7614 10 17 12.2386 17 15ZM15.3 15C15.3 16.8225 13.8225 18.3 12 18.3C10.1775 18.3 8.7 16.8225 8.7 15C8.7 13.1775 10.1775 11.7 12 11.7C13.8225 11.7 15.3 13.1775 15.3 15Z" fill="#7E76FF"/>
<path fill-rule="evenodd" clip-rule="evenodd" d="M8.63894 6.14872C9.1287 5.13827 10.1299 4.5 11.225 4.5H12.775C13.8701 4.5 14.8713 5.13827 15.3611 6.14872L15.7612 6.97426C15.9588 7.38199 16.3628 7.63953 16.8047 7.63953H19.6087C21.2055 7.63953 22.5 8.97487 22.5 10.6221V19.5174C22.5 21.1647 21.2055 22.5 19.6087 22.5H4.3913C2.79448 22.5 1.5 21.1647 1.5 19.5174V10.6221C1.5 8.97487 2.79448 7.63953 4.3913 7.63953H7.19529C7.63719 7.63953 8.04117 7.38198 8.23879 6.97426L8.63894 6.14872ZM11.225 6.27907C10.7831 6.27907 10.3791 6.53662 10.1815 6.94434L9.78135 7.76989C9.29159 8.78033 8.29044 9.4186 7.19529 9.4186H4.3913C3.74697 9.4186 3.22464 9.95742 3.22464 10.6221V19.5174C3.22464 20.1821 3.74697 20.7209 4.3913 20.7209H19.6087C20.253 20.7209 20.7754 20.1821 20.7754 19.5174V10.6221C20.7754 9.95742 20.253 9.4186 19.6087 9.4186H16.8047C15.7096 9.4186 14.7084 8.78033 14.2186 7.76989L13.8185 6.94434C13.6209 6.53662 13.2169 6.27907 12.775 6.27907H11.225Z" fill="#7E76FF"/>
</svg>
