<svg width="24" height="24" viewBox="0 0 24 24" fill="none" xmlns="http://www.w3.org/2000/svg">
<path d="M0 13.0767C0.187849 12.8294 0.47651 12.8156 0.744507 12.7555C1.02315 12.6935 1.30304 12.6372 1.61174 12.572C1.3713 12.2214 1.14963 11.9014 0.93173 11.5802C0.728853 11.2815 0.742003 11.1375 0.995598 10.882C1.31995 10.5552 1.64681 10.2296 1.97304 9.90396C2.28424 9.59338 2.40384 9.58148 2.7595 9.82569C3.06694 10.0361 3.37376 10.2477 3.71252 10.48C3.79642 10.0755 3.87219 9.70358 3.95171 9.3329C4.02998 8.96784 4.12078 8.88644 4.41445 8.85639C4.58601 8.13505 4.69184 7.41183 4.93166 6.73682C5.71749 4.5296 7.23656 3.00865 9.42124 2.16709C10.4312 1.77762 11.4844 1.62671 12.5671 1.73128C12.7418 1.74819 12.8795 1.70373 13.0167 1.59353C13.3028 1.36435 13.6009 1.14958 13.8958 0.931046C14.2433 0.673067 14.4074 0.698739 14.6735 1.05189C14.9365 1.40067 15.2013 1.74944 15.4618 2.10009C15.5777 2.25601 15.7142 2.35619 15.9189 2.30923C16.1243 2.26164 16.202 2.11261 16.2283 1.9185C16.2871 1.48583 16.3535 1.0544 16.4136 0.622347C16.4756 0.178398 16.6315 0.0656889 17.0755 0.13081C17.7617 0.231622 18.4493 0.328051 19.1362 0.422602C19.4993 0.472695 19.6283 0.616086 19.5876 0.9874C19.5444 1.38251 19.4724 1.77386 19.4229 2.16834C19.3935 2.40253 19.3065 2.66426 19.5701 2.82707C19.8343 2.99049 20.0253 2.8039 20.2188 2.65925C20.5438 2.4163 20.8662 2.1696 21.1944 1.92977C21.473 1.72627 21.6665 1.75069 21.8762 2.0262C22.3258 2.61605 22.7704 3.20965 23.2118 3.80576C23.4141 4.07939 23.3815 4.27287 23.1048 4.48514C22.7454 4.76066 22.3828 5.03241 22.0178 5.29978C21.8449 5.42627 21.7385 5.57842 21.798 5.79758C21.8562 6.01173 22.0347 6.06808 22.23 6.09438C22.6859 6.157 23.1417 6.21899 23.5963 6.28661C23.8825 6.32857 24.0302 6.50201 23.9927 6.78942C23.8912 7.56211 23.7798 8.33417 23.6621 9.10435C23.6232 9.35606 23.4235 9.49006 23.1661 9.45562C22.6946 9.39175 22.2238 9.32538 21.7548 9.24962C21.56 9.21831 21.3922 9.24022 21.2814 9.4143C21.1643 9.59714 21.2144 9.76933 21.3384 9.93276C21.617 10.2997 21.8938 10.6672 22.1674 11.0379C22.3803 11.3266 22.3546 11.5201 22.0691 11.7367C21.4843 12.1801 20.8976 12.6209 20.3077 13.0573C20.0272 13.2652 19.8206 13.2289 19.6077 12.9477C19.339 12.5927 19.0717 12.237 18.8068 11.8801C18.6841 11.7142 18.5451 11.5833 18.3184 11.6434C18.0917 11.7042 18.0347 11.892 18.0053 12.0924C17.9402 12.5401 17.8801 12.9878 17.8131 13.4349C17.7642 13.7636 17.5939 13.8832 17.2583 13.8363C16.5401 13.7361 15.8219 13.6378 15.1043 13.5357C14.7361 13.4837 14.6128 13.3115 14.6666 12.9377C14.7298 12.4981 14.7912 12.058 14.8551 11.6184C14.8839 11.4205 14.8607 11.2396 14.6754 11.1237C14.4856 11.0054 14.3191 11.0786 14.1594 11.1995C13.8044 11.4681 13.4487 11.7349 13.0912 12.0003C12.78 12.2314 12.5877 12.2082 12.3554 11.9027C11.9165 11.3241 11.4807 10.7436 11.048 10.1607C10.8376 9.87703 10.8689 9.67979 11.1551 9.46126C11.5089 9.19138 11.8664 8.92652 12.2233 8.66102C12.3893 8.53767 12.5226 8.39303 12.4613 8.17011C12.4011 7.95158 12.2227 7.88771 12.0129 7.86204C11.5796 7.80882 11.1482 7.74056 10.7161 7.6792C10.3617 7.62911 10.2252 7.48133 10.2697 7.13006C10.363 6.38743 10.4694 5.64668 10.584 4.90718C10.636 4.57218 10.8007 4.46323 11.1476 4.50831C11.6116 4.56842 12.0743 4.63542 12.537 4.70618C12.7255 4.73498 12.8808 4.69115 12.9822 4.52585C13.0849 4.35803 13.0448 4.19774 12.9321 4.04808C12.6554 3.6799 12.3749 3.31422 12.1062 2.9404C12.0236 2.82519 11.9754 2.68493 11.9115 2.55594C11.9196 2.52839 11.9278 2.50021 11.9359 2.47266C11.4394 2.54279 10.9303 2.5647 10.4481 2.69056C7.87838 3.36056 6.19651 4.98107 5.47892 7.53581C4.7244 10.2208 5.81517 13.1425 8.0944 14.7448C8.39371 14.9552 8.70053 15.1675 8.95287 15.428C9.43878 15.9301 9.66607 16.5525 9.66294 17.2557C9.66106 17.7398 9.65981 18.2244 9.66357 18.7084C9.66795 19.2933 9.9779 19.602 10.5627 19.6038C11.5627 19.6063 12.5627 19.607 13.5621 19.6038C14.1319 19.602 14.4324 19.2883 14.4412 18.7153C14.4512 18.076 14.4268 17.4317 14.4969 16.7986C14.5783 16.0685 14.9809 15.4931 15.572 15.056C15.9039 14.8106 16.2376 14.5676 16.5783 14.3171C16.7442 14.5019 16.9101 14.6866 17.103 14.9007C16.9364 15.0372 16.7799 15.1719 16.6159 15.2971C16.4543 15.4198 16.2871 15.535 16.1193 15.6496C15.5232 16.0566 15.2483 16.6321 15.2377 17.3415C15.2302 17.8412 15.2383 18.3415 15.2339 18.8412C15.2289 19.3596 15.0104 19.7785 14.5977 20.0841C14.4725 20.1768 14.4368 20.2694 14.4381 20.4141C14.4443 21.0465 14.4443 21.6796 14.4399 22.312C14.433 23.3314 13.7674 23.9945 12.7499 23.9976C12.2659 23.9995 11.7812 24.002 11.2972 23.997C10.3574 23.9876 9.67171 23.3095 9.66044 22.3709C9.6523 21.7071 9.66482 21.0428 9.6523 20.379C9.65042 20.2832 9.58467 20.1605 9.50828 20.0991C9.09126 19.7641 8.8721 19.3377 8.86333 18.8055C8.8577 18.4567 8.86208 18.1079 8.81011 17.7272C8.65106 17.8925 8.49452 18.061 8.33172 18.2232C8.07812 18.4767 7.93473 18.488 7.63355 18.2839C7.31295 18.066 6.99424 17.8449 6.64421 17.6045C6.56406 17.9846 6.4883 18.3321 6.41754 18.6802C6.32299 19.1492 6.24034 19.2194 5.7632 19.2194C5.34117 19.2194 4.91976 19.22 4.49773 19.2194C4.15208 19.2188 4.04626 19.1355 3.96737 18.7905C3.89097 18.4561 3.8246 18.1198 3.75197 17.7855C3.7407 17.7347 3.72191 17.6853 3.69937 17.6114C3.36813 17.8393 3.05567 18.056 2.74134 18.2707C2.41949 18.4911 2.28111 18.4793 2.00685 18.2062C1.67436 17.8756 1.34312 17.5444 1.0125 17.2119C0.740124 16.9383 0.728227 16.8011 0.949262 16.4774C1.16341 16.1637 1.37944 15.8506 1.61425 15.5094C1.24231 15.4292 0.903553 15.3466 0.561042 15.2852C0.341259 15.2457 0.144644 15.18 0 15.0009V13.0792L0 13.0767ZM17.0617 12.9972C17.1118 12.6428 17.165 12.3203 17.2026 11.996C17.2708 11.4118 17.5833 11.0129 18.1024 10.8639C18.592 10.723 19.076 10.9096 19.4305 11.3767C19.6415 11.6553 19.8519 11.9352 20.0698 12.2245C20.2914 12.0592 20.4974 11.9071 20.7022 11.7524C20.9113 11.5946 21.1198 11.4355 21.334 11.2727C21.1011 10.9609 20.8794 10.6691 20.6627 10.373C20.4624 10.0981 20.3547 9.79375 20.4167 9.45061C20.5475 8.7299 21.1574 8.32978 21.9107 8.45564C22.2388 8.51074 22.5688 8.55019 22.9169 8.59966C22.9564 8.31726 22.9914 8.06366 23.0278 7.81069C23.0641 7.55835 23.1016 7.30601 23.1411 7.03801C22.776 6.98541 22.4304 6.93344 22.0841 6.88585C21.7122 6.83451 21.3985 6.68172 21.1818 6.36426C20.7999 5.80384 20.9226 5.13761 21.4949 4.6899C21.7817 4.46573 22.0766 4.25096 22.3728 4.02805C22.0472 3.59474 21.7385 3.18523 21.4229 2.7657C21.0848 3.01491 20.7729 3.26037 20.4442 3.48266C20.0234 3.76694 19.5757 3.78134 19.1455 3.51209C18.7085 3.23783 18.5275 2.82519 18.5933 2.31111C18.6415 1.93604 18.6941 1.56222 18.7461 1.17838C18.2144 1.10449 17.7085 1.03436 17.1857 0.961101C17.1274 1.34682 17.0729 1.69997 17.021 2.05313C16.9408 2.59413 16.6459 2.95668 16.1137 3.09193C15.5633 3.23219 15.14 3.00991 14.8106 2.5741C14.6002 2.29545 14.3905 2.01681 14.1726 1.7269C13.7443 2.04875 13.3304 2.36057 12.9102 2.67616C13.1588 3.00991 13.3974 3.30984 13.6134 3.62417C13.9121 4.0581 13.9327 4.52146 13.6516 4.96479C13.3642 5.41875 12.9278 5.5803 12.398 5.50203C12.0524 5.45069 11.7061 5.40435 11.3285 5.35175C11.2534 5.87585 11.1795 6.38743 11.1044 6.91215C11.47 6.96788 11.8151 7.02611 12.1613 7.0712C12.7136 7.14258 13.083 7.435 13.2402 7.96849C13.3817 8.44688 13.1864 8.92965 12.7318 9.27842C12.4544 9.49131 12.1739 9.70045 11.8752 9.92587C12.1951 10.3523 12.5057 10.7656 12.8213 11.1857C13.1813 10.924 13.5051 10.666 13.8513 10.4431C14.3592 10.1162 15.0041 10.2302 15.393 10.6904C15.681 11.031 15.6948 11.4268 15.6303 11.8413C15.5827 12.1462 15.5445 12.4531 15.5 12.7737C16.0298 12.8494 16.5294 12.9208 17.0611 12.9966L17.0617 12.9972ZM7.3261 15.0999C6.62918 16.2946 5.45325 16.6233 4.50837 16.3447C3.47583 16.0403 2.77077 15.0999 2.76889 14.0479C2.76701 12.8864 3.45329 12.098 4.86779 11.6447C4.81206 11.4518 4.74944 11.2596 4.70248 11.0642C4.65364 10.8614 4.62045 10.6547 4.57161 10.4068C4.54093 10.4951 4.52089 10.5439 4.50712 10.5952C4.32365 11.2759 3.76386 11.4856 3.17715 11.0912C2.93232 10.9265 2.68999 10.7574 2.39946 10.5583C2.29113 10.6854 2.1922 10.8163 2.07823 10.9321C1.95864 11.053 1.82464 11.1594 1.69753 11.2721C1.91293 11.5865 2.10641 11.8507 2.27986 12.1275C2.5967 12.6328 2.36376 13.2113 1.78707 13.3566C1.5078 13.4274 1.22352 13.4762 0.943627 13.5451C0.889151 13.5582 0.804619 13.6146 0.80274 13.654C0.790843 13.9396 0.796479 14.2264 0.796479 14.5075C1.11833 14.5764 1.40887 14.6327 1.6969 14.7004C2.40634 14.8669 2.62738 15.4436 2.21787 16.0497C2.05319 16.2933 1.88663 16.5356 1.73885 16.7517C1.98556 17.0071 2.21161 17.242 2.4483 17.4874C2.70377 17.3133 2.95799 17.1349 3.21722 16.9639C3.76574 16.6033 4.34619 16.8293 4.50086 17.4642C4.57725 17.7792 4.64112 18.0973 4.7125 18.421C4.98989 18.421 5.24787 18.431 5.50397 18.4135C5.56471 18.4091 5.65237 18.3227 5.67053 18.2582C5.74066 18.0034 5.78261 17.741 5.84523 17.4837C6.0074 16.818 6.58473 16.5945 7.15516 16.9752C7.40688 17.1436 7.65484 17.3171 7.94099 17.5131C8.14262 17.2983 8.33673 17.086 8.53835 16.88C8.7907 16.6214 8.7932 16.6239 8.61224 16.3152C8.59659 16.2883 8.58281 16.2576 8.56089 16.2376C8.15765 15.865 7.75377 15.4937 7.3261 15.0999ZM3.59918 14.0166C3.58228 14.7755 4.07507 15.3923 4.8465 15.5782C5.52776 15.7423 6.27102 15.3804 6.58786 14.7454C6.65673 14.6077 6.63294 14.5288 6.53275 14.4248C6.03245 13.9045 5.61605 13.3209 5.30735 12.6685C5.21218 12.4668 5.08632 12.4399 4.90348 12.4731C4.14707 12.6102 3.61609 13.2383 3.59856 14.0166H3.59918ZM10.4832 22.0277C10.3617 22.7923 10.7024 23.1986 11.4513 23.1993C11.8652 23.1993 12.279 23.1999 12.6923 23.1993C13.403 23.1974 13.7724 22.7246 13.6078 22.0277H10.4832ZM10.4688 20.4291V21.1811H13.6222V20.4291H10.4688Z" fill="#7E76FF"/>
<path d="M5.25002 0.000244141C5.52115 1.0522 5.79291 2.10478 6.07155 3.18679C5.80919 3.25566 5.56623 3.31953 5.29323 3.39154C5.02022 2.32393 4.7516 1.27448 4.48047 0.213766C4.71841 0.138626 4.93694 0.069122 5.1561 0.000244141C5.18741 0.000244141 5.21871 0.000244141 5.25002 0.000244141Z" fill="#7E76FF"/>
<path d="M12.4475 16.817H11.6629C11.6354 16.6373 11.6197 16.4532 11.579 16.2754C11.3962 15.4814 10.9416 14.8853 10.2014 14.5497C9.43503 14.2028 8.70492 13.8139 8.11007 13.2059C7.18961 12.2642 6.66175 11.144 6.50521 9.83214C6.26351 7.81089 7.3092 5.62558 9.085 4.54858C9.22401 4.76774 9.36302 4.98752 9.50891 5.21795C8.88776 5.62621 8.38996 6.12276 8.00299 6.73201C6.47891 9.13209 7.4526 12.4207 10.0437 13.5866C10.646 13.8577 11.224 14.1483 11.6573 14.6699C12.1707 15.2879 12.43 15.9942 12.4481 16.817H12.4475Z" fill="#7E76FF"/>
<path d="M4.32293 4.15665C4.16514 4.37831 4.02112 4.58056 3.85644 4.81162C2.92471 4.146 2.00237 3.48728 1.0625 2.81666C1.22029 2.59563 1.36869 2.38899 1.53024 2.16357C2.46072 2.82793 3.37993 3.48352 4.32293 4.15665Z" fill="#7E76FF"/>
<path d="M0.593473 7.6608C0.525221 7.3759 0.46824 7.1367 0.40625 6.87872C1.47636 6.61135 2.52331 6.34962 3.59029 6.0835C3.65666 6.34461 3.71928 6.59069 3.78878 6.86182C2.72117 7.12856 1.66859 7.39155 0.593473 7.6608Z" fill="#7E76FF"/>
<path d="M18.959 17.5321C19.1399 17.3148 19.2996 17.1232 19.4737 16.9141C20.2708 17.5778 21.0591 18.2346 21.8669 18.9078C21.6947 19.115 21.5331 19.3098 21.3534 19.5258C20.5538 18.8602 19.7661 18.204 18.959 17.5315V17.5321Z" fill="#7E76FF"/>
<path d="M22.3968 14.8266V15.6243C22.3336 15.6312 22.2747 15.6424 22.2152 15.6424C21.42 15.6437 20.6248 15.6387 19.8302 15.6468C19.6567 15.6487 19.6035 15.5992 19.6035 15.4233C19.6035 14.8259 19.5973 14.8259 20.2015 14.8259H22.3968V14.8266Z" fill="#7E76FF"/>
<path d="M18.0333 20.8025H17.2381C17.2312 20.7393 17.2193 20.6798 17.2193 20.6203C17.218 19.8251 17.223 19.0305 17.2149 18.2353C17.213 18.0637 17.2594 18.0067 17.4372 18.0073C18.0333 18.0092 18.0333 18.0017 18.0333 18.6059C18.0333 19.3292 18.0333 20.053 18.0333 20.8019V20.8025Z" fill="#7E76FF"/>
<path d="M11.6472 17.6362H12.4437C12.4493 17.6838 12.4568 17.7208 12.4568 17.7577C12.4581 18.099 12.4568 18.4402 12.4568 18.8241C12.2082 18.8241 11.9715 18.8284 11.7355 18.8191C11.7048 18.8178 11.6516 18.7483 11.651 18.7101C11.6441 18.3544 11.6472 17.9988 11.6472 17.6369V17.6362Z" fill="#7E76FF"/>
<path d="M20.3059 6.99129C20.2959 8.75519 18.8689 10.1728 17.1081 10.1672C15.3598 10.1616 13.9159 8.70761 13.9278 6.96437C13.9397 5.2061 15.3742 3.78659 17.1338 3.79348C18.897 3.80037 20.3153 5.23053 20.3059 6.99067V6.99129ZM19.5019 6.98942C19.505 5.67823 18.4374 4.59685 17.135 4.59184C15.8288 4.58683 14.755 5.65068 14.7412 6.96312C14.728 8.26178 15.7994 9.3488 17.1081 9.36508C18.3955 9.38136 19.4988 8.28557 19.5013 6.98879L19.5019 6.98942Z" fill="#7E76FF"/>
</svg>
