<svg width="24" height="24" viewBox="0 0 24 24" fill="none" xmlns="http://www.w3.org/2000/svg">
<path d="M24.0001 7.40578C23.9261 7.78679 23.8704 8.1719 23.7741 8.54703C23.4277 9.89316 22.7121 11.0168 21.6695 11.9303C21.5204 12.0612 21.4605 12.1892 21.4634 12.3876C21.4752 13.1684 21.4646 13.9498 21.4705 14.7306C21.4722 14.9619 21.4147 15.1532 21.1904 15.2478C20.9603 15.3446 20.7695 15.2624 20.6004 15.0922C20.0944 14.582 19.5784 14.0818 19.08 13.5641C18.9584 13.4378 18.8504 13.4238 18.6931 13.4531C17.1879 13.7314 15.6803 13.7525 14.1921 13.3721C12.7796 13.011 11.616 12.2267 10.7073 11.0931C9.51906 9.61137 8.99306 7.90655 9.24549 6.0209C9.6036 3.34508 11.0718 1.48116 13.5721 0.46554C14.0987 0.251849 14.684 0.181989 15.2423 0.0457908C15.3022 0.0299401 15.3621 0.0146765 15.422 0C16.2033 0 16.9841 0 17.7655 0C17.8413 0.0164377 17.9164 0.0322884 17.9921 0.0487261C18.4101 0.137959 18.8422 0.185512 19.2432 0.323471C21.6395 1.15005 23.1753 2.78972 23.8111 5.25244C23.8944 5.57415 23.9379 5.90643 23.9995 6.23401V7.40578H24.0001ZM20.4813 13.6451C20.4983 13.6339 20.5153 13.6228 20.5323 13.6116C20.5323 13.0968 20.5476 12.5807 20.5265 12.0671C20.5141 11.7694 20.6298 11.5733 20.8464 11.3843C21.1634 11.1084 21.4857 10.8272 21.7458 10.5008C22.8225 9.15053 23.2563 7.60656 22.9692 5.89997C22.6023 3.71845 21.3577 2.21029 19.3248 1.35494C18.16 0.864742 16.9301 0.910533 15.7038 0.958085C14.9952 0.985677 14.3148 1.14771 13.6661 1.43126C11.2251 2.49677 9.78089 5.08454 10.2112 7.71634C10.4983 9.47283 11.4029 10.8254 12.8947 11.7829C13.7723 12.3459 14.7392 12.6424 15.7854 12.6676C16.7757 12.6917 17.7702 12.7522 18.7377 12.4686C19.06 12.3741 19.306 12.4334 19.5349 12.6841C19.8373 13.0163 20.1643 13.3257 20.4807 13.6451H20.4813Z" fill="#7E76FF"/>
<path d="M7.87572 22.3689C7.87572 22.08 7.87455 21.8317 7.87572 21.584C7.87749 21.1671 8.04186 21.001 8.45692 21.0004C10.0502 20.9992 11.6441 21.0004 13.2374 21.0004C14.7402 21.0004 15.7488 19.9918 15.75 18.4913C15.7506 17.4839 15.7512 16.4759 15.7494 15.4685C15.7494 15.2519 15.8281 15.0629 16.0335 15.0059C16.1727 14.9678 16.367 14.9883 16.4867 15.0629C16.5895 15.1269 16.6758 15.3042 16.677 15.4327C16.6899 16.5963 16.7157 17.7616 16.6728 18.924C16.6188 20.3793 15.3819 21.6902 13.9401 21.8886C13.7323 21.9174 13.5209 21.9338 13.3113 21.9344C11.9053 21.9385 10.4993 21.9362 9.09329 21.9368H8.81209C8.81209 22.437 8.8068 22.9189 8.81444 23.4003C8.81855 23.6445 8.77452 23.8547 8.52619 23.9598C8.27728 24.0655 8.09059 23.9481 7.92093 23.7778C7.35265 23.2084 6.78614 22.6366 6.20906 22.0759C6.13098 22.0002 5.99771 21.9438 5.88911 21.9426C5.03024 21.9321 4.17078 21.9391 3.31132 21.9362C1.44564 21.9303 0.00499002 20.4914 0.00264178 18.6246C-0.000880592 16.2423 -0.000880592 13.8594 0.00264178 11.4771C0.00499002 9.59733 1.44447 8.16138 3.32717 8.15786C4.85823 8.15492 6.38928 8.15668 7.92034 8.15786C8.22972 8.15786 8.41934 8.28584 8.47277 8.5236C8.53441 8.79541 8.34068 9.06134 8.05478 9.08894C7.94617 9.0995 7.83639 9.09305 7.72661 9.09305C6.29712 9.09305 4.86762 9.09305 3.43813 9.09305C1.9511 9.09363 0.937831 10.1051 0.937244 11.5904C0.936657 13.8946 0.936657 16.1994 0.937244 18.5036C0.937244 19.9883 1.9511 20.9992 3.43813 21.0004C4.35981 21.001 5.2815 21.0051 6.20319 20.9975C6.44095 20.9957 6.60063 21.0803 6.76324 21.2617C7.10139 21.6386 7.47887 21.979 7.87572 22.3694V22.3689Z" fill="#7E76FF"/>
<path d="M7.94774 15.4676C6.35563 15.4676 4.76352 15.4676 3.17082 15.4676C3.09275 15.4676 3.01408 15.4717 2.93717 15.4612C2.7 15.4289 2.52917 15.2269 2.53328 14.9915C2.53739 14.7655 2.70411 14.5729 2.9313 14.5401C3.00821 14.5289 3.08687 14.533 3.16495 14.533C6.34918 14.533 9.53399 14.533 12.7182 14.533C12.7963 14.533 12.875 14.5289 12.9519 14.5395C13.189 14.5718 13.3599 14.7737 13.3558 15.0097C13.3516 15.2357 13.1849 15.4283 12.9577 15.4612C12.8808 15.4723 12.8022 15.4682 12.7241 15.4682C11.132 15.4682 9.53986 15.4682 7.94716 15.4682L7.94774 15.4676Z" fill="#7E76FF"/>
<path d="M7.00666 18.0925C5.73391 18.0925 4.46058 18.0925 3.18783 18.0925C3.10975 18.0925 3.03108 18.0966 2.95359 18.0878C2.71289 18.0614 2.53678 17.8671 2.53325 17.6316C2.52973 17.3868 2.71113 17.1861 2.9624 17.1602C3.01641 17.1544 3.07159 17.1567 3.12619 17.1567C5.72687 17.1567 8.32755 17.1567 10.9282 17.1567C10.9828 17.1567 11.038 17.1544 11.092 17.1608C11.328 17.1884 11.5124 17.388 11.5171 17.617C11.5223 17.8518 11.3298 18.0702 11.0826 18.0866C10.8648 18.1007 10.6453 18.0925 10.4269 18.0925C9.28681 18.0925 8.14615 18.0925 7.00608 18.0925H7.00666Z" fill="#7E76FF"/>
<path d="M6.42258 11.907C7.50689 11.907 8.59178 11.907 9.67608 11.907C9.75416 11.907 9.83282 11.9029 9.90973 11.9141C10.1369 11.9464 10.3042 12.1389 10.3089 12.3644C10.3136 12.5998 10.1434 12.8023 9.90679 12.8358C9.83752 12.8457 9.76649 12.8422 9.69662 12.8422C7.51217 12.8422 5.32712 12.8422 3.14267 12.8422C3.07281 12.8422 3.00119 12.8452 2.9325 12.8352C2.70531 12.8017 2.53799 12.6103 2.5333 12.3843C2.5286 12.1489 2.69885 11.9464 2.93544 11.9135C3.01234 11.9029 3.09101 11.907 3.16909 11.907C4.25339 11.907 5.33828 11.907 6.42258 11.907Z" fill="#7E76FF"/>
<path d="M13.3561 17.6132C13.362 17.8633 13.1571 18.0811 12.907 18.0905C12.6481 18.0999 12.4238 17.8833 12.4238 17.6238C12.4238 17.3731 12.634 17.1612 12.8847 17.1582C13.1348 17.1553 13.3502 17.3631 13.3561 17.6132Z" fill="#7E76FF"/>
<path d="M16.258 7.66978C16.258 7.52125 16.2556 7.37331 16.258 7.22479C16.2674 6.71228 16.4717 6.4346 16.9671 6.28314C17.3834 6.15575 17.6499 5.89568 17.745 5.46595C17.8706 4.90178 17.4791 4.34994 16.8738 4.24134C16.3366 4.14506 15.7737 4.55659 15.7003 5.09786C15.6885 5.1824 15.6797 5.26811 15.6603 5.35147C15.5964 5.62622 15.4015 5.76065 15.1314 5.72073C14.8948 5.68551 14.7293 5.47417 14.7387 5.21997C14.7774 4.20553 15.5876 3.34313 16.5544 3.28795C17.6358 3.22572 18.5281 3.93959 18.6913 4.99806C18.8305 5.90272 18.281 6.82147 17.408 7.12205C17.2507 7.17606 17.1838 7.24533 17.1955 7.41734C17.212 7.65804 17.2002 7.90108 17.1996 8.14295C17.1979 8.51984 17.0235 8.74938 16.7335 8.75643C16.4353 8.76406 16.2597 8.53628 16.2574 8.13767C16.2562 7.98151 16.2574 7.82535 16.2574 7.66919L16.258 7.66978Z" fill="#7E76FF"/>
<path d="M16.7323 10.6026C16.474 10.6056 16.2709 10.413 16.2639 10.1576C16.2562 9.89582 16.4641 9.67332 16.7194 9.66804C16.9654 9.66334 17.2014 9.89875 17.1979 10.1453C17.1944 10.3913 16.9824 10.5997 16.7329 10.6026H16.7323Z" fill="#7E76FF"/>
</svg>
