<svg width="28" height="24" viewBox="0 0 28 24" fill="none" xmlns="http://www.w3.org/2000/svg">
<path d="M17.0619 9.31721C17.452 8.84296 17.787 8.42603 18.1317 8.01804C18.4556 7.63537 18.7965 7.26684 19.1174 6.88193C19.3899 6.55435 19.7354 6.43374 20.1501 6.44044C20.7166 6.45012 21.2832 6.44267 21.8498 6.44267C23.2807 6.44267 24.7109 6.44118 26.1418 6.44267C27.1923 6.44416 27.875 7.13506 27.8758 8.19226C27.8758 9.6969 27.8237 11.2038 27.8929 12.7054C27.9443 13.8289 27.0784 14.8422 25.7048 14.4312V14.761C25.7048 17.2871 25.7048 19.814 25.7048 22.3401C25.7048 23.133 25.1591 23.7941 24.4272 23.8968C23.6448 24.0063 22.9323 23.5298 22.7313 22.7429C22.6836 22.5575 22.6791 22.3565 22.6791 22.1629C22.6754 20.4356 22.6769 18.7076 22.6769 16.9797C22.6769 16.9238 22.6769 16.868 22.6769 16.8121C22.6732 16.4272 22.5183 16.2136 22.2451 16.215C21.9719 16.2165 21.8148 16.4324 21.8148 16.8151C21.814 18.6637 21.817 20.5116 21.8125 22.3602C21.8111 23.0779 21.4485 23.6139 20.838 23.8328C19.961 24.147 18.9715 23.5335 18.8524 22.5969C18.8301 22.4227 18.8263 22.2448 18.8263 22.0691C18.8248 18.8089 18.8256 15.5487 18.8256 12.2885C18.8256 12.1895 18.8256 12.0897 18.8256 11.9431C18.1846 12.465 17.8265 13.2385 17.0127 13.4976C17.0127 13.8252 17.0127 14.149 17.0127 14.4736C17.0127 15.105 16.936 15.1832 16.3144 15.1832C15.0323 15.1832 13.7503 15.1832 12.4683 15.1832C11.6322 15.1832 10.7961 15.1832 9.96002 15.1832H9.59744C9.69795 15.3336 9.76049 15.4303 9.82675 15.5249C11.2234 17.5269 12.6216 19.5281 14.0183 21.5301C14.2208 21.8204 14.2283 22.0073 14.0518 22.1756C13.7965 22.4183 13.5523 22.387 13.3334 22.075C12.679 21.1399 12.0275 20.2026 11.3746 19.266C10.7164 18.322 10.0568 17.3787 9.39792 16.4354C9.35101 16.3692 9.30039 16.3051 9.19839 16.1681C9.19839 16.3386 9.19839 16.4347 9.19839 16.53C9.19839 17.7376 9.20509 18.9451 9.19094 20.152C9.18871 20.3113 9.12394 20.5183 9.01226 20.6128C8.91399 20.6962 8.67128 20.7148 8.5596 20.6478C8.43825 20.5749 8.3303 20.3731 8.32806 20.2257C8.30945 19.0926 8.31764 17.9594 8.31764 16.8263C8.31764 16.6335 8.31764 16.4406 8.31764 16.1585C8.20299 16.3133 8.13375 16.4027 8.06898 16.4942C6.77949 18.322 5.49001 20.1505 4.20053 21.9775C4.14692 22.0527 4.0963 22.1353 4.02631 22.1927C3.85657 22.3334 3.66002 22.3371 3.48506 22.2165C3.31605 22.0996 3.26096 21.9202 3.34584 21.7244C3.39348 21.6157 3.46049 21.5137 3.52973 21.4154C4.93014 19.4388 6.33205 17.4636 7.7332 15.4877C7.78532 15.4147 7.83148 15.338 7.91114 15.2167H7.57165C5.30463 15.2167 3.03835 15.2167 0.771337 15.2167C0.189134 15.2167 0.10426 15.134 0.10426 14.5645C0.103516 10.7511 0.103516 6.9333 0.103516 3.11622C0.103516 2.55412 0.204768 2.45361 0.768359 2.45361C5.97989 2.45361 11.1914 2.45361 16.403 2.45361C16.9569 2.45361 17.0619 2.56008 17.0619 3.12441C17.0619 5.06534 17.0619 7.00701 17.0619 8.94793V9.31646V9.31721ZM16.1372 14.3314C16.1372 14.1751 16.1268 14.0366 16.1394 13.9004C16.161 13.6681 16.1096 13.5147 15.8662 13.4031C15.6838 13.3197 15.5155 13.1492 15.4038 12.9772C14.6296 11.7882 13.8635 10.5933 13.1108 9.39017C12.7742 8.85189 12.7646 8.28383 13.0899 7.73067C13.1681 7.5974 13.1703 7.51253 13.0765 7.38745C12.7482 6.94968 12.431 6.50298 12.1139 6.05702C11.9084 5.76815 11.9344 5.5582 12.1853 5.38994C12.4452 5.21573 12.6239 5.26189 12.8316 5.56564C13.1405 6.01756 13.4421 6.47469 13.7555 6.92288C13.7987 6.98467 13.9007 7.05838 13.9602 7.04721C14.7211 6.90352 15.252 7.22812 15.6495 7.84532C15.7873 8.05899 15.9332 8.26894 16.1186 8.54515V3.35446H0.996177V14.3314H16.1379H16.1372ZM24.7556 15.4594C24.7556 13.2489 24.7556 11.0378 24.7556 8.82732C24.7556 8.73426 24.7511 8.6412 24.76 8.54888C24.7816 8.3218 24.9119 8.19821 25.1375 8.17886C25.4628 8.15057 25.6281 8.32999 25.6289 8.72979C25.6319 10.16 25.6274 11.5909 25.6333 13.0211C25.6348 13.4135 25.9088 13.6979 26.2595 13.7038C26.593 13.7098 26.8685 13.4395 26.9079 13.065C26.9146 13.0003 26.9139 12.9355 26.9139 12.87C26.9139 11.2812 26.9154 9.69318 26.9139 8.10441C26.9139 7.50136 26.6905 7.27726 26.0942 7.27652C24.1339 7.27577 22.1736 7.28024 20.2133 7.27131C19.949 7.26982 19.7577 7.34203 19.5902 7.5505C18.8025 8.5258 18.0044 9.49216 17.21 10.4623C16.875 10.8717 16.6032 10.8591 16.3181 10.4176C15.8401 9.6768 15.3666 8.93304 14.8857 8.19449C14.6474 7.82968 14.3102 7.74704 13.9818 7.95699C13.655 8.1662 13.5843 8.51165 13.8136 8.87348C14.5484 10.0334 15.287 11.1919 16.03 12.3466C16.3084 12.7792 16.7477 12.8134 17.1013 12.4374C17.6433 11.8627 18.1853 11.2887 18.7169 10.705C18.909 10.4943 19.1033 10.3014 19.4063 10.4302C19.6944 10.5531 19.6594 10.8323 19.6594 11.0824C19.6594 14.7513 19.6594 18.421 19.6602 22.0899C19.6602 22.2292 19.6587 22.3699 19.681 22.5069C19.7279 22.7942 19.9885 23.0243 20.2506 23.028C20.561 23.0325 20.806 22.8471 20.8752 22.5404C20.9013 22.4242 20.9042 22.3014 20.905 22.1815C20.9072 20.324 20.9005 18.4657 20.9117 16.6081C20.9162 15.8108 21.6406 15.2316 22.4223 15.3693C23.0931 15.4869 23.5078 16.0148 23.5093 16.7742C23.513 18.5394 23.51 20.3039 23.5115 22.0691C23.5115 22.1986 23.5093 22.3304 23.5294 22.4585C23.5733 22.7391 23.8421 22.9886 24.093 22.9953C24.3863 23.0034 24.6543 22.8032 24.7236 22.5061C24.7526 22.3818 24.7548 22.2485 24.7548 22.1197C24.7563 19.8996 24.7563 17.6795 24.7563 15.4594H24.7556Z" fill="#7E76FF"/>
<path d="M19.3953 2.84436C19.402 1.32334 20.6476 0.0807585 22.1626 0.084481C23.6933 0.0882035 24.9307 1.33748 24.9255 2.87637C24.9203 4.39665 23.6569 5.63179 22.1172 5.62062C20.626 5.6102 19.3879 4.34826 19.3946 2.84436H19.3953ZM24.0492 2.81979C24.0537 1.77302 23.2161 0.925772 22.1708 0.919816C21.133 0.91386 20.2731 1.76185 20.2627 2.80044C20.253 3.82711 21.1151 4.69669 22.1507 4.70413C23.1886 4.71158 24.0447 3.8621 24.0492 2.82054V2.81979Z" fill="#7E76FF"/>
<path d="M7.50747 12.8845C5.96635 12.8845 4.42597 12.886 2.88484 12.8837C2.51259 12.8837 2.33689 12.7326 2.35252 12.434C2.36443 12.2003 2.48355 12.0529 2.72626 12.0283C2.8089 12.0201 2.89303 12.0216 2.97642 12.0216C5.98347 12.0216 8.99127 12.0216 11.9983 12.0216C12.4398 12.0216 12.6431 12.1541 12.6527 12.4467C12.6632 12.749 12.4592 12.8845 11.9901 12.8845C10.4959 12.8845 9.0017 12.8845 7.50673 12.8845H7.50747Z" fill="#7E76FF"/>
<path d="M7.05732 10.469C5.66435 10.469 4.27138 10.4757 2.87841 10.4593C2.71909 10.4571 2.50839 10.3633 2.41384 10.2412C2.22995 10.0029 2.40118 9.66267 2.70047 9.60013C2.77195 9.58524 2.84863 9.58822 2.92234 9.58822C5.68966 9.58822 8.45773 9.58748 11.2251 9.58822C11.5914 9.58822 11.7604 9.71702 11.7752 9.99695C11.7916 10.2985 11.6256 10.466 11.2921 10.4675C10.5029 10.4712 9.71297 10.469 8.92379 10.469C8.30139 10.469 7.67898 10.469 7.05732 10.469Z" fill="#7E76FF"/>
<path d="M6.63697 7.17727C7.88997 7.17727 9.14223 7.17876 10.3952 7.17578C10.6268 7.17578 10.8196 7.22194 10.8993 7.47284C10.9804 7.72671 10.8494 7.97166 10.5888 8.02601C10.4719 8.05057 10.3491 8.04983 10.2292 8.04983C7.83488 8.05132 5.44055 8.05057 3.04697 8.05057C3.00081 8.05057 2.9539 8.05132 2.90774 8.05057C2.55038 8.04239 2.35383 7.88529 2.3516 7.60536C2.34862 7.31798 2.52507 7.17801 2.90626 7.17801C4.14958 7.17653 5.3929 7.17801 6.63697 7.17801V7.17727Z" fill="#7E76FF"/>
<path d="M5.52439 5.57743C4.63396 5.57743 3.74278 5.58041 2.85236 5.57594C2.51882 5.57445 2.3513 5.4263 2.35354 5.14934C2.35503 4.91631 2.46447 4.75997 2.70494 4.72349C2.80545 4.7086 2.90819 4.70785 3.01019 4.70785C4.70841 4.70711 6.40588 4.70785 8.10409 4.70785C8.13164 4.70785 8.15993 4.70785 8.18748 4.70785C8.58877 4.71455 8.76224 4.8508 8.75703 5.15381C8.75181 5.44342 8.58058 5.57594 8.19716 5.57669C7.30673 5.57892 6.41556 5.57669 5.52513 5.57669L5.52439 5.57743Z" fill="#7E76FF"/>
<path d="M22.5874 9.73127C22.5874 9.87943 22.5941 10.0276 22.5859 10.1743C22.571 10.4445 22.4266 10.5845 22.169 10.5889C21.9077 10.5934 21.7476 10.4661 21.732 10.1951C21.7141 9.88241 21.7141 9.56674 21.7335 9.25404C21.7491 8.99272 21.927 8.85201 22.1757 8.8602C22.4191 8.86839 22.5733 9.02474 22.5867 9.28755C22.5941 9.43496 22.5882 9.58312 22.5874 9.73127Z" fill="#7E76FF"/>
<path d="M22.5886 12.3271C22.5886 12.4753 22.5953 12.6234 22.5871 12.7708C22.5737 13.0284 22.4107 13.1975 22.1702 13.193C21.929 13.1885 21.751 13.0731 21.7376 12.8185C21.7198 12.4872 21.7205 12.1537 21.7384 11.8223C21.7525 11.564 21.9312 11.4583 22.1769 11.462C22.4226 11.465 22.5693 11.6042 22.5856 11.8559C22.5961 12.0122 22.5879 12.17 22.5879 12.3271C22.5879 12.3271 22.5879 12.3271 22.5886 12.3271Z" fill="#7E76FF"/>
</svg>
