<svg width="24" height="24" viewBox="0 0 24 24" fill="none" xmlns="http://www.w3.org/2000/svg">
<path d="M6.01233 17.1704C6.14941 16.8473 6.27192 16.5579 6.39906 16.2579C5.12828 15.1997 4.79983 14.7441 4.52766 13.6329C3.68533 13.5846 3.08139 13.1932 2.89862 12.333C2.74499 11.6092 3.04828 11.0463 3.60917 10.6656C3.40058 10.3027 3.1304 9.97223 3.01517 9.59411C2.89134 9.18685 2.85293 8.73059 2.88538 8.30413C2.93372 7.65847 3.73036 7.34525 4.27072 7.73529C4.42833 7.84919 4.50713 7.83793 4.63692 7.70681C5.0561 7.28499 5.46005 6.84131 5.92227 6.47113C7.36589 5.31491 9.45118 5.4255 10.7948 6.69827C11.0749 6.96381 11.3842 7.21347 11.3961 7.64258C12.4 7.75648 13.0397 8.28227 13.1536 9.14248C13.2105 9.57358 13.1655 10.0173 13.1814 10.4543C13.1847 10.5457 13.2311 10.6656 13.2993 10.7205C13.882 11.19 14.1078 11.837 13.9026 12.4992C13.6993 13.1561 13.1423 13.5667 12.3947 13.6124C12.3709 13.6137 12.347 13.6223 12.308 13.6309C12.0331 14.8024 11.3742 15.7003 10.3452 16.295C10.6213 16.5831 10.8835 16.8771 11.1716 17.144C11.2484 17.2155 11.4034 17.2108 11.5239 17.2254C12.6344 17.3565 13.6244 17.777 14.4919 18.4783C15.6601 19.4226 16.3428 20.657 16.5885 22.1291C16.6858 22.7111 16.7236 23.3032 16.7911 23.9117H15.966C15.9269 22.9396 15.8375 21.9642 15.4521 21.0483C15.0641 20.1272 14.4509 19.3882 13.5728 18.8001C13.5728 18.9313 13.5728 19.0246 13.5728 19.118C13.5728 19.6471 13.5761 20.1755 13.5714 20.7046C13.5688 21.0629 13.3258 21.2331 12.9907 21.1073C12.5669 20.9477 12.1484 20.7748 11.6967 20.596C11.5755 21.1536 11.4358 21.694 11.3464 22.243C11.2577 22.7873 11.2213 23.3402 11.1597 23.9091H10.367C10.4213 23.3475 10.4293 22.7846 10.5385 22.241C10.8067 20.9086 11.1219 19.5855 11.4173 18.2584C11.4318 18.1942 11.4424 18.13 11.4703 17.9896C11.3623 18.0393 11.2749 18.0505 11.2398 18.0995C11.0253 18.4015 10.8326 18.718 10.6147 19.0173C10.2054 19.5776 9.78427 20.1285 9.35914 20.696C9.76308 21.29 9.63726 21.835 9.21875 22.3734C8.87572 22.8151 8.56846 23.2853 8.23007 23.7641C8.0069 23.6064 7.80029 23.4601 7.57713 23.3018C7.93009 22.8012 8.27642 22.3092 8.62342 21.8178C8.90685 21.4165 8.87307 21.2477 8.45456 21.0079C7.69633 20.5735 6.93677 20.1411 6.15735 19.6968C5.30178 20.9179 4.45084 22.1324 3.58732 23.3647C3.3635 23.2085 3.15689 23.0634 2.9324 22.9072C3.38667 22.2562 3.82837 21.6225 4.30913 20.9331C4.10451 21.0099 3.96412 21.0689 3.81976 21.1165C3.50918 21.2192 3.26681 21.053 3.26416 20.7265C3.2582 20.1007 3.26218 19.4756 3.26218 18.8008C1.42124 20.0431 0.906701 21.8509 0.878226 23.9058H0.121321C-0.126345 20.3822 2.22847 17.2141 6.01233 17.1711V17.1704ZM7.87976 16.2361C7.9281 16.1824 7.95128 16.1599 7.97114 16.1347C8.39562 15.5844 8.86778 15.4553 9.51873 15.6964C9.59554 15.7248 9.71077 15.707 9.78825 15.6692C10.4756 15.3374 10.9762 14.8209 11.2987 14.1283C11.7345 13.1939 11.5477 12.2045 11.5941 11.2139C10.6524 11.1172 10.2134 10.3371 9.58627 9.81661C8.67309 10.5927 7.63541 11.0496 6.46263 11.2112C6.76261 11.2629 7.16789 11.1212 7.21424 11.6059C7.22484 11.7185 7.13345 11.882 7.03809 11.9529C6.93545 12.029 6.77255 12.0238 6.6315 12.0549C6.85731 12.2906 6.8891 12.5098 6.72884 12.6879C6.58514 12.8482 6.32688 12.8707 6.17523 12.7184C6.11034 12.6535 6.03882 12.5449 6.04875 12.4661C6.06796 12.3158 6.14345 12.1727 6.19643 12.0244C5.99644 12.041 5.7395 12.0363 5.67858 11.7708C5.64149 11.6085 5.73222 11.4172 5.76334 11.2496H5.24218C5.24218 11.7635 5.23026 12.2588 5.24417 12.7535C5.28456 14.1792 5.94743 15.1937 7.26324 15.7705C7.35926 15.8129 7.44999 15.8725 7.53276 15.9367C7.6513 16.0288 7.76056 16.1328 7.87844 16.2361H7.87976ZM12.3841 10.4139C12.3841 10.0888 12.3907 9.76827 12.3828 9.44776C12.3722 9.03454 12.204 8.69483 11.8053 8.54914C11.4259 8.41074 11.0332 8.31671 10.7041 8.70807C10.5346 8.90938 10.2756 8.89746 10.1141 8.72993C9.95314 8.56305 9.96638 8.33326 10.1531 8.13592C10.267 8.01606 10.3829 7.89819 10.5034 7.78562C10.5948 7.69953 10.5889 7.63198 10.5067 7.53596C9.38629 6.22545 7.44072 6.11354 6.18252 7.29624C5.85141 7.60748 5.53753 7.93594 5.21569 8.25645C4.72235 8.74847 4.37336 8.77959 3.79989 8.38227C3.78201 8.36968 3.75354 8.37167 3.72043 8.36571C3.6999 8.39948 3.6648 8.43127 3.66149 8.46637C3.55355 9.62126 4.27271 10.3749 5.21702 10.4305C6.76129 10.5219 8.1367 10.1073 9.27239 9.01335C9.51807 8.77694 9.70746 8.78423 9.95645 9.02991C10.2326 9.30274 10.5259 9.56166 10.7756 9.85701C11.1974 10.3543 11.7212 10.5186 12.3834 10.4133L12.3841 10.4139ZM8.70752 20.2285C9.29159 19.4445 9.87235 18.675 10.4405 17.8962C10.565 17.726 10.5101 17.5413 10.3551 17.4082C9.98558 17.091 9.61276 16.7771 9.23133 16.4745C9.0234 16.3096 8.81612 16.3493 8.6519 16.5658C8.55256 16.697 8.46913 16.8407 8.37244 16.9744C8.20954 17.2016 8.00955 17.2426 7.77314 17.1009C7.6811 17.0459 7.59104 16.9877 7.50495 16.9241C7.34801 16.8082 7.18312 16.734 7.0116 16.8797C6.82751 17.036 6.89307 17.2175 6.98644 17.3949C7.04008 17.4969 7.08445 17.6048 7.14272 17.7035C7.26192 17.9048 7.2447 18.0896 7.11094 18.2796C6.94141 18.5207 6.78314 18.7697 6.60964 19.0299C7.31622 19.4339 8.00095 19.8252 8.7062 20.2279L8.70752 20.2285ZM11.8861 19.8007C12.1801 19.9186 12.4662 20.0332 12.7808 20.159C12.7808 19.5776 12.7828 19.0293 12.7775 18.4803C12.7775 18.4346 12.7397 18.3644 12.7013 18.3478C12.5629 18.2882 12.4159 18.2459 12.2583 18.1929C12.1298 18.7478 12.0106 19.2657 11.8868 19.8014L11.8861 19.8007ZM4.94949 19.8027C4.823 19.2571 4.70248 18.7392 4.576 18.1949C4.44223 18.2392 4.32304 18.2677 4.2151 18.32C4.15219 18.3505 4.06213 18.4174 4.0608 18.4697C4.04954 19.024 4.05418 19.5789 4.05418 20.1603C4.37138 20.0338 4.65149 19.9219 4.94949 19.8027ZM4.43959 11.2404C3.96081 11.298 3.65487 11.6152 3.65818 12.0291C3.66149 12.4469 3.97736 12.7641 4.43959 12.8038V11.2404ZM12.3947 12.8085C12.8775 12.7469 13.1794 12.433 13.1761 12.0185C13.1728 11.5999 12.8563 11.2821 12.3947 11.2443V12.8078V12.8085ZM5.36072 18.0154C5.44747 18.3869 5.52296 18.7101 5.60971 19.0816C5.86929 18.6929 6.09974 18.3472 6.35933 17.9585C6.0024 17.979 5.70176 17.9962 5.36072 18.0161V18.0154Z" fill="#7E76FF"/>
<path d="M18.7346 9.27271C17.926 9.28463 17.1406 9.20848 16.3744 8.91512C16.1831 8.84161 15.9222 8.93565 15.6963 8.97075C15.1672 9.05418 14.6408 9.15285 14.1123 9.23629C13.7031 9.30119 13.4905 9.03829 13.6216 8.63567C13.7819 8.14232 13.9567 7.65361 14.1064 7.15696C14.1395 7.04769 14.1296 6.89538 14.0779 6.79407C12.5965 3.89823 14.4905 0.409048 17.7313 0.148138C18.7829 0.0633748 19.8577 0.0123847 20.892 0.39183C22.8184 1.09841 24.0686 3.05788 23.8753 5.10014C23.6813 7.15033 22.1284 8.8489 20.1153 9.18C19.6623 9.25417 19.1955 9.24424 18.7346 9.27271ZM14.5633 8.34297C15.0182 8.26748 15.4374 8.18868 15.8592 8.13107C16.0831 8.1006 16.3453 8.03041 16.534 8.11054C17.6552 8.58534 18.8233 8.53899 19.9722 8.38138C21.5542 8.16418 22.8091 6.83843 23.0402 5.29151C23.2872 3.63665 22.486 2.05464 21.0046 1.32157C19.8537 0.752072 18.6127 0.788494 17.4154 1.01364C14.8235 1.50103 13.5912 4.30946 14.9017 6.60136C15.009 6.78877 15.0308 6.96227 14.9586 7.1649C14.8236 7.54302 14.703 7.92578 14.564 8.34297H14.5633Z" fill="#7E76FF"/>
<path d="M10.2305 12.0238C10.1292 12.0238 10.063 12.0278 9.99809 12.0238C9.76301 12.0079 9.61004 11.8523 9.60938 11.6305C9.60871 11.4086 9.76169 11.2431 9.99478 11.2358C10.2583 11.2272 10.5226 11.2292 10.7861 11.2351C11.0358 11.2411 11.1954 11.404 11.1921 11.6351C11.1887 11.8556 11.0345 12.0092 10.798 12.0238C10.7338 12.0278 10.6689 12.0238 10.5921 12.0238C10.8384 12.3251 10.857 12.5549 10.659 12.7238C10.502 12.8582 10.267 12.8496 10.1199 12.7039C9.94247 12.5278 9.96962 12.2966 10.2299 12.0238H10.2305Z" fill="#7E76FF"/>
<path d="M9.21074 13.1133C9.21074 13.404 9.11207 13.5411 8.92798 13.5947C8.73395 13.651 8.54522 13.5967 8.47105 13.4027C8.30749 12.9729 8.15982 12.5365 8.03135 12.0955C7.9744 11.9015 8.07638 11.7372 8.26908 11.6591C8.44854 11.5862 8.6525 11.6147 8.72534 11.7869C8.91937 12.2471 9.07168 12.7246 9.21074 13.114V13.1133Z" fill="#7E76FF"/>
<path d="M8.43626 15.1971C8.29653 15.1971 8.15681 15.2024 8.01708 15.1958C7.78332 15.1852 7.62836 15.0282 7.62505 14.8084C7.62174 14.5872 7.77405 14.4163 8.00317 14.4091C8.28196 14.3998 8.56208 14.3991 8.84087 14.4091C9.05741 14.417 9.20508 14.5832 9.20839 14.7945C9.21171 15.015 9.0594 15.1812 8.83027 15.1951C8.69916 15.203 8.56738 15.1964 8.43626 15.1971Z" fill="#7E76FF"/>
<path d="M18.8655 1.49872C19.4999 1.53116 20.0701 1.87353 20.3741 2.57745C20.676 3.27741 20.5555 3.93366 20.0582 4.51309C19.9403 4.65083 19.8085 4.77731 19.6748 4.90048C19.3298 5.21834 19.145 5.6064 19.1231 6.07723C19.1119 6.32754 18.939 6.48051 18.7073 6.46926C18.4881 6.45866 18.3371 6.29907 18.3345 6.05935C18.3285 5.47131 18.5364 4.96207 18.9251 4.527C19.0847 4.34886 19.2622 4.18728 19.4271 4.01312C19.8324 3.58666 19.8277 2.96286 19.4185 2.57216C19.0159 2.18808 18.4073 2.20529 17.9967 2.6152C17.9212 2.69069 17.8153 2.76685 17.7954 2.85823C17.7709 2.96882 17.7828 3.14033 17.853 3.20523C17.9232 3.27013 18.0934 3.26748 18.2033 3.23635C18.2947 3.21053 18.3603 3.09663 18.4411 3.02709C18.6344 2.86154 18.8589 2.86552 19.0172 3.03305C19.1642 3.18867 19.1602 3.4125 19.0066 3.59196C18.4338 4.26211 17.5431 4.26543 17.118 3.59262C16.8875 3.22841 16.8749 2.84433 17.0829 2.46488C17.4014 1.88412 18.0729 1.49607 18.8636 1.49805L18.8655 1.49872Z" fill="#7E76FF"/>
<path d="M19.1242 7.27536C19.1182 7.50316 18.9341 7.67136 18.705 7.65878C18.4878 7.64686 18.3282 7.4727 18.3341 7.25218C18.3401 7.02372 18.5222 6.85684 18.7527 6.86876C18.9699 6.88002 19.1295 7.05551 19.1242 7.27536Z" fill="#7E76FF"/>
</svg>
