<svg width="61" height="75" viewBox="0 0 61 75" fill="none" xmlns="http://www.w3.org/2000/svg">
<path fill-rule="evenodd" clip-rule="evenodd" d="M20.7631 55H23.631V58.202H20.7631V55ZM20.7631 59.5889H23.631V74.7456H20.7631V59.5889ZM26.0843 55H28.9522V65.4901L38.8502 57.3013H42.8227L32.431 65.7327L43.1039 74.7456H38.9426L28.9502 66.4115V74.7456H26.0814V55H26.0833H26.0843ZM0.5 74.7476V55H10.7983C17.736 55 18.4842 59.4485 18.4842 61.3599C18.4842 63.2713 17.736 67.7208 10.7964 67.7208H3.3679V74.7486H0.5V74.7476ZM3.3679 64.7888H10.2808C13.873 64.7888 15.4056 63.7634 15.4056 61.3599C15.4056 58.9564 13.873 57.931 10.2808 57.931H3.3679V64.7888ZM50.7945 75C48.2497 75 46.2225 74.612 45.0844 73.9068C43.813 73.119 43.1954 71.9001 43.1954 70.1783C43.1954 65.7917 47.4863 65.2181 54.5945 64.2702C55.5429 64.1435 56.5141 64.0148 57.5358 63.8675C57.5358 61.077 56.0537 60.0879 51.8706 60.0879C48.4079 60.0879 46.8639 61.1487 46.8639 63.5257H43.9712C43.9712 59.5516 46.9239 57.1786 51.8706 57.1786C57.757 57.1786 60.3818 59.1735 60.3818 63.6475V71.299C60.3818 73.3636 60.4991 74.7309 60.5 74.7446H57.8923C57.8923 74.7368 57.818 73.9922 57.8923 72.789C57.0745 74.1101 54.2228 74.999 50.7955 74.999H50.7936L50.7945 75ZM57.5358 66.4586C53.2478 66.9703 50.2293 67.4006 48.4337 67.9575C46.7667 68.4741 46.0881 69.1106 46.0881 70.1527C46.0881 72.292 48.6958 72.6112 50.2493 72.6112C52.7865 72.6112 54.4992 72.292 55.6391 71.6074C56.9154 70.8413 57.5358 69.5614 57.5358 67.6962V66.4586Z" fill="#ABABAB"/>
<path fill-rule="evenodd" clip-rule="evenodd" d="M3.09845 47H24.0409C23.7026 43.5771 21.2739 39.8264 15.3386 37.2725V37.0201C22.2574 39.1564 24.7466 42.8124 25.7591 46.9976H51.5976L47.4411 43.4144C49.8746 35.7237 59.5 32.0896 59.5 32.0896C59.1593 25.921 56.0176 20.1724 45.515 15.5163L21.6219 6C22.4218 16.145 25.9984 21.9616 34.9689 23.389V23.6366C28.7364 23.4813 24.4131 20.6846 22.2212 14.9263C3.18786 18.4367 -1.39889 33.0825 3.09845 47Z" fill="#ABABAB"/>
</svg>
