<svg width="83" height="37" viewBox="0 0 83 37" fill="none" xmlns="http://www.w3.org/2000/svg">
<path fill-rule="evenodd" clip-rule="evenodd" d="M39.7417 11.083C38.3845 10.0193 36.5355 9.40725 34.5219 9.40725C28.8518 9.40725 24.7817 13.8226 24.7817 19.7534C24.7817 25.6842 28.8487 30.0995 34.5219 30.0995C36.5754 30.0995 38.466 29.4027 39.8647 28.2587V29.6894H46.0282V0L39.7417 1.55708V11.083ZM35.6301 24.4539C33.0418 24.4539 31.1512 22.4898 31.1512 19.7518C31.1512 17.0107 33.0418 15.0467 35.6716 15.0467C38.3015 15.0467 40.1091 16.9676 40.1091 19.7503C40.1091 22.533 38.3031 24.4524 35.6301 24.4539Z" fill="#ABABAB"/>
<path fill-rule="evenodd" clip-rule="evenodd" d="M56.0496 9.18828L49.7631 10.7469V29.6863H56.0496V9.18828ZM49.5156 3.63828C49.5156 1.71582 50.9528 0.201904 52.9263 0.201904C54.8983 0.201904 56.2955 1.71582 56.2955 3.63982C56.2955 5.56228 54.8983 7.07465 52.9263 7.07465C50.9528 7.07465 49.5156 5.56382 49.5156 3.63828Z" fill="#ABABAB"/>
<path fill-rule="evenodd" clip-rule="evenodd" d="M69.3713 9.36401C63.1248 9.36401 58.4414 13.8225 58.4414 19.7101C58.4414 25.5993 63.1678 30.1395 69.3697 30.1395C75.5748 30.1395 80.3011 25.6409 80.3011 19.7101C80.3011 13.7793 75.5748 9.36401 69.3713 9.36401ZM69.3713 24.4538C66.7014 24.4538 64.8524 22.5329 64.8524 19.7518C64.8524 16.9675 66.7014 15.0466 69.3713 15.0466C72.0411 15.0466 73.8902 16.9274 73.8902 19.7086C73.8902 22.4882 72.0841 24.4508 69.3713 24.4508V24.4538Z" fill="#ABABAB"/>
<path fill-rule="evenodd" clip-rule="evenodd" d="M13.3047 24.5773C15.1953 24.5773 16.345 23.3501 16.345 21.2627V9.81274H22.6315V21.3059C22.6315 26.0357 19.5113 29.4305 14.8479 30.0363L9.3607 24.5773H13.3047ZM9.3607 24.5773V30.8334L3.07422 24.5773H9.3607ZM9.3607 9.81274V24.5773L3.07422 18.3181V9.81274H9.3607Z" fill="#ABABAB"/>
</svg>
