<svg width="73" height="73" viewBox="0 0 73 73" fill="none" xmlns="http://www.w3.org/2000/svg">
<g clip-path="url(#clip0_278_2502)">
<path fill-rule="evenodd" clip-rule="evenodd" d="M55.6967 72.4558C46.9735 73.2531 39.6794 63.0313 34.0887 57.8468C31.2616 78.2179 0.478917 76.2868 0.500011 55.6224C0.510136 46.9425 0.500011 25.7329 0.500011 17.3262C0.500011 14.3036 1.32956 11.2598 2.88571 8.67864C5.83884 3.67257 11.5454 0.440331 17.3569 0.502768C26.1113 0.513877 47.1943 0.492783 55.6967 0.502768C76.3804 0.502768 78.3448 31.2742 57.904 34.0448L67.6039 43.7315C78.2611 53.7538 70.2625 72.8964 55.6967 72.4558ZM50.9989 60.3342C57.0099 66.5265 66.606 56.9336 60.4155 50.9308L43.6 34.1396H34.1935V43.542L48.7292 58.0575L50.9989 60.3342ZM10.6837 55.6324C10.5467 64.2387 24.1358 64.2699 23.9999 55.6324V17.3262C24.1147 13.0336 19.5752 9.62307 15.4762 10.9454C15.2978 10.9978 15.1295 11.0503 14.9713 11.1137C12.397 12.0681 10.6101 14.7027 10.6837 17.4522V55.6324ZM55.6967 23.9691C64.3352 24.1062 64.3252 10.5361 55.6967 10.6723H32.8591C34.5937 14.3248 34.1523 20.0132 34.1835 23.9691H55.6967Z" fill="#ABABAB"/>
</g>
<defs>
<clipPath id="clip0_278_2502">
<rect width="72" height="72" fill="white" transform="translate(0.5 0.5)"/>
</clipPath>
</defs>
</svg>
