<svg width="143" height="67" viewBox="0 0 143 67" fill="none" xmlns="http://www.w3.org/2000/svg">
<path d="M62.4619 2.26782H68.8363V32.7449H62.4619V2.26782Z" fill="#ABABAB"/>
<path d="M75.1255 2.26782H81.4999V32.7449H75.1255V2.26782Z" fill="#ABABAB"/>
<path d="M50.9117 44.271H48.2412L51.468 54.1705H54.3427L57.5695 44.271H54.899L52.8783 51.728L50.9117 44.271Z" fill="#ABABAB"/>
<path d="M24.6333 40.9583H32.8117V43.1602H27.3966V46.3058H32.4409V48.5078H27.3966V51.9679H32.8117V54.1699H24.6333V40.9583Z" fill="#ABABAB"/>
<path d="M34.499 40.9583H37.1139V54.1699H34.499V40.9583Z" fill="#ABABAB"/>
<path d="M38.6904 49.2114C38.6904 45.6031 40.4893 44.0488 43.2897 44.0488C46.09 44.0488 47.685 45.5846 47.685 49.2484V49.8405H41.2682C41.361 51.9869 42.01 52.7085 43.2526 52.7085C44.2354 52.7085 44.8474 52.1349 44.9588 51.1357H47.5736C47.4067 53.3192 45.5894 54.3924 43.2526 54.3924C40.2854 54.3924 38.6904 52.8196 38.6904 49.2114ZM45.1072 48.1196C44.9774 46.3063 44.3468 45.7142 43.2526 45.7142C42.1584 45.7142 41.4722 46.3248 41.2868 48.1196H45.1072Z" fill="#ABABAB"/>
<path d="M58.0703 49.2114C58.0703 45.6031 59.8692 44.0488 62.6696 44.0488C65.4699 44.0488 67.0648 45.5846 67.0648 49.2484V49.8405H60.6481C60.7408 51.9869 61.3899 52.7085 62.6325 52.7085C63.6153 52.7085 64.2273 52.1349 64.3386 51.1357H66.9535C66.7866 53.3192 64.9691 54.3924 62.6325 54.3924C59.6651 54.3924 58.0703 52.8196 58.0703 49.2114ZM64.4869 48.1196C64.3571 46.3063 63.7267 45.7142 62.6325 45.7142C61.5383 45.7142 60.852 46.3248 60.6667 48.1196H64.4869Z" fill="#ABABAB"/>
<path d="M79.4526 40.9583H82.2159V51.9679H87.4085V54.1699H79.4526V40.9583Z" fill="#ABABAB"/>
<path fill-rule="evenodd" clip-rule="evenodd" d="M88.0576 49.2114C88.0576 45.4366 89.8008 44.0488 92.0449 44.0488C93.1575 44.0488 94.1775 44.678 94.5856 45.3441V44.2709H97.2561V54.1703H94.6597V53.0046C94.2703 53.7818 93.1761 54.3924 91.9706 54.3924C89.5969 54.3924 88.0576 52.8751 88.0576 49.2114ZM92.731 45.9917C94.0291 45.9917 94.7338 46.9724 94.7338 49.2114C94.7338 51.4503 94.0291 52.4495 92.731 52.4495C91.4329 52.4495 90.6911 51.4503 90.6911 49.2114C90.6911 46.9724 91.4329 45.9917 92.731 45.9917Z" fill="#ABABAB"/>
<path fill-rule="evenodd" clip-rule="evenodd" d="M101.874 53.0041V54.1699H99.2773V40.9583H101.892V45.3436C102.337 44.659 103.376 44.0484 104.489 44.0484C106.677 44.0484 108.42 45.4361 108.42 49.2109C108.42 52.9856 106.714 54.3919 104.433 54.3919C103.228 54.3919 102.245 53.7813 101.874 53.0041ZM103.747 46.0098C105.045 46.0098 105.787 46.972 105.787 49.2109C105.787 51.4498 105.045 52.449 103.747 52.449C102.448 52.449 101.744 51.4498 101.744 49.2109C101.744 46.972 102.448 46.0098 103.747 46.0098Z" fill="#ABABAB"/>
<path d="M109.496 51.2283H112.111C112.148 52.2645 112.704 52.7641 113.687 52.7641C114.67 52.7641 115.227 52.32 115.227 51.5428C115.227 50.8397 114.8 50.5806 113.873 50.3586L113.075 50.155C110.813 49.5814 109.681 48.9708 109.681 47.1019C109.681 45.2331 111.425 44.0488 113.65 44.0488C115.876 44.0488 117.563 44.9185 117.637 46.9724H115.022C114.967 46.0657 114.41 45.6772 113.613 45.6772C112.816 45.6772 112.259 46.0657 112.259 46.8059C112.259 47.4905 112.704 47.7496 113.483 47.9346L114.299 48.1381C116.451 48.6747 117.804 49.2114 117.804 51.2097C117.804 53.2081 116.024 54.3924 113.613 54.3924C110.998 54.3924 109.552 53.4117 109.496 51.2283Z" fill="#ABABAB"/>
<path d="M71.293 48.3417C71.293 46.7874 72.0348 45.9362 73.1847 45.9362C74.1304 45.9362 74.6683 46.5283 74.6683 47.8051V54.1703H77.2831V47.398C77.2831 45.1035 75.985 44.0488 74.0934 44.0488C72.8137 44.0488 71.7567 44.6965 71.293 45.5476V44.2709H68.6411V54.1703H71.293V48.3417Z" fill="#ABABAB"/>
</svg>
