<svg width="73" height="75" viewBox="0 0 73 75" fill="none" xmlns="http://www.w3.org/2000/svg">
<path d="M67.7522 30.7878C69.4077 25.7488 68.8376 20.2287 66.1902 15.6452C62.2089 8.61508 54.2051 4.99825 46.3883 6.70029C42.9109 2.72733 37.9148 0.467968 32.677 0.500343C24.6869 0.481843 17.5975 5.69895 15.1394 13.409C10.0065 14.4751 5.57594 17.7335 2.98327 22.3516C-1.02774 29.3633 -0.113348 38.2018 5.2453 44.2145C3.58982 49.2535 4.15989 54.7736 6.80729 59.357C10.7886 66.3872 18.7924 70.004 26.6092 68.302C30.0843 72.2749 35.0827 74.5343 40.3205 74.4996C48.3151 74.5204 55.4068 69.2987 57.8649 61.5817C62.9978 60.5156 67.4284 57.2572 70.0211 52.6391C74.0275 45.6274 73.1108 36.7958 67.7545 30.7832L67.7522 30.7878ZM40.3251 69.6641C37.1258 69.6687 34.0269 68.5332 31.5711 66.4543C31.6828 66.3941 31.8766 66.2854 32.002 66.2068L46.532 57.6966C47.2753 57.2688 47.7314 56.4663 47.7268 55.5991V34.8255L53.8676 38.4215C53.9337 38.4539 53.9771 38.5187 53.9862 38.5927V55.7957C53.9771 63.4456 47.8682 69.6479 40.3251 69.6641ZM10.946 56.9381C9.34295 54.1307 8.76604 50.8399 9.31559 47.6463C9.42276 47.711 9.61203 47.829 9.74656 47.9076L24.2765 56.4178C25.013 56.8549 25.9251 56.8549 26.6639 56.4178L44.4022 46.0298V53.2218C44.4067 53.2958 44.3725 53.3675 44.3155 53.4138L29.6283 62.0142C23.0862 65.8345 14.7312 63.5636 10.9483 56.9381H10.946ZM7.12196 24.7729C8.71816 21.9608 11.2379 19.8101 14.2387 18.6932C14.2387 18.8204 14.2319 19.0447 14.2319 19.2019V36.2246C14.2273 37.0895 14.6834 37.892 15.4244 38.3198L33.1627 48.7054L27.0219 52.3014C26.9604 52.3431 26.8828 52.35 26.8144 52.32L12.1249 43.7126C5.59646 39.8784 3.35723 31.4076 7.11968 24.7752L7.12196 24.7729ZM57.5753 36.6802L39.8371 26.2922L45.9779 22.6985C46.0394 22.6569 46.117 22.6499 46.1854 22.68L60.8749 31.2804C67.4147 35.1123 69.6562 43.597 65.8778 50.2294C64.2793 53.0368 61.7619 55.1875 58.7634 56.3068V38.7753C58.7702 37.9104 58.3164 37.1103 57.5776 36.6802H57.5753ZM63.6865 27.3514C63.5793 27.2843 63.39 27.1687 63.2555 27.09L48.7256 18.5799C47.9891 18.1428 47.0769 18.1428 46.3381 18.5799L28.5999 28.9678V21.7758C28.5953 21.7018 28.6295 21.6301 28.6865 21.5839L43.3738 12.9904C49.9159 9.16315 58.2799 11.441 62.0515 18.078C63.6454 20.8808 64.2223 24.1623 63.6819 27.3514H63.6865ZM25.2616 40.1698L19.1185 36.5738C19.0524 36.5414 19.009 36.4767 18.9999 36.4027V19.1996C19.0045 11.5405 25.1316 5.33357 32.6838 5.3382C35.8785 5.3382 38.9706 6.47597 41.4264 8.54801C41.3147 8.60814 41.1231 8.71683 40.9955 8.79546L26.4655 17.3056C25.7222 17.7335 25.2661 18.5336 25.2707 19.4008L25.2616 40.1652V40.1698ZM28.5976 32.876L36.4987 28.2486L44.3999 32.8737V42.1262L36.4987 46.7513L28.5976 42.1262V32.876Z" fill="#ABABAB"/>
</svg>
