<svg width="348" height="65" viewBox="0 0 348 65" fill="none" xmlns="http://www.w3.org/2000/svg">
<path d="M34.0488 11.0967C34.0492 10.5221 35.8884 10.523 35.8887 11.0967V53.9034C35.8878 54.4777 34.0497 54.4768 34.0488 53.9034V11.0967ZM119.17 12.0704C119.17 11.4955 121.01 11.4964 121.01 12.0704V52.9297C121.01 53.5046 119.17 53.5037 119.17 52.9297V12.0704ZM113.496 13.8907C113.496 13.3157 115.336 13.3167 115.336 13.8907V51.1094C115.336 51.6843 113.496 51.6834 113.496 51.1094V13.8907ZM39.7227 15.0401C39.7227 14.4652 41.5615 14.4661 41.5615 15.0401V49.96C41.5614 50.5349 39.7227 50.5339 39.7227 49.96V15.0401ZM51.0723 16.503C51.0728 15.9285 52.9104 15.9294 52.9111 16.503V48.4971C52.9101 49.0714 51.0733 49.0705 51.0723 48.4971V16.503ZM73.7715 17.0723C73.7724 16.4979 75.6095 16.4989 75.6104 17.0723V47.9268C75.6104 48.5017 73.7715 48.5008 73.7715 47.9268V17.0723ZM96.4707 17.4522C96.4708 16.8774 98.3105 16.8783 98.3105 17.4522V47.5479C98.31 48.1225 96.4712 48.1216 96.4707 47.5479V17.4522ZM85.1211 20.2647C85.1215 19.6901 86.9594 19.691 86.96 20.2647V44.7354C86.959 45.3097 85.1221 45.3088 85.1211 44.7354V20.2647ZM11.3496 20.7208C11.3502 20.1462 13.1877 20.1472 13.1885 20.7208V44.2794C13.1877 44.8537 11.3504 44.8528 11.3496 44.2794V20.7208ZM0 21.7549C0.000450563 21.1803 1.83842 21.1813 1.83887 21.7549V43.2452C1.83807 43.8196 0.000793366 43.8187 0 43.2452V21.7549ZM45.3984 22.212C45.3984 21.637 47.2373 21.638 47.2373 22.212V42.7881C47.2373 43.363 45.3984 43.3621 45.3984 42.7881V22.212ZM56.748 22.4922C56.749 21.918 58.5859 21.9189 58.5869 22.4922V42.5069C58.5869 43.0818 56.748 43.0809 56.748 42.5069V22.4922ZM90.7969 22.7686C90.7969 22.1937 92.6367 22.1946 92.6367 22.7686V42.2315C92.6367 42.8064 90.7969 42.8055 90.7969 42.2315V22.7686ZM17.0234 22.9327C17.0239 22.3581 18.8617 22.359 18.8623 22.9327V42.0674C18.8616 42.6419 17.0241 42.641 17.0234 42.0674V22.9327ZM79.4473 23.002C79.4481 22.4275 81.2855 22.4285 81.2861 23.002V41.9971C81.2861 42.572 79.4473 42.5711 79.4473 41.9971V23.002ZM28.373 23.4669C28.3741 22.8926 30.2109 22.8935 30.2119 23.4669V41.5323C30.2119 42.1072 28.373 42.1063 28.373 41.5323V23.4669ZM107.82 24.1524C107.821 23.5779 109.658 23.5789 109.659 24.1524V40.8467C109.659 41.4216 107.82 41.4207 107.82 40.8467V24.1524ZM62.4219 24.3389C62.4219 23.764 64.2617 23.765 64.2617 24.3389V40.6612C64.2617 41.2361 62.4219 41.2352 62.4219 40.6612V24.3389ZM102.146 25.6172C102.146 25.0424 103.986 25.0433 103.986 25.6172V39.3829C103.986 39.9578 102.146 39.9568 102.146 39.3829V25.6172ZM68.0977 26.1837C68.0977 25.6087 69.9365 25.6097 69.9365 26.1837V38.8165C69.9365 39.3914 68.0977 39.3904 68.0977 38.8165V26.1837ZM22.6992 27.1495C22.6995 26.5748 24.5378 26.5757 24.5381 27.1495V37.8506C24.5374 38.4251 22.6999 38.4242 22.6992 37.8506V27.1495ZM5.67578 27.7208C5.67625 27.1462 7.51418 27.1471 7.51465 27.7208V37.2794C7.51367 37.8536 5.67676 37.8527 5.67578 37.2794V27.7208Z" fill="url(#paint0_linear_404_6856)"/>
<path d="M124.846 27.7324C124.846 30.9108 124.846 34.0892 124.846 37.2675C124.846 37.8415 126.685 37.8424 126.685 37.2675C126.685 34.0892 126.685 30.9108 126.685 27.7324C126.685 27.1584 124.846 27.1575 124.846 27.7324Z" fill="#050505"/>
<path d="M130.52 15.2066C130.52 19.0943 130.52 22.982 130.52 26.8697C130.52 33.0749 130.52 39.2802 130.52 45.4854C130.52 46.9214 130.52 48.3574 130.52 49.7933C130.52 50.3673 132.359 50.3682 132.359 49.7933C132.359 45.9056 132.359 42.0179 132.359 38.1303C132.359 31.925 132.359 25.7197 132.359 19.5145C132.359 18.0786 132.359 16.6426 132.359 15.2066C132.359 14.6327 130.52 14.6317 130.52 15.2066Z" fill="#050505"/>
<path d="M136.194 3.3793C136.194 5.3166 136.194 7.2539 136.194 9.1912C136.194 13.8177 136.194 18.4442 136.194 23.0706C136.194 28.6661 136.194 34.2615 136.194 39.857C136.194 44.7183 136.194 49.5796 136.194 54.4409C136.194 56.0427 136.194 57.6445 136.194 59.2463C136.194 59.9948 136.06 60.7765 136.194 61.523C136.2 61.555 136.194 61.5883 136.194 61.6205C136.194 62.1945 138.033 62.1954 138.033 61.6205C138.033 59.6832 138.033 57.7459 138.033 55.8086C138.033 51.1821 138.033 46.5557 138.033 41.9292C138.033 36.3338 138.033 30.7383 138.033 25.1429C138.033 20.2816 138.033 15.4203 138.033 10.559C138.033 8.95716 138.033 7.35532 138.033 5.75355C138.033 5.00505 138.168 4.22335 138.033 3.47687C138.028 3.44488 138.033 3.41154 138.033 3.37936C138.033 2.80533 136.194 2.80441 136.194 3.3793Z" fill="#050505"/>
<path d="M141.869 8.6008C141.869 14.0103 141.869 19.4199 141.869 24.8295C141.869 33.3873 141.869 41.9452 141.869 50.503C141.869 52.4683 141.869 54.4336 141.869 56.3989C141.869 56.9729 143.708 56.9738 143.708 56.3989C143.708 50.9894 143.708 45.5799 143.708 40.1703C143.708 31.6125 143.708 23.0546 143.708 14.4967C143.708 12.5314 143.708 10.5662 143.708 8.60086C143.708 8.02683 141.869 8.02591 141.869 8.6008Z" fill="#050505"/>
<path d="M147.544 5.92228C147.544 7.68965 147.544 9.45696 147.544 11.2243C147.544 15.4431 147.544 19.6619 147.544 23.8807C147.544 29.0081 147.544 34.1356 147.544 39.263C147.544 43.6772 147.544 48.0914 147.544 52.5056C147.544 53.9697 147.544 55.4338 147.544 56.8979C147.544 57.5837 147.418 58.3016 147.544 58.9856C147.55 59.0157 147.544 59.0472 147.544 59.0775C147.544 59.6514 149.383 59.6524 149.383 59.0775C149.383 57.3102 149.383 55.5429 149.383 53.7755C149.383 49.5567 149.383 45.3379 149.383 41.119C149.383 35.9916 149.383 30.8641 149.383 25.7367C149.383 21.3225 149.383 16.9083 149.383 12.4941C149.383 11.03 149.383 9.56596 149.383 8.10189C149.383 7.41603 149.509 6.69812 149.383 6.01417C149.378 5.98407 149.383 5.95251 149.383 5.92223C149.383 5.34831 147.544 5.3474 147.544 5.92228Z" fill="#050505"/>
<path d="M153.219 21.0674C153.219 27.7386 153.219 34.4099 153.219 41.0811C153.219 42.0316 153.219 42.9821 153.219 43.9326C153.219 44.5065 155.058 44.5075 155.058 43.9326C155.058 37.2613 155.058 30.59 155.058 23.9188C155.058 22.9683 155.058 22.0178 155.058 21.0674C155.058 20.4934 153.219 20.4925 153.219 21.0674Z" fill="#050505"/>
<path d="M158.895 23.2361C158.895 28.6516 158.895 34.0671 158.895 39.4825C158.895 40.243 158.895 41.0035 158.895 41.7639C158.895 42.3379 160.734 42.3388 160.734 41.7639C160.734 36.3484 160.734 30.9329 160.734 25.5175C160.734 24.757 160.734 23.9965 160.734 23.2361C160.734 22.6621 158.895 22.6611 158.895 23.2361Z" fill="#050505"/>
<path d="M164.568 20.6902C164.568 27.5736 164.568 34.4569 164.568 41.3403C164.568 42.3301 164.568 43.3199 164.568 44.3097C164.568 44.8837 166.407 44.8846 166.407 44.3097C166.407 37.4263 166.407 30.5429 166.407 23.6596C166.407 22.6698 166.407 21.6799 166.407 20.6902C166.407 20.1162 164.568 20.1152 164.568 20.6902Z" fill="#050505"/>
<path d="M170.242 25.7053C170.242 29.669 170.242 33.6327 170.242 37.5963C170.242 38.1624 170.242 38.7285 170.242 39.2946C170.242 39.8686 172.081 39.8695 172.081 39.2946C172.081 35.331 172.081 31.3673 172.081 27.4036C172.081 26.8375 172.081 26.2715 172.081 25.7053C172.081 25.1313 170.242 25.1304 170.242 25.7053Z" fill="#050505"/>
<path d="M175.918 10.7809C175.918 15.6837 175.918 20.5865 175.918 25.4893C175.918 33.2915 175.918 41.0936 175.918 48.8958C175.918 50.6702 175.918 52.4446 175.918 54.219C175.918 54.793 177.757 54.7939 177.757 54.219C177.757 49.3162 177.757 44.4134 177.757 39.5106C177.757 31.7084 177.757 23.9062 177.757 16.1041C177.757 14.3297 177.757 12.5553 177.757 10.7809C177.757 10.2069 175.918 10.206 175.918 10.7809Z" fill="#050505"/>
<path d="M181.594 26.0788C181.594 29.8155 181.594 33.5523 181.594 37.289C181.594 37.833 181.594 38.377 181.594 38.921C181.594 39.495 183.433 39.4959 183.433 38.921C183.433 35.1843 183.433 31.4476 183.433 27.7109C183.433 27.1668 183.433 26.6228 183.433 26.0788C183.433 25.5049 181.594 25.5039 181.594 26.0788Z" fill="#050505"/>
<path d="M187.268 4.68949C187.268 6.52677 187.268 8.36406 187.268 10.2013C187.268 14.6395 187.268 19.0776 187.268 23.5158C187.268 28.8627 187.268 34.2096 187.268 39.5564C187.268 44.1819 187.268 48.8074 187.268 53.4329C187.268 54.9662 187.268 56.4995 187.268 58.0328C187.268 58.7498 187.136 59.5005 187.268 60.2155C187.273 60.2466 187.268 60.279 187.268 60.3104C187.268 60.8843 189.107 60.8853 189.107 60.3104C189.107 58.4731 189.107 56.6359 189.107 54.7986C189.107 50.3604 189.107 45.9222 189.107 41.4841C189.107 36.1372 189.107 30.7903 189.107 25.4434C189.107 20.8179 189.107 16.1924 189.107 11.5669C189.107 10.0336 189.107 8.50035 189.107 6.96709C189.107 6.25003 189.238 5.4994 189.107 4.78437C189.101 4.75323 189.107 4.72081 189.107 4.68949C189.107 4.11552 187.268 4.1146 187.268 4.68949Z" fill="#050505"/>
<path d="M192.941 1.37727C192.941 3.44719 192.941 5.51711 192.941 7.58703C192.941 12.5321 192.941 17.477 192.941 22.4221C192.941 28.427 192.941 34.432 192.941 40.437C192.941 45.6077 192.941 50.7783 192.941 55.949C192.941 57.6608 192.941 59.3726 192.941 61.0845C192.941 61.8851 192.801 62.7197 192.941 63.5182C192.947 63.5525 192.941 63.5883 192.941 63.6227C192.941 64.1967 194.78 64.1976 194.78 63.6227C194.78 61.5528 194.78 59.4829 194.78 57.413C194.78 52.4679 194.78 47.5229 194.78 42.5779C194.78 36.5729 194.78 30.568 194.78 24.563C194.78 19.3924 194.78 14.2217 194.78 9.05099C194.78 7.33916 194.78 5.62734 194.78 3.91552C194.78 3.11491 194.921 2.28029 194.78 1.48175C194.774 1.44744 194.78 1.41177 194.78 1.37727C194.78 0.803362 192.941 0.802383 192.941 1.37727Z" fill="#050505"/>
<path d="M198.617 12.7034C198.617 17.1598 198.617 21.6162 198.617 26.0725C198.617 33.1786 198.617 40.2847 198.617 47.3908C198.617 49.026 198.617 50.6613 198.617 52.2965C198.617 52.8705 200.456 52.8714 200.456 52.2965C200.456 47.8401 200.456 43.3838 200.456 38.9274C200.456 31.8213 200.456 24.7152 200.456 17.6091C200.456 15.9739 200.456 14.3387 200.456 12.7034C200.456 12.1295 198.617 12.1285 198.617 12.7034Z" fill="#050505"/>
<path d="M204.291 8.00078C204.291 13.5134 204.291 19.026 204.291 24.5385C204.291 33.3316 204.291 42.1247 204.291 50.9177C204.291 52.9448 204.291 54.9719 204.291 56.999C204.291 57.5729 206.13 57.5739 206.13 56.999C206.13 51.4864 206.13 45.9738 206.13 40.4612C206.13 31.6681 206.13 22.8751 206.13 14.0821C206.13 12.055 206.13 10.0279 206.13 8.00085C206.13 7.42681 204.291 7.42583 204.291 8.00078Z" fill="#050505"/>
<path d="M209.967 25.3342C209.967 29.5161 209.967 33.698 209.967 37.8798C209.967 38.4752 209.967 39.0705 209.967 39.6657C209.967 40.2397 211.806 40.2406 211.806 39.6657C211.806 35.4839 211.806 31.302 211.806 27.1201C211.806 26.5248 211.806 25.9295 211.806 25.3342C211.806 24.7603 209.967 24.7594 209.967 25.3342Z" fill="#050505"/>
<path d="M215.641 26.613C215.641 30.5377 215.641 34.4623 215.641 38.3869C215.641 38.9609 217.48 38.9618 217.48 38.3869C217.48 34.4623 217.48 30.5377 217.48 26.613C217.48 26.039 215.641 26.0381 215.641 26.613Z" fill="#050505"/>
<path d="M221.316 23.4596C221.316 28.7315 221.316 34.0034 221.316 39.2754C221.316 40.0304 221.316 40.7854 221.316 41.5404C221.316 42.1144 223.156 42.1153 223.156 41.5404C223.156 36.2684 223.156 30.9965 223.156 25.7246C223.156 24.9696 223.156 24.2145 223.156 23.4596C223.156 22.8856 221.316 22.8847 221.316 23.4596Z" fill="#050505"/>
<path d="M226.99 22.8261C226.99 28.4803 226.99 34.1346 226.99 39.7889C226.99 40.5839 226.99 41.3789 226.99 42.1739C226.99 42.7479 228.829 42.7488 228.829 42.1739C228.829 36.5197 228.829 30.8654 228.829 25.2112C228.829 24.4161 228.829 23.6211 228.829 22.8261C228.829 22.2521 226.99 22.2512 226.99 22.8261Z" fill="#050505"/>
<path d="M232.666 3.13637C232.666 5.09055 232.666 7.04467 232.666 8.99885C232.666 13.6655 232.666 18.3322 232.666 22.9989C232.666 28.6424 232.666 34.2858 232.666 39.9293C232.666 44.8308 232.666 49.7324 232.666 54.6339C232.666 56.2482 232.666 57.8624 232.666 59.4766C232.666 60.2277 232.534 61.0107 232.666 61.7599C232.672 61.794 232.666 61.8294 232.666 61.8636C232.666 62.4376 234.505 62.4385 234.505 61.8636C234.505 59.9095 234.505 57.9553 234.505 56.0012C234.505 51.3345 234.505 46.6678 234.505 42.0012C234.505 36.3577 234.505 30.7142 234.505 25.0707C234.505 20.1692 234.505 15.2676 234.505 10.3661C234.505 8.7519 234.505 7.13765 234.505 5.5234C234.505 4.77227 234.636 3.98934 234.505 3.24011C234.499 3.2061 234.505 3.17062 234.505 3.13637C234.505 2.56246 232.666 2.56148 232.666 3.13637Z" fill="#050505"/>
<path d="M238.34 18.4788C238.34 21.6413 238.34 24.8037 238.34 27.9661C238.34 32.9847 238.34 38.0033 238.34 43.022C238.34 44.1884 238.34 45.3548 238.34 46.5212C238.34 47.0952 240.179 47.0961 240.179 46.5212C240.179 43.3588 240.179 40.1963 240.179 37.0339C240.179 32.0153 240.179 26.9967 240.179 21.9781C240.179 20.8116 240.179 19.6452 240.179 18.4789C240.179 17.9048 238.34 17.9039 238.34 18.4788Z" fill="#050505"/>
<path d="M244.016 26.0228C244.016 29.7997 244.016 33.5766 244.016 37.3536C244.016 37.8947 244.016 38.4359 244.016 38.977C244.016 39.551 245.855 39.5519 245.855 38.977C245.855 35.2001 245.855 31.4231 245.855 27.6462C245.855 27.1051 245.855 26.5639 245.855 26.0228C245.855 25.4488 244.016 25.4479 244.016 26.0228Z" fill="#050505"/>
<path d="M249.689 25.7277C249.689 29.6707 249.689 33.6138 249.689 37.5568C249.689 38.1286 249.689 38.7004 249.689 39.2721C249.689 39.8461 251.529 39.847 251.529 39.2721C251.529 35.3291 251.529 31.386 251.529 27.443C251.529 26.8712 251.529 26.2994 251.529 25.7277C251.529 25.1537 249.689 25.1527 249.689 25.7277Z" fill="#050505"/>
<path d="M255.363 16.6995C255.363 20.2605 255.363 23.8216 255.363 27.3826C255.363 33.0562 255.363 38.7296 255.363 44.4032C255.363 45.7022 255.363 47.0012 255.363 48.3003C255.363 48.8742 257.202 48.8752 257.202 48.3003C257.202 44.7392 257.202 41.1781 257.202 37.6171C257.202 31.9436 257.202 26.2701 257.202 20.5966C257.202 19.2975 257.202 17.9985 257.202 16.6995C257.202 16.1256 255.363 16.1246 255.363 16.6995Z" fill="#050505"/>
<path d="M261.039 23.5704C261.039 28.7798 261.039 33.9891 261.039 39.1984C261.039 39.9422 261.039 40.6859 261.039 41.4296C261.039 42.0036 262.878 42.0045 262.878 41.4296C262.878 36.2202 262.878 31.0109 262.878 25.8016C262.878 25.0579 262.878 24.3141 262.878 23.5704C262.878 22.9964 261.039 22.9955 261.039 23.5704Z" fill="#050505"/>
<path d="M266.715 11.3409C266.715 16.1261 266.715 20.9114 266.715 25.6966C266.715 33.2675 266.715 40.8385 266.715 48.4095C266.715 50.1593 266.715 51.9091 266.715 53.659C266.715 54.233 268.554 54.2339 268.554 53.659C268.554 48.8738 268.554 44.0885 268.554 39.3032C268.554 31.7323 268.554 24.1614 268.554 16.5903C268.554 14.8405 268.554 13.0907 268.554 11.3409C268.554 10.7669 266.715 10.766 266.715 11.3409Z" fill="#050505"/>
<path d="M272.389 17.5472C272.389 20.9236 272.389 24.2999 272.389 27.6763C272.389 33.0312 272.389 38.3861 272.389 43.7411C272.389 44.9783 272.389 46.2155 272.389 47.4527C272.389 48.0267 274.228 48.0276 274.228 47.4527C274.228 44.0764 274.228 40.7 274.228 37.3236C274.228 31.9688 274.228 26.6138 274.228 21.2589C274.228 20.0217 274.228 18.7844 274.228 17.5472C274.228 16.9733 272.389 16.9723 272.389 17.5472Z" fill="#050505"/>
<path d="M278.064 19.7579C278.064 22.6206 278.064 25.4833 278.064 28.3461C278.064 32.9173 278.064 37.4886 278.064 42.06C278.064 43.1206 278.064 44.1813 278.064 45.242C278.064 45.8159 279.904 45.8169 279.904 45.242C279.904 42.3793 279.904 39.5165 279.904 36.6538C279.904 32.0825 279.904 27.5112 279.904 22.9399C279.904 21.8793 279.904 20.8185 279.904 19.7579C279.904 19.184 278.064 19.183 278.064 19.7579Z" fill="#050505"/>
<path d="M283.738 15.2979C283.738 19.1834 283.738 23.0689 283.738 26.9544C283.738 33.118 283.738 39.2816 283.738 45.4452C283.738 46.8642 283.738 48.2832 283.738 49.702C283.738 50.276 285.577 50.277 285.577 49.702C285.577 45.8166 285.577 41.9311 285.577 38.0455C285.577 31.8819 285.577 25.7182 285.577 19.5547C285.577 18.1357 285.577 16.7168 285.577 15.2978C285.577 14.724 283.738 14.723 283.738 15.2979Z" fill="#050505"/>
<path d="M289.414 12.2326C289.414 16.8181 289.414 21.4035 289.414 25.989C289.414 33.2403 289.414 40.4917 289.414 47.7429C289.414 49.4177 289.414 51.0926 289.414 52.7674C289.414 53.3414 291.253 53.3423 291.253 52.7674C291.253 48.182 291.253 43.5965 291.253 39.011C291.253 31.7597 291.253 24.5084 291.253 17.2571C291.253 15.5823 291.253 13.9075 291.253 12.2327C291.253 11.6586 289.414 11.6576 289.414 12.2326Z" fill="#050505"/>
<path d="M295.088 13.0705C295.088 17.455 295.088 21.8396 295.088 26.2241C295.088 33.2032 295.088 40.1822 295.088 47.1612C295.088 48.7505 295.088 50.3398 295.088 51.9292C295.088 52.5032 296.927 52.5041 296.927 51.9292C296.927 47.5447 296.927 43.1601 296.927 38.7756C296.927 31.7965 296.927 24.8175 296.927 17.8385C296.927 16.2491 296.927 14.6598 296.927 13.0705C296.927 12.4965 295.088 12.4956 295.088 13.0705Z" fill="#050505"/>
<path d="M300.764 23.3158C300.764 28.6772 300.764 34.0387 300.764 39.4001C300.764 40.1615 300.764 40.9229 300.764 41.6842C300.764 42.2582 302.603 42.2591 302.603 41.6842C302.603 36.3228 302.603 30.9613 302.603 25.5999C302.603 24.8385 302.603 24.0771 302.603 23.3158C302.603 22.7418 300.764 22.7409 300.764 23.3158Z" fill="#050505"/>
<path d="M306.438 19.9192C306.438 27.2631 306.438 34.607 306.438 41.9509C306.438 42.9942 306.438 44.0374 306.438 45.0807C306.438 45.6547 308.277 45.6556 308.277 45.0807C308.277 37.7368 308.277 30.3929 308.277 23.049C308.277 22.0057 308.277 20.9625 308.277 19.9192C308.277 19.3452 306.438 19.3442 306.438 19.9192Z" fill="#050505"/>
<path d="M312.111 18.1176C312.111 21.3557 312.111 24.5938 312.111 27.8319C312.111 32.9947 312.111 38.1575 312.111 43.3204C312.111 44.5077 312.111 45.6951 312.111 46.8825C312.111 47.4565 313.95 47.4574 313.95 46.8825C313.95 43.6444 313.95 40.4063 313.95 37.1682C313.95 32.0053 313.95 26.8425 313.95 21.6797C313.95 20.4923 313.95 19.305 313.95 18.1176C313.95 17.5436 312.111 17.5427 312.111 18.1176Z" fill="#050505"/>
<path d="M317.787 13.8607C317.787 18.0552 317.787 22.2496 317.787 26.4441C317.787 33.1341 317.787 39.8242 317.787 46.5142C317.787 48.0559 317.787 49.5976 317.787 51.1393C317.787 51.7132 319.626 51.7142 319.626 51.1393C319.626 46.9449 319.626 42.7504 319.626 38.5559C319.626 31.8659 319.626 25.1758 319.626 18.4857C319.626 16.944 319.626 15.4024 319.626 13.8607C319.626 13.2868 317.787 13.2858 317.787 13.8607Z" fill="#050505"/>
<path d="M323.461 22.9277C323.461 28.5076 323.461 34.0876 323.461 39.6675C323.461 40.4691 323.461 41.2706 323.461 42.0722C323.461 42.6461 325.3 42.647 325.3 42.0722C325.3 36.4922 325.3 30.9123 325.3 25.3323C325.3 24.5308 325.3 23.7292 325.3 22.9276C325.3 22.3538 323.461 22.3528 323.461 22.9277Z" fill="#050505"/>
<path d="M329.137 21.4587C329.137 27.9095 329.137 34.3603 329.137 40.8111C329.137 41.7211 329.137 42.6311 329.137 43.5411C329.137 44.1151 330.976 44.116 330.976 43.5411C330.976 37.0903 330.976 30.6395 330.976 24.1888C330.976 23.2788 330.976 22.3688 330.976 21.4588C330.976 20.8848 329.137 20.8839 329.137 21.4587Z" fill="#050505"/>
<path d="M334.812 18.7823C334.812 21.8689 334.812 24.9554 334.812 28.0419C334.812 32.9653 334.812 37.8888 334.812 42.8121C334.812 43.9473 334.812 45.0825 334.812 46.2176C334.812 46.7916 336.652 46.7925 336.652 46.2176C336.652 43.1311 336.652 40.0446 336.652 36.958C336.652 32.0347 336.652 27.1112 336.652 22.1878C336.652 21.0527 336.652 19.9175 336.652 18.7823C336.652 18.2084 334.812 18.2074 334.812 18.7823Z" fill="#050505"/>
<path d="M340.486 25.0459C340.486 29.39 340.486 33.734 340.486 38.0781C340.486 38.7034 340.486 39.3287 340.486 39.9541C340.486 40.5281 342.325 40.529 342.325 39.9541C342.325 35.6101 342.325 31.266 342.325 26.9219C342.325 26.2966 342.325 25.6713 342.325 25.0459C342.325 24.4719 340.486 24.471 340.486 25.0459Z" fill="#050505"/>
<path d="M346.16 20.4287C346.16 27.4682 346.16 34.5077 346.16 41.5471C346.16 42.5552 346.16 43.5632 346.16 44.5712C346.16 45.1451 347.999 45.146 347.999 44.5712C347.999 37.5317 347.999 30.4922 347.999 23.4527C347.999 22.4447 347.999 21.4367 347.999 20.4287C347.999 19.8547 346.16 19.8538 346.16 20.4287Z" fill="#050505"/>
<defs>
<linearGradient id="paint0_linear_404_6856" x1="-0.500004" y1="32.5002" x2="121.01" y2="32.5002" gradientUnits="userSpaceOnUse">
<stop stop-color="#E850FF"/>
<stop offset="1" stop-color="#4941C8"/>
</linearGradient>
</defs>
</svg>
