<svg width="48" height="41" viewBox="0 0 48 41" fill="none" xmlns="http://www.w3.org/2000/svg">
<path d="M47.0657 32.6641C46.9646 32.959 46.8888 33.2648 46.7576 33.5453C46.0365 35.0812 44.8087 35.8709 43.1222 35.889C40.7954 35.913 38.4673 35.895 36.1393 35.895C35.9599 35.895 35.7794 35.895 35.5302 35.895C35.5302 36.1911 35.5302 36.4692 35.5302 36.7472C35.5302 37.6777 35.5193 38.6094 35.535 39.5399C35.5422 39.9564 35.4327 40.2839 35.0234 40.4452C34.6237 40.6016 34.3348 40.4006 34.0688 40.1274C33.2948 39.3329 32.5148 38.5444 31.7022 37.7175C30.9716 38.4517 30.2842 39.1415 29.5981 39.8312C29.4813 39.948 29.3634 40.0636 29.2478 40.1815C28.9878 40.45 28.6941 40.5896 28.3197 40.4331C27.9453 40.2766 27.837 39.9673 27.837 39.5965C27.837 38.5456 27.837 37.4936 27.837 36.4427C27.837 36.2802 27.837 36.1177 27.837 35.895C27.6047 35.895 27.4157 35.895 27.2267 35.895C19.808 35.895 12.3893 35.8962 4.97174 35.895C2.90129 35.895 1.34363 34.625 0.978897 32.6485C0.937969 32.4294 0.936765 32.2007 0.936765 31.9756C0.933154 22.7837 0.93195 13.5931 0.934358 4.40243C0.935562 2.18633 2.616 0.503483 4.84414 0.502279C17.6087 0.498668 30.3733 0.499872 43.1379 0.502279C45.047 0.502279 46.5325 1.68677 46.9803 3.53814C46.9971 3.60796 47.0368 3.67296 47.0669 3.74037V32.6641H47.0657ZM35.5314 34.3253H36.0382C38.3506 34.3253 40.663 34.3289 42.9754 34.3253C44.6149 34.3229 45.5297 33.3972 45.5297 31.7468C45.5297 22.7067 45.5297 13.6665 45.5297 4.62633C45.5297 2.99404 44.5896 2.04669 42.9633 2.04669C30.3191 2.04549 17.6749 2.04549 5.03072 2.04669C3.40446 2.04669 2.46794 2.99404 2.46794 4.62874C2.46794 13.6689 2.46794 22.7091 2.46794 31.7493C2.46794 33.3984 3.38399 34.3241 5.02471 34.3241C12.4579 34.3265 19.891 34.3253 27.3242 34.3241C27.4819 34.3241 27.6396 34.3072 27.8358 34.2964V33.715C27.8358 30.7863 27.8647 27.8575 27.8238 24.93C27.8045 23.5072 28.0609 22.0627 27.53 20.6615C27.4036 20.3269 27.3086 20.1234 26.9342 20.062C25.6787 19.8562 24.9877 18.8174 25.3019 17.598C25.3898 17.2585 25.3163 17.0707 25.025 16.8938C23.9104 16.2161 23.6636 15.0123 24.4292 13.9674C24.6266 13.6966 24.6531 13.4968 24.4424 13.2115C23.6564 12.1498 23.9031 10.9532 25.0443 10.2539C25.3236 10.0829 25.3862 9.89997 25.3067 9.58458C24.9889 8.31463 25.7064 7.25773 26.9992 7.08439C27.3073 7.04346 27.4446 6.89059 27.4987 6.6053C27.7648 5.21497 28.6592 4.61189 30.0218 4.90199C30.2999 4.96097 30.4973 4.91282 30.6634 4.64318C31.3905 3.46592 32.5208 3.24081 33.6475 4.04492C33.8931 4.22067 34.0857 4.22548 34.3336 4.04853C35.4664 3.24322 36.5943 3.46351 37.3214 4.63717C37.4863 4.90319 37.6777 4.96218 37.9593 4.90199C39.3292 4.60948 40.2693 5.24024 40.4872 6.59808C40.5342 6.88938 40.675 7.03985 40.9796 7.08198C42.2868 7.26496 42.9874 8.29296 42.6781 9.57495C42.5986 9.90598 42.6829 10.0974 42.9778 10.2743C44.0816 10.9328 44.3224 12.1594 43.5472 13.2067C43.3377 13.4896 43.3534 13.6894 43.5532 13.9626C44.3212 15.0075 44.0768 16.2209 42.9645 16.8889C42.6877 17.0551 42.5962 17.2392 42.6672 17.551C42.9706 18.88 42.3458 19.8153 41.0109 20.0813C40.8496 20.1138 40.6124 20.2053 40.5727 20.3232C40.3969 20.8553 40.167 21.4042 40.1598 21.9495C40.1225 25.2382 40.1381 28.5268 40.1441 31.8155C40.1441 32.2187 40.0791 32.569 39.6663 32.7436C39.251 32.9181 38.9524 32.7171 38.6708 32.4318C37.8907 31.6409 37.1035 30.8585 36.2621 30.0171C36.0032 30.3541 35.5868 30.6514 35.5603 30.9801C35.4736 32.067 35.5278 33.1649 35.5278 34.3253H35.5314ZM38.6238 20.7903C38.8152 20.7927 38.9248 20.6218 38.9645 20.3437C39.1113 19.3253 39.6927 18.7283 40.6919 18.5453C41.2083 18.4502 41.2673 18.3635 41.1505 17.8604C40.9326 16.9214 41.2624 16.1246 42.0786 15.6214C42.5179 15.3506 42.5468 15.2157 42.2555 14.8053C41.6717 13.9831 41.6741 13.1862 42.2652 12.3508C42.5432 11.9572 42.5143 11.8175 42.1063 11.5599C41.2552 11.0243 40.9314 10.2515 41.1577 9.28966C41.2709 8.80696 41.1782 8.67214 40.6846 8.60473C39.7674 8.47834 39.0993 7.81387 38.9681 6.89781C38.8959 6.39344 38.7779 6.31158 38.2928 6.42474C37.3322 6.64984 36.551 6.32603 36.0213 5.4822C35.7685 5.08015 35.6156 5.04885 35.2316 5.31849C34.4059 5.8999 33.5801 5.90231 32.7724 5.32691C32.3824 5.04885 32.2271 5.07653 31.9791 5.47136C31.4398 6.32482 30.6706 6.64984 29.7124 6.42835C29.2129 6.31279 29.1166 6.37659 29.0323 6.88938C28.8734 7.84998 28.2427 8.4663 27.2748 8.60714C26.8271 8.67214 26.7295 8.82502 26.8367 9.28726C27.0618 10.2599 26.744 11.0267 25.8941 11.5599C25.4813 11.8187 25.4524 11.956 25.7292 12.346C26.3203 13.1802 26.3263 13.9795 25.7461 14.8016C25.4476 15.2254 25.4716 15.3469 25.9086 15.619C26.7295 16.1306 27.0558 16.9142 26.8391 17.8556C26.7235 18.3563 26.7885 18.4538 27.2977 18.5465C28.2354 18.7174 28.853 19.3121 29.0227 20.2101C29.1371 20.8144 29.1984 20.8553 29.7847 20.7241C30.6405 20.5315 31.4567 20.8698 31.9237 21.6113C32.2548 22.1361 32.3366 22.1542 32.8241 21.8075C33.5669 21.279 34.4324 21.279 35.1703 21.8075C35.6554 22.1542 35.7348 22.1337 36.0719 21.6125C36.4667 21.001 37.024 20.6663 37.7631 20.6868C38.0159 20.694 38.2663 20.7482 38.6274 20.7951L38.6238 20.7903ZM33.987 32.3644C33.6319 32.7604 33.2924 32.9265 32.8819 32.7231C32.4341 32.5028 32.4558 32.0851 32.457 31.6722C32.4618 29.1504 32.4594 26.6273 32.4594 24.1054V23.6312C31.3471 23.3892 31.3532 23.3844 30.5864 22.425C30.4949 22.3106 30.2842 22.2384 30.1313 22.2408C29.8978 22.2468 29.6667 22.3347 29.4247 22.3913V37.8463C30.0001 37.26 30.4973 36.7472 31.0017 36.2417C31.4964 35.7457 31.8828 35.7493 32.3884 36.2465C32.6773 36.5306 32.9602 36.8207 33.2491 37.106C33.4742 37.3286 33.7041 37.5465 33.9858 37.8198V32.3656L33.987 32.3644ZM34.0122 30.1507C34.5852 29.5777 35.08 29.0793 35.5783 28.5846C36.126 28.0393 36.4679 28.0405 37.0228 28.587C37.2359 28.7977 37.4465 29.0119 37.6596 29.2226C37.9497 29.5091 38.241 29.7956 38.5781 30.1266V22.3805C38.371 22.3443 38.1688 22.3407 37.9918 22.2733C37.6524 22.1433 37.473 22.2769 37.3009 22.5646C36.6424 23.6637 35.4086 23.902 34.3649 23.1509C34.2686 23.081 34.1579 23.0305 34.0134 22.9486V30.1519L34.0122 30.1507Z" fill="#ABABAB"/>
<path d="M5.53389 18.1565C5.53389 15.6792 5.53269 13.2019 5.53389 10.7246C5.5363 8.30624 7.18424 6.64506 9.59776 6.64145C14.042 6.63664 18.4863 6.63904 22.9305 6.64145C23.1087 6.64145 23.294 6.65108 23.4614 6.70284C23.8153 6.81238 24.0018 7.07119 23.9922 7.44556C23.9826 7.81992 23.7864 8.0703 23.424 8.15938C23.2375 8.20513 23.0388 8.21114 22.845 8.21114C18.4309 8.21355 14.0167 8.21957 9.60257 8.20753C8.76596 8.20512 8.07381 8.45069 7.55379 9.12118C7.20711 9.56898 7.08553 10.0866 7.08553 10.6391C7.08432 15.6696 7.07831 20.6989 7.08794 25.7293C7.09034 27.234 8.04733 28.1669 9.546 28.1669C14.2009 28.1693 18.8546 28.1669 23.5095 28.1669C23.6299 28.1669 23.7503 28.1645 23.8694 28.1669C24.4183 28.1826 24.7819 28.5016 24.7759 28.9602C24.7698 29.4008 24.4256 29.7258 23.8947 29.7306C22.514 29.7439 21.1321 29.7366 19.7502 29.7366C16.3869 29.7366 13.0236 29.733 9.66035 29.7378C8.09909 29.7402 6.86404 29.148 6.0491 27.7853C5.67955 27.1666 5.52908 26.4841 5.53028 25.7642C5.53389 23.2267 5.53148 20.6892 5.53028 18.1517L5.53389 18.1565Z" fill="#ABABAB"/>
<path d="M12.9298 24.7685C12.3339 25.634 11.4961 26.1937 10.5259 26.5645C9.87225 26.8137 9.28602 26.402 9.42084 25.7664C9.46899 25.5413 9.69169 25.3186 9.89031 25.1706C10.1371 24.9852 10.4488 24.8877 10.7221 24.7348C11.4576 24.3231 11.8801 23.7116 11.897 22.8485C11.9054 22.4176 12.1136 22.1347 12.5386 22.0456C12.9238 21.965 13.2536 22.1768 13.4317 22.633C13.693 23.2987 14.1083 23.832 14.7186 24.2027C15.129 24.4531 15.2855 24.3737 15.3758 23.9006C15.4456 23.531 15.625 23.2578 16.0246 23.194C16.4158 23.1314 16.6482 23.3336 16.8853 23.631C17.096 23.8946 17.3873 24.1726 17.6954 24.2641C18.9738 24.6421 20.2727 24.9455 21.6233 24.9226C22.1385 24.9142 22.4755 25.2524 22.4611 25.7134C22.4478 26.1516 22.1204 26.4429 21.6148 26.4501C19.8694 26.4742 18.195 26.1299 16.5735 25.4968C16.4808 25.4607 16.3304 25.4522 16.2582 25.504C15.3614 26.1444 14.5103 25.9638 13.6821 25.3764C13.4269 25.1958 13.1946 24.984 12.931 24.7697L12.9298 24.7685Z" fill="#ABABAB"/>
<path d="M15.5774 12.8273C13.8668 12.8273 12.1563 12.8297 10.447 12.8237C10.2556 12.8237 10.0521 12.8117 9.87519 12.7455C9.5273 12.6155 9.36961 12.3386 9.40211 11.9654C9.43341 11.6091 9.63203 11.3828 9.9739 11.3034C10.1472 11.2636 10.3302 11.2588 10.5096 11.2588C13.8548 11.2564 17.2012 11.2564 20.5464 11.2576C21.3108 11.2576 21.684 11.5104 21.6924 12.0292C21.7008 12.5685 21.3241 12.8273 20.5296 12.8273C18.8792 12.8273 17.2289 12.8273 15.5786 12.8273H15.5774Z" fill="#ABABAB"/>
<path d="M15.5188 18.9641C13.7637 18.9641 12.0086 18.9665 10.2524 18.9629C9.71548 18.9617 9.39648 18.6656 9.39648 18.1949C9.39648 17.7206 9.70344 17.4425 10.2499 17.4269C10.3703 17.4233 10.4895 17.4269 10.6099 17.4269C12.8609 17.4269 15.1107 17.4269 17.3617 17.4269C18.4872 17.4269 19.6127 17.4245 20.737 17.4269C21.3461 17.4293 21.694 17.711 21.6928 18.1925C21.6928 18.6764 21.3425 18.9641 20.7394 18.9641C18.9988 18.9653 17.2582 18.9641 15.5188 18.9641Z" fill="#ABABAB"/>
<path d="M15.5289 14.3467C17.1937 14.3467 18.8596 14.3467 20.5244 14.3467C20.6894 14.3467 20.8555 14.3443 21.018 14.3635C21.4152 14.4117 21.6403 14.6536 21.68 15.0413C21.7198 15.4289 21.5416 15.7129 21.1684 15.8417C21.0312 15.8887 20.8747 15.8959 20.7279 15.8959C17.2623 15.8983 13.7967 15.8959 10.3311 15.9007C9.89531 15.9007 9.55345 15.7659 9.41983 15.3302C9.26093 14.8101 9.62206 14.3635 10.2167 14.3527C11.1015 14.3359 11.9874 14.3467 12.8722 14.3467C13.7569 14.3467 14.6429 14.3467 15.5277 14.3467H15.5289Z" fill="#ABABAB"/>
<path d="M40.1417 13.573C40.1441 16.9711 37.4056 19.7313 34.0134 19.7482C30.6225 19.765 27.8286 16.9651 27.8394 13.5633C27.8514 10.1567 30.5888 7.43141 33.999 7.43262C37.4116 7.43382 40.1393 10.1603 40.1417 13.573ZM33.9689 18.1725C36.5293 18.1821 38.5937 16.1418 38.5985 13.5946C38.6045 11.0583 36.5269 8.9686 33.9978 8.9686C31.4831 8.9686 29.4055 11.0342 29.397 13.5441C29.3886 16.1129 31.4121 18.1629 33.9689 18.1725Z" fill="#ABABAB"/>
</svg>
