<svg width="24" height="25" viewBox="0 0 24 25" fill="none" xmlns="http://www.w3.org/2000/svg">
<path fill-rule="evenodd" clip-rule="evenodd" d="M3 5.44647C3 4.89419 3.44772 4.44647 4 4.44647H11C11.5523 4.44647 12 4.89419 12 5.44647C12 5.99876 11.5523 6.44647 11 6.44647H8.5V18.4465H11C11.5523 18.4465 12 18.8942 12 19.4465C12 19.9988 11.5523 20.4465 11 20.4465H4C3.44772 20.4465 3 19.9988 3 19.4465C3 18.8942 3.44772 18.4465 4 18.4465H6.5V6.44647H4C3.44772 6.44647 3 5.99876 3 5.44647Z" fill="url(#paint0_linear_404_6839)"/>
<path d="M15.3474 8.95975C15.5133 8.27538 16.4867 8.27538 16.6526 8.95975L17.1092 10.8429C17.1685 11.0872 17.3593 11.278 17.6036 11.3372L19.4867 11.7939C20.1711 11.9598 20.1711 12.9331 19.4867 13.0991L17.6036 13.5557C17.3593 13.615 17.1685 13.8057 17.1092 14.0501L16.6526 15.9332C16.4867 16.6176 15.5133 16.6176 15.3474 15.9332L14.8908 14.0501C14.8315 13.8057 14.6407 13.615 14.3964 13.5557L12.5133 13.0991C11.8289 12.9331 11.8289 11.9598 12.5133 11.7939L14.3964 11.3372C14.6407 11.278 14.8315 11.0872 14.8908 10.8429L15.3474 8.95975Z" fill="url(#paint1_linear_404_6839)"/>
<path fill-rule="evenodd" clip-rule="evenodd" d="M16 9.68793L15.6739 11.0328C15.5436 11.5703 15.1238 11.99 14.5863 12.1204L13.2415 12.4465L14.5863 12.7726C15.1238 12.9029 15.5436 13.3226 15.6739 13.8602L16 15.205L16.3261 13.8602C16.4564 13.3226 16.8762 12.9029 17.4137 12.7726L18.7585 12.4465L17.4137 12.1204C16.8762 11.99 16.4564 11.5703 16.3261 11.0328L16 9.68793ZM16.6526 8.95975C16.4867 8.27538 15.5133 8.27538 15.3474 8.95975L14.8908 10.8429C14.8315 11.0872 14.6407 11.278 14.3964 11.3372L12.5133 11.7939C11.8289 11.9598 11.8289 12.9331 12.5133 13.0991L14.3964 13.5557C14.6407 13.615 14.8315 13.8057 14.8908 14.0501L15.3474 15.9332C15.5133 16.6176 16.4867 16.6176 16.6526 15.9332L17.1092 14.0501C17.1685 13.8057 17.3593 13.615 17.6036 13.5557L19.4867 13.0991C20.1711 12.9331 20.1711 11.9598 19.4867 11.7939L17.6036 11.3372C17.3593 11.278 17.1685 11.0872 17.1092 10.8429L16.6526 8.95975Z" fill="url(#paint2_linear_404_6839)"/>
<path d="M21 5.44647C21 5.99876 20.5523 6.44647 20 6.44647C19.4477 6.44647 19 5.99876 19 5.44647C19 4.89419 19.4477 4.44647 20 4.44647C20.5523 4.44647 21 4.89419 21 5.44647Z" fill="url(#paint3_linear_404_6839)"/>
<path d="M21 19.4465C21 19.9988 20.5523 20.4465 20 20.4465C19.4477 20.4465 19 19.9988 19 19.4465C19 18.8942 19.4477 18.4465 20 18.4465C20.5523 18.4465 21 18.8942 21 19.4465Z" fill="url(#paint4_linear_404_6839)"/>
<defs>
<linearGradient id="paint0_linear_404_6839" x1="12" y1="4.44647" x2="12" y2="20.4465" gradientUnits="userSpaceOnUse">
<stop stop-color="#E850FF"/>
<stop offset="1" stop-color="#4941C8"/>
</linearGradient>
<linearGradient id="paint1_linear_404_6839" x1="12" y1="4.44647" x2="12" y2="20.4465" gradientUnits="userSpaceOnUse">
<stop stop-color="#E850FF"/>
<stop offset="1" stop-color="#4941C8"/>
</linearGradient>
<linearGradient id="paint2_linear_404_6839" x1="12" y1="4.44647" x2="12" y2="20.4465" gradientUnits="userSpaceOnUse">
<stop stop-color="#E850FF"/>
<stop offset="1" stop-color="#4941C8"/>
</linearGradient>
<linearGradient id="paint3_linear_404_6839" x1="12" y1="4.44647" x2="12" y2="20.4465" gradientUnits="userSpaceOnUse">
<stop stop-color="#E850FF"/>
<stop offset="1" stop-color="#4941C8"/>
</linearGradient>
<linearGradient id="paint4_linear_404_6839" x1="12" y1="4.44647" x2="12" y2="20.4465" gradientUnits="userSpaceOnUse">
<stop stop-color="#E850FF"/>
<stop offset="1" stop-color="#4941C8"/>
</linearGradient>
</defs>
</svg>
