<svg width="24" height="25" viewBox="0 0 24 25" fill="none" xmlns="http://www.w3.org/2000/svg">
<path d="M0 4.40566C0.0441561 4.2995 0.0826752 4.19145 0.132938 4.08811C0.430757 3.47744 0.935264 3.19559 1.60324 3.19559C3.39235 3.19371 5.18161 3.19371 6.97103 3.19559H12.4797C12.5422 3.19559 12.6047 3.19559 12.6676 3.19559C13.0185 3.20405 13.2539 3.40416 13.259 3.69916C13.2642 4.00262 13.0242 4.21259 12.6587 4.21259C10.2132 4.21259 7.76772 4.21259 5.32222 4.21259C4.08773 4.21259 2.85324 4.21259 1.61874 4.21259C1.18235 4.21259 1.00573 4.38358 1.00573 4.82044C1.00385 7.96116 1.00385 11.1022 1.00573 14.2435C1.00573 14.3032 1.017 14.3624 1.02264 14.422L1.10014 14.4817C1.1443 14.4075 1.17624 14.3211 1.23496 14.2614C2.00597 13.4854 2.77917 12.7115 3.55457 11.9399C3.87869 11.6167 4.12907 11.6163 4.45507 11.9432C5.21089 12.7004 5.96483 13.46 6.74085 14.2398C6.81883 14.1656 6.88506 14.1054 6.94895 14.042L11.4745 9.5179C11.9034 9.08902 12.1016 9.08714 12.5244 9.50991L18.7565 15.7416C18.8204 15.8054 18.8875 15.8665 18.9942 15.968V14.9228C18.9942 14.54 18.9909 14.1571 18.9942 13.7743C18.9979 13.4351 19.1947 13.2167 19.4912 13.2106C19.7993 13.2054 20.0079 13.4262 20.0079 13.7743C20.0098 16.9156 20.0098 20.0566 20.0079 23.1974C20.0079 24.0697 19.3404 24.7006 18.4615 24.7006H1.56237C0.7934 24.7057 0.267755 24.3116 0.0422771 23.5689C0.0310198 23.5402 0.016854 23.5126 0 23.4867L0 4.40566ZM12.0372 10.4067C11.9672 10.463 11.9433 10.4799 11.9203 10.5006C8.31888 14.102 4.71828 17.7053 1.11846 21.3104C1.04993 21.3902 1.01124 21.4913 1.00901 21.5965C0.99821 22.0883 1.00244 22.5806 1.00479 23.0729C1.00713 23.537 1.17765 23.7066 1.64505 23.7066C7.21529 23.7066 12.7855 23.7066 18.3558 23.7066C18.8255 23.7066 18.9937 23.5398 18.9942 23.0757C18.9942 21.2709 18.9942 19.4662 18.9979 17.6614C19.002 17.5815 18.9884 17.5017 18.9582 17.4275C18.9281 17.3534 18.8819 17.2869 18.8232 17.2325C16.6088 15.0272 14.3985 12.8185 12.1923 10.6063C12.1367 10.5429 12.0849 10.4762 12.0372 10.4067ZM5.99161 14.9482L3.98344 12.9456C3.95733 12.9653 3.93239 12.9865 3.90875 13.0091C2.97584 13.9415 2.04105 14.8721 1.11518 15.8116C1.04518 15.883 1.00948 16.0173 1.00901 16.123C1.0015 17.3251 1.00385 18.5267 1.00479 19.7288C1.00479 19.7945 1.01418 19.8598 1.01841 19.9195L5.99161 14.9482Z" fill="url(#paint0_linear_372_785)"/>
<path d="M16.6433 0.701706C16.8547 0.801762 16.9614 0.976977 17.0398 1.19306C17.386 2.15322 17.7472 3.10774 18.0953 4.06743C18.1159 4.13686 18.1533 4.20015 18.2042 4.25168C18.2551 4.30322 18.3179 4.34142 18.387 4.3629C19.3533 4.71287 20.3172 5.07316 21.2793 5.43111C21.6325 5.56217 21.7542 5.6998 21.749 5.96239C21.7438 6.27853 21.5249 6.39643 21.2689 6.48991C20.3102 6.83987 19.3552 7.19923 18.3955 7.5459C18.3225 7.56846 18.2563 7.60869 18.2026 7.66302C18.1489 7.71735 18.1095 7.7841 18.0878 7.85734C17.7355 8.83207 17.3733 9.80303 17.013 10.7745C16.8984 11.084 16.7533 11.2038 16.5001 11.2038C16.2469 11.2038 16.1008 11.084 15.9862 10.7749C15.6263 9.80303 15.2642 8.83254 14.9119 7.85828C14.8908 7.7854 14.8521 7.7188 14.7993 7.66434C14.7465 7.60987 14.6811 7.5692 14.6089 7.5459C13.6346 7.19265 12.6641 6.82954 11.6922 6.46971C11.3798 6.35369 11.2563 6.21088 11.254 5.96286C11.2511 5.70497 11.3756 5.56029 11.7026 5.43956C12.6829 5.07739 13.6619 4.71944 14.6371 4.34646C14.7524 4.29514 14.8442 4.20221 14.894 4.08622C15.2642 3.11855 15.6243 2.14774 15.9744 1.1738C16.0501 0.962415 16.1623 0.804111 16.362 0.704055L16.6433 0.701706ZM13.2795 5.9328V5.98541C13.9371 6.22733 14.592 6.47394 15.2524 6.70788C15.4995 6.79525 15.6569 6.94275 15.7447 7.19359C15.9561 7.79628 16.1839 8.39238 16.4061 8.99084C16.4306 9.05707 16.4592 9.12143 16.5081 9.24121C16.7744 8.51921 17.0224 7.86439 17.2564 7.20487C17.3442 6.95778 17.4912 6.80135 17.7421 6.71351C18.3528 6.50119 18.9559 6.27054 19.5619 6.04553C19.6201 6.02393 19.6746 5.99151 19.7704 5.94548C19.0682 5.68524 18.4138 5.43439 17.7562 5.20328C17.6374 5.16701 17.5295 5.10205 17.4418 5.01414C17.3541 4.92623 17.2895 4.81808 17.2535 4.69924C17.0431 4.09656 16.8153 3.49998 16.5931 2.90153C16.5715 2.84234 16.5386 2.78691 16.4916 2.68873C16.2309 3.39335 15.9815 4.04724 15.7494 4.70864C15.7134 4.82774 15.6481 4.9359 15.5595 5.02323C15.4708 5.11055 15.3617 5.17423 15.2421 5.20845C14.8945 5.32119 14.5544 5.45647 14.2115 5.58424C13.9005 5.69792 13.59 5.81583 13.2795 5.9328Z" fill="url(#paint1_linear_372_785)"/>
<path d="M18.0001 10.3043C17.9959 9.97543 18.1138 9.81149 18.3759 9.71237C18.8353 9.53951 19.299 9.37791 19.7541 9.19565C19.8551 9.1507 19.9362 9.07033 19.982 8.9697C20.1628 8.52204 20.3221 8.06591 20.4921 7.61355C20.5987 7.32888 20.7542 7.20722 21.0008 7.21098C21.2653 7.21473 21.4086 7.36928 21.4936 7.60321C21.6557 8.04994 21.829 8.49244 21.9836 8.94199C22.0031 9.00831 22.0393 9.06856 22.0886 9.11705C22.1379 9.16554 22.1988 9.20067 22.2654 9.21914C22.706 9.37369 23.1415 9.5442 23.5807 9.70063C23.8235 9.78706 23.9889 9.9308 23.9992 10.2018C24.0082 10.4367 23.8715 10.6039 23.5915 10.7096C23.1466 10.8773 22.699 11.0305 22.2569 11.2104C22.1428 11.2616 22.0509 11.3521 21.9981 11.4655C21.8215 11.8981 21.6693 12.3411 21.5077 12.7808C21.3997 13.0729 21.2259 13.2176 20.991 13.2157C20.7561 13.2139 20.5955 13.0748 20.4832 12.7742C20.323 12.3434 20.1595 11.9136 20.0069 11.4805C19.9884 11.4139 19.9534 11.3531 19.905 11.3038C19.8566 11.2545 19.7964 11.2183 19.7302 11.1986C19.2665 11.038 18.8085 10.8604 18.3487 10.6894C18.1288 10.6072 18.0048 10.4555 18.0001 10.3043ZM20.9919 9.20411C20.8815 9.78095 20.5551 10.0966 19.9763 10.2065C20.5424 10.3245 20.8876 10.6331 20.9628 11.2466C21.1037 10.9647 21.1709 10.7007 21.3358 10.5382C21.5007 10.3757 21.7642 10.3122 22.0498 10.1741C21.4344 10.0966 21.1065 9.77861 20.9919 9.20411Z" fill="url(#paint2_linear_372_785)"/>
<path d="M6.99172 9.9557C6.46276 9.95383 5.9561 9.74236 5.58277 9.36762C5.20943 8.99288 4.99987 8.48543 5 7.95646C5 6.83377 5.89862 5.9483 7.03353 5.95581C8.1379 5.96333 9.00975 6.86947 8.99989 7.99921C8.99049 9.0768 8.08247 9.96087 6.99172 9.9557ZM7.99322 7.96398C7.99508 7.83334 7.97104 7.70362 7.92247 7.58233C7.87391 7.46104 7.80179 7.35057 7.71028 7.25732C7.61878 7.16406 7.50969 7.08987 7.38934 7.03902C7.26899 6.98817 7.13975 6.96168 7.0091 6.96107C6.74507 6.95992 6.49121 7.06278 6.30246 7.2474C6.11371 7.43202 6.00525 7.68355 6.00056 7.94753C6.00278 8.21118 6.10725 8.46367 6.29197 8.65181C6.47669 8.83994 6.72722 8.94903 6.99078 8.95608C7.25507 8.95572 7.50856 8.85115 7.69624 8.66506C7.88391 8.47897 7.99062 8.22638 7.99322 7.9621V7.96398Z" fill="url(#paint3_linear_372_785)"/>
<path d="M20.4953 2.44635C20.4953 2.25845 20.4882 2.11001 20.4953 1.96298C20.5126 1.66328 20.7254 1.45424 21.0016 1.45471C21.2779 1.45518 21.4902 1.66234 21.508 1.96345C21.517 2.11095 21.508 2.25892 21.508 2.44541C21.641 2.44541 21.7622 2.44541 21.8838 2.44541C22.2737 2.44963 22.5039 2.64411 22.4992 2.96213C22.495 3.27216 22.2671 3.45865 21.8885 3.461H21.5141C21.5141 3.62071 21.5179 3.76633 21.5141 3.91148C21.5029 4.24406 21.2957 4.45639 20.9937 4.45075C20.7052 4.44511 20.5084 4.23279 20.4981 3.91007C20.4938 3.76915 20.4981 3.63151 20.4981 3.461C20.336 3.461 20.1904 3.46428 20.0448 3.461C19.7263 3.45207 19.5111 3.25055 19.5079 2.96213C19.5046 2.6737 19.7117 2.46514 20.0307 2.44541C20.1735 2.43977 20.3205 2.44635 20.4953 2.44635Z" fill="url(#paint4_linear_372_785)"/>
<defs>
<linearGradient id="paint0_linear_372_785" x1="10.0046" y1="3.19418" x2="10.0046" y2="24.7006" gradientUnits="userSpaceOnUse">
<stop stop-color="#D370FF"/>
<stop offset="1" stop-color="#9C96FF"/>
</linearGradient>
<linearGradient id="paint1_linear_372_785" x1="16.5015" y1="0.701706" x2="16.5015" y2="11.2038" gradientUnits="userSpaceOnUse">
<stop stop-color="#D370FF"/>
<stop offset="1" stop-color="#9C96FF"/>
</linearGradient>
<linearGradient id="paint2_linear_372_785" x1="20.9998" y1="7.21089" x2="20.9998" y2="13.2158" gradientUnits="userSpaceOnUse">
<stop stop-color="#D370FF"/>
<stop offset="1" stop-color="#9C96FF"/>
</linearGradient>
<linearGradient id="paint3_linear_372_785" x1="6.99998" y1="5.95576" x2="6.99998" y2="9.95572" gradientUnits="userSpaceOnUse">
<stop stop-color="#D370FF"/>
<stop offset="1" stop-color="#9C96FF"/>
</linearGradient>
<linearGradient id="paint4_linear_372_785" x1="21.0035" y1="1.45471" x2="21.0035" y2="4.45086" gradientUnits="userSpaceOnUse">
<stop stop-color="#D370FF"/>
<stop offset="1" stop-color="#9C96FF"/>
</linearGradient>
</defs>
</svg>
