<svg width="25" height="25" viewBox="0 0 25 25" fill="none" xmlns="http://www.w3.org/2000/svg">
<path fill-rule="evenodd" clip-rule="evenodd" d="M12.5 4.2C10.5557 4.2 9.00342 5.82985 9 7.79897L9 11.907C9 13.8675 10.5579 15.4832 12.5 15.4832H12.8429C14.7849 15.4832 16.3429 13.8675 16.3429 11.907V7.80547C16.3429 5.83338 14.7893 4.2 12.8429 4.2H12.5ZM10.8571 12.1396V7.572C10.9674 6.71984 11.6809 6.07891 12.5 6.07891H12.8429C13.6619 6.07891 14.3755 6.71984 14.4857 7.572V12.1396C14.3747 12.9708 13.6662 13.6043 12.8429 13.6043H12.5C11.6767 13.6043 10.9681 12.9708 10.8571 12.1396Z" fill="#7E76FF"/>
<path d="M7.12852 12.7918C6.60395 12.7918 6.19995 13.2243 6.19995 13.7312C6.19995 15.2646 7.05974 16.6132 8.20253 17.5866C9.1266 18.3737 10.2755 18.5585 11.4167 18.742C11.5351 18.761 11.6534 18.78 11.7714 18.7997V20.3211H8.95709C8.43252 20.3211 8.02852 20.7536 8.02852 21.2605C8.02852 21.7675 8.43252 22.2 8.95709 22.2H16.4428C16.9674 22.2 17.3714 21.7675 17.3714 21.2605C17.3714 20.7536 16.9674 20.3211 16.4428 20.3211H13.6285V18.7997C13.7465 18.78 13.8648 18.761 13.9832 18.742C15.1244 18.5585 16.2733 18.3737 17.1974 17.5866C18.3402 16.6132 19.2 15.2646 19.2 13.7312C19.2 13.2243 18.796 12.7918 18.2714 12.7918C17.7468 12.7918 17.3428 13.2243 17.3428 13.7312C17.3428 14.6919 16.752 15.623 15.8232 16.3373C14.9533 17.0063 13.8581 17.0032 12.8856 17.0004C12.8232 17.0002 12.7613 17 12.7 17C12.6386 17 12.5767 17.0002 12.5143 17.0004C11.5418 17.0032 10.4466 17.0063 9.5767 16.3373C8.64791 15.623 8.05709 14.6919 8.05709 13.7312C8.05709 13.2243 7.6531 12.7918 7.12852 12.7918Z" fill="#7E76FF"/>
<path d="M20.0105 2.88496C20.135 2.37168 20.865 2.37168 20.9895 2.88496L21.3319 4.29729C21.3764 4.48055 21.5195 4.62363 21.7027 4.66807L23.115 5.01054C23.6283 5.135 23.6283 5.865 23.115 5.98947L21.7027 6.33193C21.5195 6.37637 21.3764 6.51945 21.3319 6.70271L20.9895 8.11504C20.865 8.62832 20.135 8.62832 20.0105 8.11504L19.6681 6.70271C19.6236 6.51945 19.4805 6.37637 19.2973 6.33193L17.885 5.98947C17.8529 5.98169 17.8228 5.97154 17.7947 5.95933C17.3737 5.77612 17.4038 5.12722 17.885 5.01054L19.2973 4.66807C19.4805 4.62363 19.6236 4.48055 19.6681 4.29729L20.0105 2.88496Z" fill="#7E76FF"/>
<path d="M3.59211 17.8208C3.69583 17.3931 4.30417 17.3931 4.40789 17.8208L4.69328 18.9977C4.73031 19.1505 4.84955 19.2697 5.00226 19.3067L6.1792 19.5921C6.60693 19.6958 6.60693 20.3042 6.1792 20.4079L5.00226 20.6933C4.98317 20.6979 4.9646 20.7038 4.94666 20.7109C4.82102 20.7606 4.72568 20.8686 4.69328 21.0023L4.40789 22.1792C4.40141 22.2059 4.39295 22.231 4.38277 22.2544C4.2301 22.6053 3.68935 22.5802 3.59211 22.1792L3.30672 21.0023C3.30441 20.9927 3.30177 20.9833 3.29883 20.974C3.25466 20.835 3.14091 20.728 2.99774 20.6933L1.8208 20.4079C1.79407 20.4014 1.76901 20.393 1.74561 20.3828C1.39474 20.2301 1.4198 19.6893 1.8208 19.5921L2.99774 19.3067C3.15046 19.2697 3.26969 19.1505 3.30672 18.9977L3.59211 17.8208Z" fill="#7E76FF"/>
<path d="M7.5 3.5C7.5 4.05228 7.05228 4.5 6.5 4.5C5.94772 4.5 5.5 4.05228 5.5 3.5C5.5 2.94772 5.94772 2.5 6.5 2.5C7.05228 2.5 7.5 2.94772 7.5 3.5Z" fill="#7E76FF"/>
<path d="M22.5 21.5C22.5 22.0523 22.0523 22.5 21.5 22.5C20.9477 22.5 20.5 22.0523 20.5 21.5C20.5 20.9477 20.9477 20.5 21.5 20.5C22.0523 20.5 22.5 20.9477 22.5 21.5Z" fill="#7E76FF"/>
<path d="M22.5 17.5C22.5 18.0523 22.0523 18.5 21.5 18.5C20.9477 18.5 20.5 18.0523 20.5 17.5C20.5 16.9477 20.9477 16.5 21.5 16.5C22.0523 16.5 22.5 16.9477 22.5 17.5Z" fill="#7E76FF"/>
<path d="M4.5 6.5C4.5 7.05228 4.05228 7.5 3.5 7.5C2.94772 7.5 2.5 7.05228 2.5 6.5C2.5 5.94772 2.94772 5.5 3.5 5.5C4.05228 5.5 4.5 5.94772 4.5 6.5Z" fill="#7E76FF"/>
</svg>
