<svg width="30" height="30" viewBox="0 0 30 30" fill="none" xmlns="http://www.w3.org/2000/svg">
<path d="M15 0C23.2843 0 30 6.71573 30 15C30 23.2843 23.2843 30 15 30C6.71573 30 0 23.2843 0 15C0 6.71573 6.71573 0 15 0ZM10.4922 7.5C10.1494 7.57958 9.80514 7.6519 9.46387 7.74219C9.03854 7.85693 8.7095 8.11359 8.44629 8.46387C8.11108 8.91541 7.88849 9.42115 7.71094 9.94922C7.51358 10.5338 7.44815 11.1275 7.54297 11.7441C7.62562 12.289 7.80936 12.7992 7.99609 13.3135C8.30369 14.1659 8.64326 15.0015 9.11914 15.7773C9.84925 16.9728 10.7529 18.0236 11.7646 18.9863C12.5635 19.7438 13.4271 20.4217 14.376 20.9834C15.4212 21.6001 16.5566 22.0073 17.709 22.3623C18.3059 22.549 18.9278 22.6002 19.5508 22.4609C20.2365 22.3079 20.881 22.0583 21.458 21.6543C21.666 21.5059 21.8722 21.3218 22.0176 21.1123C22.365 20.6073 22.4653 20.0193 22.499 19.4209C22.5113 19.2081 22.4389 19.0529 22.2598 18.9473C21.9277 18.7483 21.5989 18.54 21.2607 18.3457C20.6301 17.9829 19.9622 17.6819 19.3652 17.2549C19.3103 17.2152 19.2432 17.1877 19.1807 17.1572C18.9557 17.044 18.7408 17.0622 18.5449 17.2275C18.4487 17.307 18.3491 17.3892 18.2666 17.4824C17.9222 17.8697 17.5881 18.2603 17.2422 18.6445C16.8703 19.0592 16.684 19.1048 16.2051 18.834C15.6969 18.5462 15.1927 18.2451 14.709 17.916C13.454 17.0666 12.4611 15.9643 11.6836 14.668C11.474 14.3176 11.284 13.9596 11.0928 13.6016C10.9689 13.3675 11.0158 13.1453 11.1992 12.9678C11.4348 12.7414 11.686 12.5284 11.9277 12.3066C12.217 12.0418 12.5176 11.7825 12.79 11.5039C12.9812 11.3096 12.9869 11.0646 12.8584 10.8213C12.7957 10.7142 12.7314 10.6041 12.6641 10.4971C12.5906 10.3839 12.5032 10.2769 12.4404 10.1592C12.1955 9.71991 11.9663 9.27257 11.7168 8.83789C11.501 8.46143 11.2734 8.09384 11.0469 7.72656C10.9459 7.55982 10.7894 7.51504 10.6074 7.53027C10.5722 7.53487 10.5366 7.5352 10.4922 7.5Z" fill="#3C5D62"/>
</svg>
