<svg width="103" height="97" viewBox="0 0 103 97" fill="none" xmlns="http://www.w3.org/2000/svg">
<path d="M96.8183 74.6757C96.8183 76.1485 98.0122 77.3424 99.485 77.3424C100.958 77.3424 102.152 76.1485 102.152 74.6757C102.152 73.203 100.958 72.0091 99.485 72.0091C98.0122 72.0091 96.8183 73.203 96.8183 74.6757ZM6.62731 65.235L7.07615 65.0147L6.62731 65.235ZM1.07163 43.806L1.57098 43.7805L1.07163 43.806ZM4.41466 21.9224L4.88362 22.0959L4.41466 21.9224ZM13.4481 3.12952C13.4481 4.60228 14.642 5.79618 16.1148 5.79618C17.5876 5.79618 18.7815 4.60228 18.7815 3.12952C18.7815 1.65676 17.5876 0.46285 16.1148 0.46285C14.642 0.46285 13.4481 1.65676 13.4481 3.12952ZM99.485 74.6757L99.0897 74.3696C94.5663 80.2105 88.9027 85.0708 82.4428 88.6553L82.6854 89.0925L82.928 89.5297C89.5064 85.8795 95.2739 80.93 99.8803 74.9819L99.485 74.6757ZM82.6854 89.0925L82.4428 88.6553C75.983 92.2397 68.8619 94.4733 61.5121 95.2205L61.5627 95.7179L61.6133 96.2154C69.0979 95.4545 76.3497 93.1798 82.928 89.5297L82.6854 89.0925ZM61.5627 95.7179L61.5121 95.2205C54.1624 95.9677 46.7374 95.2128 39.6884 93.0017L39.5388 93.4788L39.3891 93.9559C46.5675 96.2075 54.1286 96.9763 61.6133 96.2154L61.5627 95.7179ZM39.5388 93.4788L39.6884 93.0017C32.6394 90.7906 26.1135 87.1695 20.5073 82.3584L20.1817 82.7378L19.856 83.1172C25.5652 88.0167 32.2108 91.7042 39.3891 93.9559L39.5388 93.4788ZM20.1817 82.7378L20.5073 82.3584C14.901 77.5472 10.3314 71.6465 7.07615 65.0147L6.62731 65.235L6.17847 65.4553C9.49347 72.2088 14.1469 78.2178 19.856 83.1172L20.1817 82.7378ZM6.62731 65.235L7.07615 65.0147C3.82088 58.3829 1.94789 51.1585 1.57098 43.7805L1.07163 43.806L0.572282 43.8315C0.956109 51.3449 2.86347 58.7019 6.17847 65.4553L6.62731 65.235ZM1.07163 43.806L1.57098 43.7805C1.19407 36.4025 2.32111 29.0249 4.88362 22.0959L4.41466 21.9224L3.9457 21.749C1.33617 28.8051 0.188455 36.3181 0.572282 43.8315L1.07163 43.806ZM4.41466 21.9224L4.88362 22.0959C7.44613 15.1669 11.3906 8.83121 16.4774 3.47379L16.1148 3.12952L15.7522 2.78524C10.5721 8.24095 6.55523 14.6929 3.9457 21.749L4.41466 21.9224Z" fill="url(#paint0_linear_404_8112)"/>
<defs>
<linearGradient id="paint0_linear_404_8112" x1="3.45982" y1="3.12952" x2="97.0252" y2="96" gradientUnits="userSpaceOnUse">
<stop stop-color="#4941C8"/>
<stop offset="1" stop-color="#E850FF"/>
</linearGradient>
</defs>
</svg>
