<svg width="40" height="40" viewBox="0 0 40 40" fill="none" xmlns="http://www.w3.org/2000/svg">
<path d="M0 37.9686C0.0579417 38.1251 0.112751 38.2817 0.174608 38.4382C0.359645 38.9006 0.679402 39.2967 1.0924 39.5752C1.50539 39.8536 1.99256 40.0016 2.49071 39.9998C11.9462 39.9998 21.4016 39.9998 30.8571 39.9998C32.2618 39.9998 33.3486 38.8899 33.3548 37.4441C33.365 35.153 33.3548 32.8612 33.3548 30.5701C33.3548 27.9927 33.3548 25.4149 33.3548 22.8365C33.3601 22.706 33.3575 22.5753 33.347 22.4451C33.3322 22.2341 33.2385 22.0364 33.0845 21.8914C32.9305 21.7463 32.7275 21.6646 32.516 21.6624C32.3044 21.6602 32.0998 21.7378 31.9428 21.8797C31.7859 22.0215 31.6881 22.2173 31.669 22.4279C31.6562 22.5705 31.6528 22.7138 31.6589 22.8569C31.6589 27.6483 31.6589 32.4395 31.6589 37.2305C31.6589 38.0696 31.4044 38.3263 30.5674 38.3263H2.78903C1.93478 38.3263 1.67404 38.0641 1.67404 37.2023C1.67404 27.1247 1.67404 17.0473 1.67404 6.97019C1.67404 6.10056 1.9246 5.8493 2.78277 5.8493H20.9115C21.689 5.8493 22.1157 5.5362 22.1 4.98201C22.0844 4.42783 21.678 4.14995 20.9138 4.14995C15.0006 4.14995 9.09058 4.17422 3.17505 4.13351C1.6114 4.12569 0.498768 4.6196 0 6.17336V37.9686Z" fill="#ABABAB"/>
<path d="M27.8208 0.0015655C28.0252 0.302141 28.2945 0.577668 28.4229 0.907988C29.0235 2.45626 29.5927 4.01628 30.1526 5.57943C30.2559 5.86905 30.4188 6.01072 30.7007 6.11248C32.3246 6.69876 33.9407 7.30461 35.5592 7.90497C36.0462 8.08501 36.2529 8.33157 36.2599 8.73234C36.2678 9.15346 36.0611 9.41176 35.5552 9.59806C33.9368 10.1984 32.3199 10.8043 30.696 11.3906C30.4141 11.4923 30.2544 11.6363 30.1479 11.9244C29.5645 13.5478 28.9585 15.1634 28.3587 16.7821C28.1692 17.2933 27.921 17.4991 27.5037 17.4991C27.0864 17.4991 26.8382 17.2925 26.6487 16.7806C26.0528 15.1626 25.4476 13.5431 24.8627 11.9228C24.8272 11.8009 24.7621 11.6896 24.6732 11.5989C24.5842 11.5082 24.4742 11.4409 24.3529 11.4031C22.7306 10.8145 21.1145 10.2102 19.4984 9.61137C18.9628 9.41255 18.7482 9.1605 18.7608 8.73156C18.7749 8.25173 19.0857 8.03804 19.4968 7.88854C21.1184 7.29756 22.7337 6.68937 24.3514 6.09996C24.4676 6.0664 24.5738 6.00481 24.6606 5.92059C24.7475 5.83638 24.8123 5.73213 24.8493 5.617C25.4123 4.0515 26.0011 2.50166 26.5649 0.939298C26.6996 0.567492 26.8601 0.234824 27.1913 0L27.8208 0.0015655ZM28.7549 10.863C28.8159 10.6587 28.9264 10.4728 29.0767 10.3216C29.227 10.1704 29.4123 10.0587 29.6162 9.99648C30.7054 9.61606 31.7828 9.20199 32.9479 8.77069C32.7842 8.69242 32.6926 8.63528 32.594 8.59927C31.5839 8.22512 30.5754 7.84627 29.5606 7.48699C29.3754 7.42779 29.2071 7.32482 29.0701 7.18678C28.9331 7.04875 28.8315 6.87973 28.7737 6.69406C28.4182 5.69136 28.0401 4.69649 27.6697 3.69849C27.6305 3.59281 27.5843 3.49027 27.5131 3.32277C27.4411 3.47932 27.3886 3.57246 27.351 3.67344C26.9807 4.67066 26.6025 5.66553 26.2493 6.66901C26.1037 7.08231 25.8578 7.34218 25.4397 7.48855C24.4477 7.83531 23.4658 8.21259 22.48 8.57814C22.3626 8.62119 22.2451 8.67207 22.0439 8.75504C22.4925 8.92646 22.859 9.06814 23.2278 9.20668C23.97 9.48221 24.71 9.76713 25.4593 10.0223C25.8649 10.1609 26.1014 10.4137 26.2423 10.816C26.5939 11.8062 26.9681 12.7885 27.3346 13.774C27.3776 13.8907 27.427 14.0088 27.5139 14.2202C27.9586 13.0288 28.3736 11.9518 28.7549 10.863Z" fill="#ABABAB"/>
<path d="M16.6565 26.4638V25.9614C16.6565 21.5742 16.6778 17.186 16.641 12.7988C16.6332 11.8267 17.3186 11.4671 18.1822 11.7724C20.1658 12.4708 22.1708 13.115 24.1661 13.7827C24.8282 14.004 25.0006 14.2344 25.0015 14.8921C25.0015 16.6334 25.0015 18.375 25.0015 20.1169C25.0015 20.968 24.4303 21.3393 23.5649 21.052C22.0294 20.5418 20.4947 20.0299 18.9606 19.5161C18.827 19.4718 18.6905 19.4348 18.5075 19.3797V19.8865C18.5075 23.3152 18.5172 26.7447 18.5075 30.1734C18.4978 32.5016 16.944 34.3239 14.547 34.8714C11.5149 35.5599 8.4479 33.3943 8.33367 30.486C8.2175 27.669 10.5981 25.376 13.5421 25.469C14.5159 25.495 15.4616 25.7796 16.2683 26.2894C16.3651 26.349 16.4619 26.4077 16.5587 26.4656C16.5664 26.4701 16.5829 26.4638 16.6565 26.4638ZM13.4143 27.2236C12.7766 27.2261 12.1541 27.405 11.6253 27.7376C11.0966 28.0702 10.6854 28.5417 10.4437 29.0924C10.202 29.6431 10.1407 30.2483 10.2675 30.8315C10.3943 31.4147 10.7036 31.9498 11.1562 32.369C11.6088 32.7882 12.1844 33.0728 12.8102 33.1867C13.4361 33.3007 14.0841 33.239 14.6724 33.0093C15.2607 32.7796 15.7628 32.3924 16.1152 31.8964C16.4677 31.4005 16.6547 30.8182 16.6526 30.2231C16.646 29.4256 16.3019 28.6628 15.6953 28.101C15.0888 27.5392 14.2689 27.2238 13.4143 27.2236ZM18.5065 13.7474C18.5065 14.9852 18.4988 16.1452 18.521 17.3053C18.521 17.4092 18.6982 17.5601 18.827 17.6052C20.1378 18.057 21.4563 18.4924 22.773 18.9297C22.8873 18.9605 23.0033 18.9856 23.1205 19.0047V16.0531C23.1205 15.2842 23.1205 15.2824 22.3557 15.0267C21.0933 14.6066 19.8348 14.1892 18.5065 13.7474Z" fill="#ABABAB"/>
<path d="M30.6245 15.0116C31.3433 14.7454 32.0582 14.4691 32.784 14.2241C33.0972 14.12 33.2742 13.9588 33.3799 13.6386C33.6148 12.9114 33.8967 12.1968 34.1629 11.4798C34.3289 11.0399 34.6029 10.8309 34.996 10.8379C35.4321 10.8458 35.6788 11.0955 35.8213 11.4884C36.0985 12.2578 36.3764 13.0273 36.6787 13.7866C36.7494 13.9442 36.8756 14.0704 37.0334 14.1411C37.7929 14.4448 38.5626 14.7227 39.3322 15.0022C39.7237 15.1431 39.9806 15.3865 39.9994 15.8194C40.0158 16.2107 39.7864 16.4933 39.3236 16.6671C38.5947 16.9418 37.8688 17.2259 37.1312 17.4756C37.0143 17.5062 36.9074 17.5665 36.8208 17.6508C36.7342 17.735 36.6709 17.8403 36.6372 17.9563C36.3835 18.692 36.1071 19.4208 35.8338 20.1479C35.6639 20.6019 35.364 20.8446 34.9929 20.8438C34.6217 20.843 34.3219 20.609 34.1519 20.1495C33.8842 19.4317 33.6132 18.7155 33.3611 17.9923C33.2695 17.7285 33.1356 17.568 32.8537 17.4733C32.0911 17.2173 31.3426 16.9199 30.5877 16.6389C30.2056 16.4964 29.9966 16.2303 29.9966 15.8076C30.013 15.3951 30.2511 15.1493 30.6245 15.0116ZM34.9991 14.1443C34.7979 15.1031 34.2772 15.6581 33.2985 15.8186C34.2177 16.0401 34.8316 16.5136 34.9764 17.5179C35.2051 16.5958 35.6937 15.99 36.6802 15.8374C35.7125 15.6487 35.1777 15.1039 34.9991 14.1443Z" fill="#ABABAB"/>
<path d="M35.8619 4.59851C36.1477 4.59851 36.3928 4.60791 36.6363 4.59851C37.1625 4.57503 37.5156 4.22671 37.5125 3.7461C37.5093 3.26549 37.1531 2.92656 36.6238 2.90699C36.3889 2.8976 36.154 2.90699 35.8627 2.90699C35.8627 2.64556 35.869 2.40447 35.8627 2.16338C35.8455 1.61076 35.4978 1.24913 35.0014 1.25696C34.5254 1.26401 34.1894 1.62329 34.1707 2.15477C34.162 2.3896 34.1707 2.61973 34.1707 2.90699C33.9021 2.90699 33.6594 2.89995 33.4174 2.90699C32.8858 2.925 32.5264 3.26236 32.5201 3.73906C32.5138 4.23454 32.8771 4.58129 33.4292 4.60008C33.6601 4.60791 33.8919 4.60008 34.1707 4.60008C34.1707 4.87639 34.1628 5.12061 34.1707 5.36326C34.1918 5.8924 34.5347 6.24776 35.0139 6.24933C35.4931 6.25089 35.8408 5.89631 35.8627 5.36952C35.8666 5.13548 35.8619 4.90065 35.8619 4.59851Z" fill="#ABABAB"/>
</svg>
