<svg width="40" height="40" viewBox="0 0 40 40" fill="none" xmlns="http://www.w3.org/2000/svg">
<path d="M2.02933 40C1.98789 39.971 1.94356 39.9464 1.89706 39.9265C0.669853 39.5547 0.00146484 38.6632 0.00146484 37.3875C0.00146484 29.5766 0.00146484 21.7639 0.00146484 13.9493C0.00146484 11.5669 0.00146484 9.18397 0.00146484 6.80052C0.00146484 5.22503 1.06979 4.15201 2.64684 4.1481C8.77922 4.14497 14.91 4.14497 21.0393 4.1481C21.8219 4.1481 22.272 4.67718 22.027 5.29391C21.8924 5.6328 21.6294 5.79559 21.2819 5.84177C21.1517 5.85136 21.021 5.85345 20.8906 5.84803H2.8112C1.91584 5.84803 1.68809 6.07735 1.68809 6.98288V37.1762C1.68809 38.0935 1.92289 38.3251 2.84564 38.3251H30.5752C31.3922 38.3197 31.6513 38.0637 31.6513 37.2513C31.6513 32.4724 31.6513 27.6938 31.6513 22.9154C31.6513 22.7847 31.645 22.654 31.6513 22.5241C31.6881 22.006 32.0614 21.635 32.5208 21.653C32.9803 21.671 33.3387 22.0443 33.3395 22.571C33.3426 27.5707 33.3411 32.5708 33.3348 37.5714C33.3348 38.6022 32.6437 39.4999 31.6693 39.8529C31.5503 39.8959 31.4345 39.9491 31.3179 39.9977L2.02933 40Z" fill="#ABABAB"/>
<path d="M39.9953 16.0928C39.7997 16.4372 39.4952 16.6211 39.1242 16.7463C38.4235 16.9827 37.7306 17.2399 37.0455 17.518C36.8777 17.5953 36.7438 17.7311 36.669 17.9C36.3755 18.6341 36.1157 19.3831 35.841 20.1251C35.6633 20.6033 35.3604 20.8631 34.9801 20.8404C34.5355 20.8146 34.289 20.5446 34.145 20.136C33.8812 19.3902 33.6128 18.6451 33.3153 17.9117C33.2351 17.7324 33.0924 17.5883 32.9138 17.5063C32.193 17.2144 31.4565 16.9584 30.7263 16.6908C30.2066 16.4998 30.0024 16.2603 29.9977 15.8432C29.9922 15.4111 30.1941 15.1701 30.7388 14.9681C31.4323 14.7107 32.1241 14.4485 32.8223 14.2058C33.1009 14.1096 33.27 13.9616 33.3701 13.6682C33.6096 12.9418 33.8883 12.2281 34.1528 11.5104C34.3273 11.0408 34.595 10.8295 34.9981 10.8318C35.4011 10.8342 35.6618 11.0455 35.8378 11.5198C36.1188 12.2735 36.3857 13.0334 36.6816 13.7809C36.7521 13.9384 36.8779 14.0645 37.0353 14.1354C37.7074 14.4088 38.3875 14.6629 39.0757 14.8977C39.4529 15.0261 39.7801 15.2045 39.9984 15.5434L39.9953 16.0928ZM33.2308 15.876C34.2311 16.02 34.8063 16.5335 34.991 17.5071C35.164 16.5202 35.7651 16.0286 36.7246 15.8776C36.2628 15.6538 35.8206 15.5481 35.542 15.2749C35.2634 15.0018 35.1648 14.5706 34.9769 14.1886C34.4557 15.2961 34.4557 15.2961 33.2285 15.876H33.2308Z" fill="#ABABAB"/>
<path d="M9.58801 22.0629C9.58801 19.1994 9.58801 16.3359 9.58801 13.4724C9.58801 12.3337 10.1891 11.5283 11.2159 11.2951C11.8734 11.1464 12.4682 11.3256 13.0286 11.6864C16.3543 13.8434 19.6825 15.9976 23.0129 18.1488C23.9615 18.7632 24.9132 19.3752 25.8594 19.9935C27.5101 21.0713 27.5163 23.0866 25.8594 24.162C21.5752 26.9446 17.287 29.7204 12.9949 32.4894C11.648 33.359 10.06 32.8299 9.66549 31.3835C9.6044 31.1178 9.57809 30.8452 9.58723 30.5727C9.58462 27.7374 9.58488 24.9008 9.58801 22.0629ZM11.2519 22.0684C11.2519 24.8922 11.2465 27.716 11.2621 30.5391C11.2621 30.7574 11.3529 31.0822 11.5047 31.1652C11.6566 31.2481 11.9743 31.1417 12.1606 31.0227C16.4125 28.2871 20.6595 25.5439 24.9015 22.7931C25.5965 22.3431 25.5949 21.8273 24.8976 21.3757C20.654 18.6265 16.4078 15.8815 12.159 13.1406C11.9735 13.0216 11.6511 12.923 11.493 13.0068C11.3349 13.0905 11.2629 13.4161 11.2582 13.6329C11.2472 16.4473 11.2519 19.2578 11.2519 22.0707V22.0684Z" fill="#ABABAB"/>
<path d="M36.2449 8.73511C36.2496 9.15774 36.0453 9.41367 35.5405 9.60072C33.9227 10.2002 32.3065 10.8044 30.6833 11.3883C30.5545 11.4249 30.4369 11.4931 30.3412 11.5867C30.2455 11.6803 30.1748 11.7964 30.1355 11.9244C29.5508 13.5484 28.9458 15.1646 28.3463 16.7832C28.1577 17.2927 27.9049 17.5001 27.4854 17.4969C27.0659 17.4938 26.8287 17.2927 26.6362 16.7714C26.032 15.1411 25.4262 13.5109 24.8361 11.8767C24.8038 11.7664 24.7447 11.6659 24.6641 11.5839C24.5836 11.502 24.484 11.4413 24.3743 11.4071C22.7401 10.8131 21.113 10.2002 19.4788 9.60699C19.0656 9.45671 18.7619 9.23522 18.7462 8.76015C18.7322 8.34065 18.9505 8.08941 19.4937 7.88827C21.1114 7.28719 22.7276 6.68376 24.3501 6.09364C24.4654 6.05892 24.5704 5.99635 24.6559 5.91145C24.7413 5.82655 24.8045 5.72194 24.84 5.60683C25.4278 3.9836 26.0312 2.36663 26.6315 0.74888C26.8405 0.199455 27.0808 -0.00012207 27.5065 -0.00012207C27.9323 -0.00012207 28.1608 0.205717 28.3674 0.762968C28.963 2.36898 29.5626 3.97186 30.1456 5.58413C30.1821 5.70596 30.2481 5.81689 30.3378 5.90701C30.4276 5.99714 30.5382 6.06367 30.6598 6.10068C32.2948 6.69002 33.9243 7.29658 35.5538 7.90079C36.0343 8.07689 36.2378 8.33204 36.2449 8.73511ZM22.0412 8.73511C22.2447 8.8212 22.3457 8.86894 22.4506 8.90807C23.4351 9.27357 24.4166 9.64925 25.4074 9.99675C25.6054 10.0568 25.7855 10.1645 25.9319 10.3106C26.0784 10.4566 26.1867 10.6364 26.2472 10.8342C26.5924 11.8266 26.9696 12.8073 27.3359 13.7918C27.3789 13.9069 27.4322 14.0173 27.5143 14.2074C27.9487 13.0335 28.3627 11.9432 28.7478 10.842C28.8981 10.4155 29.1446 10.1329 29.5821 9.9991C29.9664 9.88248 30.3405 9.73221 30.717 9.59211C31.4386 9.32288 32.1578 9.05052 32.892 8.77424C32.8481 8.71632 32.8372 8.68658 32.8184 8.67954C31.9802 8.36648 31.1404 8.05341 30.3029 7.74035C28.7924 7.17292 29.0703 7.46877 28.4974 5.93241C28.1765 5.08714 27.8634 4.22622 27.5112 3.28703C27.4283 3.48348 27.3758 3.6001 27.332 3.71437C26.9696 4.68642 26.5932 5.65379 26.255 6.63446C26.1944 6.83883 26.0841 7.02496 25.9338 7.17617C25.7835 7.32738 25.5981 7.43894 25.3941 7.50086C24.3062 7.88436 23.2301 8.29603 22.0412 8.73667V8.73511Z" fill="#ABABAB"/>
<path d="M34.1532 4.59477C33.8534 4.59477 33.6053 4.60573 33.3643 4.59477C32.8446 4.56738 32.4892 4.20345 32.5033 3.73385C32.5135 3.27443 32.8634 2.93398 33.3643 2.90815C33.6084 2.89641 33.8534 2.90815 34.154 2.90815C34.154 2.65144 34.1485 2.42212 34.154 2.19358C34.1712 1.60972 34.5108 1.24657 35.0227 1.2544C35.5119 1.26457 35.8367 1.63398 35.8461 2.19358C35.8461 2.41195 35.8461 2.63109 35.8461 2.90345C36.1129 2.90345 36.3556 2.89641 36.5974 2.90345C37.1335 2.92067 37.4857 3.2486 37.4943 3.72916C37.5029 4.2324 37.1515 4.57677 36.599 4.59556C36.3642 4.60417 36.1341 4.59556 35.8461 4.59556C35.8461 4.84679 35.8461 5.07532 35.8461 5.29995C35.8367 5.86033 35.5119 6.23053 35.0243 6.23913C34.5124 6.25009 34.1712 5.88616 34.154 5.29995C34.1477 5.08706 34.1532 4.87105 34.1532 4.59477Z" fill="#ABABAB"/>
</svg>
