<svg width="24" height="24" viewBox="0 0 24 24" fill="none" xmlns="http://www.w3.org/2000/svg">
<path d="M14.76 0C15.0684 0.0737157 15.3812 0.134285 15.6849 0.223964C16.3784 0.428678 16.9874 0.789275 17.5001 1.2973C18.7711 2.5561 20.0337 3.82289 21.2977 5.08826C21.5169 5.308 21.5362 5.48642 21.3906 5.76438C21.3399 5.86063 21.2883 5.95642 21.2418 6.04422C21.3902 6.33157 21.5986 6.41421 21.8921 6.28274C22.224 6.13343 22.4832 6.23766 22.7213 6.50295C23.0025 6.81659 23.3166 7.10018 23.611 7.40256C24.1331 7.93876 24.1317 8.64352 23.6054 9.17455C22.879 9.90655 22.1503 10.6357 21.4188 11.3621C20.8803 11.8969 20.1722 11.8936 19.6308 11.3583C19.3031 11.0344 18.9838 10.7015 18.6509 10.3831C18.465 10.2052 18.4162 10.0066 18.4908 9.76757C18.5073 9.71545 18.5091 9.6577 18.5317 9.60934C18.6481 9.3619 18.5786 9.17972 18.3378 9.0459C17.3076 9.68587 16.5676 10.6484 15.6159 11.5241C15.7178 11.587 15.8108 11.6236 15.8756 11.6879C18.2856 14.0938 20.6957 16.5006 23.1002 18.9121C24.1655 19.9807 24.2951 21.5884 23.4256 22.7814C22.3724 24.2271 20.2661 24.4163 18.9796 23.1763C18.5861 22.7969 18.2025 22.4068 17.818 22.018C17.5875 21.7846 17.5734 21.5151 17.772 21.3128C17.9636 21.1174 18.2537 21.1268 18.4796 21.3475C18.8763 21.7349 19.2543 22.1424 19.6632 22.5162C20.7981 23.5533 22.587 23.0242 22.979 21.5386C23.1593 20.8554 23.0133 20.23 22.5428 19.7079C22.1301 19.2501 21.6803 18.8257 21.2441 18.389C19.759 16.9025 18.273 15.4169 16.7874 13.9313C16.7334 13.8773 16.6756 13.8266 16.6292 13.783C15.6746 14.737 14.7309 15.6808 13.7716 16.6391C14.2444 17.1105 14.7248 17.5899 15.2046 18.0693C15.2929 18.1575 15.3854 18.2425 15.4661 18.3374C15.6469 18.5491 15.6399 18.8078 15.4558 18.991C15.2783 19.1675 15.0013 19.1717 14.7999 18.9975C14.7468 18.9515 14.6989 18.8994 14.6496 18.8496C13.6556 17.8552 12.6617 16.8612 11.6672 15.8672C11.6076 15.8076 11.5447 15.7517 11.4935 15.7033C11.2479 15.9503 11.0131 16.186 10.7657 16.4339C10.8174 16.4884 10.8803 16.5546 10.9427 16.6213C11.1995 16.8936 11.2019 17.1297 10.938 17.395C10.2774 18.0599 9.61302 18.721 8.95004 19.3839C7.69641 20.6376 6.45075 21.8997 5.18632 23.143C3.63125 24.6718 1.01363 24.0694 0.31216 22.0166C-0.0766079 20.8785 0.141722 19.8253 0.986401 18.9661C2.89221 17.0279 4.82478 15.1159 6.74749 13.1946C6.99775 12.9444 7.25036 12.9425 7.50484 13.1853C7.57198 13.2491 7.62081 13.3322 7.66542 13.3904C8.22979 12.8223 8.76083 12.288 9.31768 11.7278C8.9646 11.3827 8.58194 11.0156 8.20725 10.6409C6.42211 8.85809 4.64777 7.06403 2.84573 5.29861C2.52974 4.98919 2.10528 4.78401 1.71605 4.55723C1.46954 4.41355 1.2977 4.22856 1.16341 3.97783C0.785913 3.27213 0.388224 2.57535 -0.00195312 1.87482C-0.00195312 1.76542 -0.00195312 1.65602 -0.00195312 1.54662C0.513587 1.03108 1.02913 0.51554 1.54467 0C1.65407 0 1.76347 0 1.87287 0C2.57293 0.390177 3.26924 0.787866 3.97541 1.16584C4.22567 1.29965 4.42193 1.46445 4.55293 1.71894C4.92057 2.43403 5.43892 3.02704 6.01128 3.59047C7.87483 5.42679 9.71678 7.28565 11.5648 9.13746C11.6306 9.2032 11.6766 9.28771 11.7325 9.36424C11.8038 9.30931 11.8297 9.29381 11.8508 9.27269C12.7349 8.38951 13.6218 7.50914 14.4999 6.61986C14.882 6.23297 14.8759 5.69207 14.4966 5.29767C14.1717 4.96008 13.8378 4.63094 13.5035 4.30274C12.8913 3.70222 12.0987 3.6778 11.4428 4.23513C11.1733 4.46426 10.953 4.46051 10.7028 4.214C10.4018 3.9182 10.1051 3.61911 9.80787 3.31955C9.5224 3.03173 9.51958 2.79744 9.80224 2.5115C10.1811 2.12837 10.5624 1.74758 10.9451 1.36773C11.4573 0.859704 12.0531 0.478448 12.7377 0.253545C13.0748 0.143675 13.4293 0.0831062 13.7758 0C14.104 0 14.4318 0 14.76 0ZM17.2602 8.65056C17.5208 8.45806 17.7941 8.25099 18.073 8.05145C18.3326 7.86551 18.5303 7.88336 18.7617 8.10591C18.897 8.23597 19.0144 8.3881 19.1627 8.49938C19.5797 8.81255 19.7139 9.18864 19.4975 9.6807C19.4693 9.74456 19.4942 9.86992 19.5426 9.92251C19.7919 10.1915 20.0562 10.4465 20.3173 10.7052C20.4619 10.8484 20.6075 10.8357 20.7469 10.6963C21.4761 9.96758 22.2067 9.23982 22.9326 8.50783C23.103 8.33645 23.0955 8.22893 22.9208 8.04816C22.7527 7.87397 22.5574 7.72137 22.4133 7.5298C22.1982 7.24386 21.9569 7.18094 21.6329 7.32039C21.3845 7.42698 21.1638 7.36359 20.9793 7.15747C20.8389 7.00065 20.6826 6.85791 20.5337 6.7086C20.0755 6.25081 20.0727 6.2325 20.368 5.66531C20.3858 5.63104 20.3999 5.59488 20.4159 5.5592C20.4013 5.53807 20.3905 5.51694 20.3741 5.50051C19.1923 4.31871 18.0283 3.11766 16.8212 1.96262C15.9061 1.08649 14.7891 0.798665 13.535 1.01653C12.3142 1.22875 11.5414 2.07484 10.776 2.89322C10.8944 3.03173 11.0047 3.16085 11.1113 3.28575C12.2851 2.64625 13.3256 2.79415 14.2562 3.72194C14.5548 4.01962 14.8759 4.29946 15.1431 4.62296C15.3469 4.86946 15.5276 5.15587 15.6389 5.45449C15.8225 5.94703 15.7173 6.43815 15.4891 6.88279C16.0775 7.47017 16.6564 8.04863 17.2597 8.65103L17.2602 8.65056ZM7.08133 14.1281C7.04001 14.1914 7.00292 14.2746 6.94329 14.3347C6.2559 15.0272 5.56523 15.7169 4.87549 16.4071C3.81577 17.4673 2.75041 18.5214 1.6982 19.5891C0.786382 20.5141 0.909868 21.9612 1.94846 22.6908C2.78046 23.2754 3.83784 23.1613 4.60833 22.3927C6.3606 20.6451 8.10865 18.8933 9.85811 17.1429C9.90084 17.1002 9.93793 17.0513 9.96798 17.0166C9.01578 16.0635 8.07344 15.1206 7.08133 14.1281ZM3.76553 4.78307C6.43714 7.45609 9.1172 10.1376 11.7639 12.7862C12.1006 12.4476 12.456 12.0908 12.803 11.7424C10.1478 9.08675 7.47104 6.40998 4.80553 3.74354C4.45808 4.09099 4.10077 4.4483 3.766 4.78307H3.76553ZM15.9357 13.0805C15.4957 12.6411 15.0614 12.2035 14.6229 11.7706C14.4693 11.6189 14.3196 11.649 14.1745 11.7945C13.38 12.5908 12.5828 13.3843 11.7902 14.1821C11.6137 14.36 11.6193 14.475 11.8015 14.6633C12.0137 14.8821 12.232 15.0943 12.4466 15.3108C12.6584 15.5244 12.8682 15.7395 13.073 15.9475C14.0392 14.9798 14.9774 14.0407 15.9361 13.081L15.9357 13.0805ZM14.8351 7.66033C14.0543 8.44068 13.265 9.22855 12.4879 10.0051C12.8358 10.3507 13.1889 10.7015 13.5547 11.0644C13.9327 10.7343 14.3858 10.6291 14.8957 10.8221C14.929 10.8348 14.9924 10.8156 15.0191 10.7883C15.5154 10.2944 16.0084 9.79762 16.4921 9.31119C15.9338 8.7548 15.3877 8.21062 14.8351 7.65986V7.66033ZM4.18529 2.94252C4.06603 2.74438 3.9463 2.56221 3.84394 2.37064C3.73407 2.16452 3.58148 2.02037 3.37019 1.91238C2.89972 1.67152 2.43865 1.4114 1.97945 1.1494C1.85221 1.07662 1.76675 1.06583 1.66158 1.18556C1.51321 1.35505 1.34981 1.51282 1.1836 1.66541C1.08265 1.75838 1.06106 1.83397 1.13477 1.96309C1.43198 2.48286 1.71417 3.01155 2.00715 3.53366C2.04706 3.60456 2.10669 3.67358 2.17383 3.71818C2.38794 3.85951 2.60533 3.99755 2.83258 4.11681C2.89033 4.14733 3.0157 4.13231 3.06218 4.08817C3.41198 3.75528 3.75004 3.41017 4.09044 3.06742C4.1266 3.03127 4.15289 2.98525 4.18482 2.94206L4.18529 2.94252ZM10.0271 12.5162C9.50597 13.0369 8.97305 13.5698 8.4824 14.0595C9.01061 14.5924 9.55667 15.1437 10.1206 15.7122C10.3201 15.5066 10.5403 15.2859 10.7512 15.0563C10.7906 15.0131 10.8263 14.9253 10.8094 14.8779C10.6295 14.3727 10.7371 13.928 11.062 13.5562C10.6995 13.1918 10.3483 12.8392 10.0267 12.5162H10.0271Z" fill="#7E76FF"/>
<path d="M17.0913 20.149C17.0923 20.4025 16.8693 20.6223 16.6129 20.6209C16.3518 20.6194 16.1434 20.4039 16.1485 20.1415C16.1532 19.8856 16.3528 19.6879 16.6087 19.6851C16.8702 19.6823 17.0904 19.8936 17.0909 20.1485L17.0913 20.149Z" fill="#7E76FF"/>
</svg>
