<svg width="108" height="35" viewBox="0 0 108 35" fill="none" xmlns="http://www.w3.org/2000/svg">
<path d="M30.8424 11.6968C28.8234 10.3464 26.4497 9.62837 24.0228 9.63382C17.1534 9.63382 11.5703 15.2225 11.5703 22.0909C11.5703 28.9801 17.1571 34.5792 24.0228 34.5792C26.4537 34.5878 28.8305 33.8595 30.8414 32.4898C32.5567 31.3548 33.9645 29.8108 34.9384 27.9961C35.9124 26.1815 36.4223 24.1528 36.4223 22.0919C36.4223 20.031 35.9124 18.0023 34.9384 16.1876C33.9645 14.3729 32.5567 12.8289 30.8414 11.694L30.8424 11.6968ZM24.0228 29.1754C22.1519 29.1725 20.3585 28.4258 19.0356 27.0991C17.7127 25.7724 16.9682 23.9738 16.9652 22.0975C16.9652 18.2075 20.1326 15.0432 24.0228 15.0432C27.8866 15.0432 31.0287 18.2075 31.0287 22.0975C31.0287 25.9989 27.8866 29.1754 24.0228 29.1754Z" fill="white"/>
<path d="M54.0186 23.2155C54.0186 25.9929 51.6924 28.339 48.9371 28.339C46.1818 28.339 43.8292 25.9901 43.8292 23.2155V9.54102H37.6016V23.2155C37.6154 26.2261 38.8142 29.1093 40.9371 31.2379C43.06 33.3665 45.9352 34.5683 48.9371 34.5817C55.1732 34.5817 60.2462 29.4856 60.2462 23.2127V9.54102H54.0186V23.2155Z" fill="white"/>
<path d="M70.1115 6.33803H77.7252V0H63.7906V12.727H61.4277V18.9829H63.7906V34.5506H70.1115V18.9829H74.4778V12.727H70.1115V6.33803Z" fill="white"/>
<path d="M11.5708 9.54102H0V34.5817H6.31989V15.913H11.5708V9.54102Z" fill="white"/>
<path d="M108.001 16.2098V12.6963H101.682V22.2864L107.181 17.0223L108.001 16.2098Z" fill="#4941C8"/>
<path d="M101.682 26.75V34.5508H108.001V20.6035L101.682 26.75Z" fill="#4941C8"/>
<path d="M100.307 19.8892C99.7909 17.0176 98.2868 14.4185 96.0567 12.5445C93.8265 10.6706 91.0115 9.64054 88.102 9.63379C81.2325 9.63379 75.6504 15.2225 75.6504 22.0909C75.6527 24.483 76.339 26.8243 77.628 28.837C78.9169 30.8498 80.7544 32.4496 82.9226 33.4467C83.813 33.8589 84.7494 34.1628 85.7118 34.3517C86.4988 34.5065 87.299 34.5839 88.101 34.5829C88.4227 34.5939 88.7447 34.5816 89.0646 34.5461L100.419 23.5121C100.477 23.0426 100.504 22.5697 100.499 22.0966C100.501 21.3579 100.438 20.6205 100.311 19.893L100.307 19.8892ZM95.0759 21.4086L87.2852 29.1273C85.5662 28.9249 83.981 28.097 82.83 26.8007C81.679 25.5043 81.0423 23.8295 81.0406 22.0937C81.0406 18.2037 84.208 15.0394 88.0982 15.0394C89.841 15.0444 91.5198 15.6987 92.8086 16.8754C94.0973 18.052 94.904 19.667 95.0721 21.4067L95.0759 21.4086Z" fill="#4941C8"/>
<path d="M93.6523 34.5507H100.498V27.8975L93.6523 34.5507Z" fill="#4941C8"/>
</svg>
