<svg width="90" height="76" viewBox="0 0 90 76" fill="none" xmlns="http://www.w3.org/2000/svg">
<path d="M1 74.5262C3.58823 74.5262 7.47057 69.0909 12 68.3145C14.5882 68.3145 16.5294 73.7497 22.9999 74.5262C27.5293 74.5262 29.4705 69.0909 33.9999 69.0909C38.5293 69.0909 40.4705 74.5262 44.9999 74.5262C49.5293 74.5262 51.4704 69.0909 55.9998 69.0909C60.5292 69.0909 62.4704 74.5262 66.9998 74.5262C71.5292 74.5262 73.4704 69.0909 77.9998 69.0909C82.5292 69.0909 84.4704 74.5262 88.9998 74.5262" stroke="#7E76FF" stroke-width="2" stroke-linecap="round" stroke-linejoin="round"/>
<path d="M9.85219 69.1171L6.88867 63.4489L83.2414 58.5312C77.2367 63.9924 69.5238 68.4183 61.7203 72.0418" stroke="#7E76FF" stroke-width="2" stroke-linecap="round" stroke-linejoin="round"/>
<path d="M37.2871 10.6489C50.28 14.6219 68.4494 33.8136 74.6352 54.4417C71.2447 53.1088 68.7082 51.75 63.9459 52.9665C59.3388 36.2077 51.0953 20.1995 37.2871 10.6489Z" stroke="#7E76FF" stroke-width="2" stroke-linecap="round" stroke-linejoin="round"/>
<path d="M13.125 1.47363C29.7674 8.59126 52.5955 28.4041 56.7885 54.7911C37.5967 47.0523 22.9862 51.1805 12.8145 57.457C28.3309 37.7347 21.3686 15.3077 13.125 1.47363Z" stroke="#7E76FF" stroke-width="2" stroke-linecap="round" stroke-linejoin="round"/>
</svg>
