<svg width="112" height="40" viewBox="0 0 112 40" fill="none" xmlns="http://www.w3.org/2000/svg">
<path d="M11.0205 32.8294H0.65332C5.40494 19.8704 4.54101 17.1166 12.3164 14.6868C17.8456 12.959 20.8117 4.17567 21.3877 0H31.7549C31.7549 4.75162 27.4352 14.2549 18.3639 16.8467C12.9644 18.3894 12.4604 27.7898 11.0205 32.8294Z" fill="#8D8D8D"/>
<path d="M23.9795 32.8294H13.6123C18.3639 19.8704 17.5 17.1166 25.2754 14.6868C30.8045 12.959 33.7707 4.17567 34.3467 0H44.7138C44.7138 4.75162 40.3942 14.2549 31.3229 16.8467C25.9234 18.3894 25.4194 27.7898 23.9795 32.8294Z" fill="#8D8D8D"/>
<path d="M34.2449 30.9868V9.98681H39.1049V30.9868H34.2449ZM44.0886 30.9868V9.98681H59.9586V13.8868H48.9486V30.9868H44.0886ZM48.5886 23.3368V19.4368H58.6686V23.3368H48.5886ZM59.6099 30.9868L68.9699 9.98681H73.7699L83.1599 30.9868H78.0599L70.3799 12.4468H72.2999L64.5899 30.9868H59.6099ZM64.2899 26.4868L65.5799 22.7968H76.3799L77.6999 26.4868H64.2899ZM85.3386 30.9868V9.98681H94.8786C97.1586 9.98681 99.1686 10.4268 100.909 11.3068C102.649 12.1668 104.009 13.3768 104.989 14.9368C105.969 16.4968 106.459 18.3468 106.459 20.4868C106.459 22.6068 105.969 24.4568 104.989 26.0368C104.009 27.5968 102.649 28.8168 100.909 29.6968C99.1686 30.5568 97.1586 30.9868 94.8786 30.9868H85.3386ZM90.1986 26.9968H94.6386C96.0386 26.9968 97.2486 26.7368 98.2686 26.2168C99.3086 25.6768 100.109 24.9168 100.669 23.9368C101.249 22.9568 101.539 21.8068 101.539 20.4868C101.539 19.1468 101.249 17.9968 100.669 17.0368C100.109 16.0568 99.3086 15.3068 98.2686 14.7868C97.2486 14.2468 96.0386 13.9768 94.6386 13.9768H90.1986V26.9968Z" fill="#5E5E5E"/>
</svg>
