<svg width="173" height="40" viewBox="0 0 173 40" fill="none" xmlns="http://www.w3.org/2000/svg">
<path d="M85.4531 3.81359V1.19092H86.0141H86.5751V3.81359V6.43626H86.0141H85.4531V3.81359ZM79.2167 7.3261C77.2195 3.83551 77.1802 3.74784 77.5281 3.49287C77.7094 3.36005 77.9488 3.25159 78.061 3.25159C78.1725 3.25159 78.7968 4.23648 79.4483 5.44021C80.5565 7.48777 80.6112 7.64475 80.2961 7.87555C79.7988 8.23987 79.7157 8.19755 79.217 7.32608L79.2167 7.3261ZM91.9513 8.10728C91.7718 8.00218 91.6241 7.82291 91.6241 7.70901C91.6241 7.54947 93.7315 3.57774 93.9722 3.28325C94.0134 3.23295 94.7556 3.56357 94.9462 3.71708C94.9736 3.73911 94.6012 4.46532 94.1186 5.33088C93.6361 6.19644 93.0668 7.21995 92.8534 7.60549C92.4264 8.37708 92.42 8.38075 91.9513 8.10728ZM73.5786 11.3819C72.4473 10.7018 71.4936 10.1191 71.4599 10.0866C71.3402 9.97312 71.8171 9.24627 72.0116 9.24627C72.3409 9.24627 76.1388 11.5553 76.2389 11.8165C76.3301 12.0547 75.9887 12.6186 75.7536 12.6181C75.6891 12.6179 74.7106 12.0616 73.5792 11.3817L73.5786 11.3819ZM96.0784 12.34C95.8928 11.932 95.9006 11.8107 96.1219 11.6665C96.2703 11.5698 97.2264 10.973 98.2464 10.3402L100.101 9.18973L100.453 9.62573L100.806 10.0617L99.4403 10.9365C98.6892 11.4177 97.6764 12.0423 97.1898 12.3245L96.3048 12.8376L96.0784 12.34ZM83.4896 28.4638C81.9612 28.0279 81.4999 27.8154 80.0793 26.8927L78.7273 26.0141L78.7217 22.9231C78.7178 20.0727 78.6831 19.7581 78.2759 18.8823C77.959 18.2004 77.5855 17.7673 76.9516 17.3467C76.466 17.0245 75.9782 16.7306 75.8676 16.6937C75.7266 16.6466 75.7358 16.3495 75.8984 15.7003C76.8054 12.0848 79.9189 9.01045 83.5841 8.11106C86.7715 7.32913 90.578 8.31112 92.9741 10.5333C94.6271 12.0664 95.7145 13.8678 96.185 15.8519L96.3072 16.367H93.9661H91.6251V17.3914V18.4158L93.8223 18.4686L96.0196 18.5214L94.9393 19.0698C93.6463 19.7261 92.4645 20.7044 92.0913 21.4275C91.8902 21.817 91.8092 22.777 91.7808 25.1086C91.7597 26.8434 91.7105 28.0316 91.6715 27.7491C91.6009 27.238 91.5977 27.237 91.0214 27.5355C88.9859 28.59 85.4568 29.0255 83.4905 28.4648L83.4896 28.4638Z" fill="#8D8D8D"/>
<path d="M90.315 39.1164C89.6465 38.9732 88.5526 38.6757 87.884 38.4553C86.6345 38.0434 83.0623 36.2708 82.3307 35.6996L81.9199 35.3789L83.4527 33.5975C84.2958 32.6177 85.2471 31.496 85.5667 31.1048L86.148 30.3936L87.016 30.8161C87.9244 31.2582 87.9977 31.402 87.706 32.1705C87.5515 32.5775 87.6124 32.7138 88.1665 33.2012C91.3236 35.978 98.3675 35.2551 103.135 31.6648C107.352 28.4895 107.982 25.5191 105.117 22.3266C103.694 20.7411 102.547 20.511 100.125 21.3255C96.626 22.5021 93.4573 25.1502 94.9721 25.6317C95.4472 25.7828 99.3369 24.5117 99.7296 24.0771C100.126 23.6384 100.12 23.5731 99.6425 23.1275L99.2459 22.7573L100.316 22.4458L101.385 22.1343L102.044 22.7618C103.303 23.9599 103.779 24.7732 103.779 25.7241C103.779 26.4349 103.683 26.6877 103.265 27.0812C102.143 28.1359 98.3967 29.5694 95.477 30.0608C94.249 30.2675 93.999 30.2565 93.2297 29.9622C91.8866 29.4483 91.7853 29.1134 91.8017 25.236C91.8122 22.7476 91.8814 21.8295 92.0889 21.4276C92.4635 20.702 93.6436 19.7243 94.9382 19.0672L96.0191 18.5221L93.8218 18.4696L91.6246 18.4172V17.3928V16.3684H129.316C157.43 16.3684 167.228 16.424 167.873 16.5871C168.468 16.7371 168.99 17.0553 169.533 17.6001C170.884 18.9529 170.912 19.1762 170.912 28.4855V36.6004H168.481H166.05V28.5391C166.05 19.7915 166.033 19.6346 165.019 18.8352C164.582 18.4905 164.262 18.4291 162.904 18.4291H161.305L161.785 18.9443C162.049 19.2276 162.359 19.6436 162.474 19.8686C162.62 20.1527 162.684 22.7738 162.684 28.4391V36.6005H160.253H157.822V32.3855C157.822 26.0568 158.159 26.1205 148.994 30.7196L146.617 31.9123L146.113 31.4781C145.71 31.131 145.593 30.8396 145.525 30.0232C145.412 28.6583 145.651 28.1465 147.697 25.3764C149.385 23.0908 149.783 22.221 149.053 22.4122C148.858 22.4633 146.923 23.5739 144.752 24.8802C140.811 27.2518 140.458 27.5604 141.029 28.1328C141.153 28.2565 141.447 28.3576 141.684 28.3576C142.208 28.3576 142.209 28.3629 141.722 29.1899C141.352 29.8176 141.273 29.8561 140.366 29.8522C139.36 29.8479 138.085 29.3824 137.656 28.8625C137.471 28.6394 137.422 28.0448 137.469 26.6235C137.53 24.7623 137.556 24.6586 138.146 23.9135C138.826 23.0532 141.341 21.2828 143.563 20.0998C144.99 19.3402 145.038 19.3292 146.602 19.4035C148.063 19.4729 148.354 19.5582 150.199 20.4553C152.706 21.675 152.787 21.8486 151.616 23.5276C151.164 24.1749 150.727 24.8148 150.644 24.9495C150.561 25.0842 151.28 24.7985 152.241 24.3146C154.4 23.2274 155.387 23.1401 156.86 23.9058L157.822 24.4056V22.4416C157.822 20.2519 157.599 19.4718 156.791 18.8351C156.279 18.4321 156.211 18.429 147.813 18.429H139.35L137.628 19.5614C136.682 20.1842 135.368 21.2205 134.709 21.8642L133.512 23.0347V26.143V29.2512L134.27 29.9879C135.134 30.8283 139.52 33.5287 140.459 33.7984C141.468 34.0884 142.394 34.0121 142.923 33.5954L143.408 33.2131L144.21 33.6184C144.651 33.8414 145.043 34.0511 145.08 34.0846C145.278 34.261 143.09 36.4338 142.25 36.8952C139.963 38.1518 136.297 37.2929 132.178 34.5355C130.733 33.5683 129.829 32.7422 129.475 32.0668C129.274 31.6821 129.211 30.7047 129.211 27.9861C129.211 24.5761 129.232 24.3706 129.662 23.5276C130.257 22.3634 131.45 21.2622 134.337 19.2137L135.443 18.4291H130.141H124.839L125.26 18.8217C125.491 19.0377 125.76 19.4225 125.856 19.6769C125.956 19.9394 126.032 23.6591 126.032 28.2763V36.4131H123.507H120.983L120.981 28.5919C120.979 20.3498 120.92 19.661 120.134 18.8734C119.722 18.4763 119.517 18.4294 118.095 18.4294H116.503L116.952 19.0928C117.211 19.4741 117.451 20.1712 117.517 20.732C117.58 21.2687 117.607 24.9955 117.576 29.0138L117.52 36.3198H115.089H112.658L112.601 35.4245C112.547 34.5831 112.48 34.4787 111.479 33.6904C110.893 33.2291 110.055 32.7136 109.616 32.5449L108.817 32.2383L107.559 33.4517C104.447 36.452 100.823 38.4201 97.0742 39.1453C95.3595 39.477 91.917 39.4644 90.312 39.1206L90.315 39.1164ZM112.48 19.9859C112.425 19.762 112.163 19.3194 111.897 19.0024L111.412 18.4254H107.566H103.719L104.882 19.0076C107.904 20.5207 109.895 23.4725 110.253 26.9715C110.364 28.0578 110.433 28.206 111.05 28.6736C111.422 28.9553 111.894 29.3971 112.1 29.6554L112.474 30.1251L112.527 25.2587C112.555 22.5823 112.534 20.2092 112.48 19.9853L112.48 19.9859ZM48.6142 35.5814V34.5655L47.352 33.7382C43.1795 31.0033 38.1062 30.5906 32.8595 32.5593L31.2233 33.1733V30.5174V27.8616L32.018 27.4227C35.6324 25.4267 42.8094 20.9123 42.9494 20.5466C43.139 20.0517 42.5558 18.899 42.0814 18.8307C41.5308 18.7516 34.4348 21.954 34.202 22.3867C34.0873 22.5999 34.1481 22.8368 34.3998 23.1573L34.7632 23.6202L34.0074 23.9616C33.2724 24.2937 33.2334 24.2932 32.5883 23.9451C31.6664 23.4478 31.3825 22.926 31.27 21.5223C31.1561 20.1013 31.3791 19.6363 32.5452 18.8633C33.0868 18.5043 33.2294 18.3218 33.0549 18.2109C32.706 17.9891 30.8184 18.0161 30.1415 18.2526C28.9559 18.6666 28.9784 18.4774 28.9784 27.8796V36.4108H26.4539H23.9294V35.7511C23.9294 35.1479 23.8299 35.0269 22.7694 34.3402C21.2975 33.3872 19.886 32.9663 18.2259 32.9853C17.138 32.9978 16.4903 33.1588 14.3924 33.9381C11.2731 35.0969 9.94555 35.3689 8.04526 35.2384C5.36687 35.0545 3.18496 33.5896 2.12075 31.2609C1.30214 29.4696 0.902715 26.6577 1.23234 25.0068L1.34921 24.4214H4.22433H7.09944V25.358C7.09944 26.0657 7.03087 26.2947 6.81894 26.2947C6.66466 26.2947 6.36382 26.4696 6.15038 26.6834C5.83162 27.0028 5.78386 27.2118 5.88295 27.8543C6.29624 30.5337 7.31378 31.6051 9.66838 31.8402C10.5741 31.9306 11.1037 31.8369 12.9899 31.2527C14.224 30.8704 15.8229 30.4007 16.5428 30.209C18.7664 29.6169 21.4598 29.8046 23.1252 30.6678C23.4544 30.8384 23.7699 30.978 23.8265 30.978C23.8807 30.9724 23.9274 29.4662 23.9274 27.6247V24.2774L22.0107 24.9903C17.2577 26.7578 11.0886 29.0674 10.7907 29.1907C10.491 29.3147 10.4631 29.155 10.4591 27.2922L10.4535 25.2578L12.0018 23.8116L13.5483 22.3654L9.94856 22.3597L6.34882 22.3541L6.35505 21.1833C6.36217 19.8425 6.45331 19.6957 8.12202 18.336C12.3054 14.9273 17.7113 14.5492 22.7581 17.3128C23.9954 17.9903 24.1138 18.0223 24.1138 17.6784C24.1138 17.17 25.9053 16.2708 27.4927 15.9824C29.4773 15.6218 32.3521 16.149 34.5435 17.2753L35.2139 17.6199L36.8439 16.8951C38.8968 15.9822 39.8149 15.8474 41.2105 16.2538C42.0945 16.5113 42.4928 16.78 43.4842 17.7879C44.7964 19.122 46.1731 21.3909 46.177 22.226C46.1783 22.5162 46.0933 22.9149 45.9879 23.1121C45.7288 23.5972 43.0692 25.7309 41.6383 26.6016L40.4787 27.3073L41.3188 27.4581C43.7898 27.9017 45.7423 28.6597 47.5079 29.8609L48.6105 30.6109L48.6092 24.9371C48.608 19.6946 48.5811 19.2225 48.2555 18.7278C47.791 18.0219 47.0221 17.5326 46.1441 17.384C45.6055 17.2903 45.4279 17.1723 45.4279 16.9025C45.4279 16.5528 45.7766 16.5444 60.1541 16.5488C68.2534 16.5513 75.2013 16.6279 75.5938 16.7192C76.7375 16.9851 77.7843 17.8311 78.2745 18.8855C78.7099 19.8223 78.7101 19.8266 78.7119 28.1123V36.4037H76.196H73.6802L73.6249 35.1485L73.5696 33.8933L72.0736 33.0879C70.1662 32.0611 67.9463 31.3438 66.271 31.2131C63.7012 31.0126 60.5051 31.7342 60.0308 32.622C59.7273 33.1901 60.2967 33.7795 61.2763 33.9111C61.7123 33.9697 62.0691 34.0728 62.0691 34.1401C62.0691 34.2074 61.6236 34.5039 61.0791 34.7989L60.0892 35.3354L59.0689 35.0009C57.6717 34.5427 56.8206 34.0917 56.3013 33.5343C55.8891 33.0918 55.8669 32.9469 55.9273 31.0926C55.9889 29.2022 56.0143 29.0975 56.546 28.5421C57.3366 27.716 58.8427 27.0618 60.8507 26.6722C62.8198 26.2902 63.0042 26.2107 63.0042 25.7436C63.0042 25.1999 62.5123 24.9163 59.2175 23.5601C56.1778 22.309 56.0852 22.2548 56.0852 21.7255C56.0852 20.4551 57.1344 19.5826 59.8252 18.6154L60.8537 18.2457L56.5645 18.239L52.2753 18.2322L52.7549 18.7474C53.0187 19.0307 53.329 19.4467 53.4444 19.6717C53.5902 19.956 53.6543 22.6013 53.6543 28.3359V36.5955H51.1298H48.6053V35.5795L48.6142 35.5814ZM73.3879 19.4764C72.9334 18.5153 72.1275 18.2381 69.7825 18.2381C68.0441 18.2381 67.4879 18.3235 65.6281 18.8762C62.8643 19.6967 62.8269 19.7136 62.8269 20.1201C62.8269 20.5592 62.7984 20.5429 66.0059 21.9374C69.6875 23.5381 70.8679 24.3874 70.8679 25.4359C70.8679 25.6582 70.0447 26.0903 68.495 26.6816C67.9804 26.878 67.998 26.8933 69.3331 27.4141C70.7764 27.977 73.1786 29.326 73.4297 29.7147C73.512 29.8419 73.6017 27.7278 73.6292 25.0166C73.671 20.8782 73.6325 19.9889 73.3891 19.475L73.3879 19.4764ZM19.8593 22.0608C21.7378 21.3809 23.5088 20.7395 23.7949 20.6354C24.2376 20.4743 24.2794 20.4027 24.0754 20.1551C23.6632 19.6546 22.2993 19.1634 20.8791 19.0038C18.4415 18.7299 13.4245 19.381 12.8766 20.0423C12.4722 20.5304 13.021 20.6683 15.3798 20.6714C18.0767 20.6749 18.2388 20.8281 16.9422 22.147C16.0734 23.0306 15.9153 23.2969 16.2595 23.2969C16.3609 23.2969 17.9809 22.7407 19.8593 22.0608Z" fill="#5E5E5E"/>
</svg>
